<?xml version="1.0" encoding="utf-8"?>
<!-- Generator: Adobe Illustrator 16.0.0, SVG Export Plug-In . SVG Version: 6.00 Build 0)  -->
<!DOCTYPE svg PUBLIC "-//W3C//DTD SVG 1.1//EN" "http://www.w3.org/Graphics/SVG/1.1/DTD/svg11.dtd" [
	<!ENTITY ns_extend "http://ns.adobe.com/Extensibility/1.0/">
	<!ENTITY ns_ai "http://ns.adobe.com/AdobeIllustrator/10.0/">
	<!ENTITY ns_graphs "http://ns.adobe.com/Graphs/1.0/">
	<!ENTITY ns_vars "http://ns.adobe.com/Variables/1.0/">
	<!ENTITY ns_imrep "http://ns.adobe.com/ImageReplacement/1.0/">
	<!ENTITY ns_sfw "http://ns.adobe.com/SaveForWeb/1.0/">
	<!ENTITY ns_custom "http://ns.adobe.com/GenericCustomNamespace/1.0/">
	<!ENTITY ns_adobe_xpath "http://ns.adobe.com/XPath/1.0/">
]>
<svg version="1.1" id="Layer_1" xmlns:x="&ns_extend;" xmlns:i="&ns_ai;" xmlns:graph="&ns_graphs;"
	 xmlns="http://www.w3.org/2000/svg" xmlns:xlink="http://www.w3.org/1999/xlink" x="0px" y="0px" width="20.515px"
	 height="40.561px" viewBox="0 0 20.515 40.561" enable-background="new 0 0 20.515 40.561" xml:space="preserve">
<metadata>
	<sfw  xmlns="&ns_sfw;">
		<slices></slices>
		<sliceSourceBounds  width="20.515" height="40.561" bottomLeftOrigin="true" x="580.948" y="-558.884"></sliceSourceBounds>
	</sfw>
</metadata>
<g>
	<path fill="#CEA82C" d="M15.333,27.957c0-1.208-0.384-2.207-1.152-2.996c-0.768-0.789-2.047-1.499-3.838-2.132
		c-1.791-0.633-3.185-1.219-4.18-1.76c-3.313-1.777-4.969-4.407-4.969-7.891c0-2.359,0.718-4.3,2.154-5.821
		c1.436-1.521,3.383-2.424,5.843-2.708V0h3.412v4.691c2.474,0.355,4.385,1.404,5.736,3.146c1.351,1.742,2.025,4.006,2.025,6.792
		h-5.16c0-1.791-0.402-3.202-1.205-4.233S12.105,8.85,10.727,8.85c-1.365,0-2.431,0.37-3.199,1.109
		c-0.768,0.739-1.151,1.798-1.151,3.177c0,1.237,0.38,2.229,1.141,2.975c0.76,0.746,2.051,1.454,3.871,2.122
		c1.82,0.668,3.249,1.287,4.286,1.855c1.038,0.569,1.912,1.219,2.623,1.951c0.711,0.733,1.258,1.575,1.642,2.527
		c0.384,0.953,0.576,2.068,0.576,3.349c0,2.402-0.735,4.35-2.207,5.843c-1.471,1.493-3.522,2.374-6.152,2.645v4.158H8.765v-4.137
		c-2.815-0.313-4.979-1.322-6.493-3.028C0.757,31.689,0,29.429,0,26.614h5.182c0,1.791,0.451,3.177,1.354,4.158
		c0.903,0.98,2.179,1.471,3.828,1.471c1.621,0,2.854-0.391,3.7-1.172C14.91,30.289,15.333,29.251,15.333,27.957z"/>
</g>
</svg>
