<?xml version="1.0" encoding="utf-8"?>
<!-- Generator: Adobe Illustrator 16.0.0, SVG Export Plug-In . SVG Version: 6.00 Build 0)  -->
<!DOCTYPE svg PUBLIC "-//W3C//DTD SVG 1.1//EN" "http://www.w3.org/Graphics/SVG/1.1/DTD/svg11.dtd" [
	<!ENTITY ns_extend "http://ns.adobe.com/Extensibility/1.0/">
	<!ENTITY ns_ai "http://ns.adobe.com/AdobeIllustrator/10.0/">
	<!ENTITY ns_graphs "http://ns.adobe.com/Graphs/1.0/">
	<!ENTITY ns_vars "http://ns.adobe.com/Variables/1.0/">
	<!ENTITY ns_imrep "http://ns.adobe.com/ImageReplacement/1.0/">
	<!ENTITY ns_sfw "http://ns.adobe.com/SaveForWeb/1.0/">
	<!ENTITY ns_custom "http://ns.adobe.com/GenericCustomNamespace/1.0/">
	<!ENTITY ns_adobe_xpath "http://ns.adobe.com/XPath/1.0/">
]>
<svg version="1.1" id="Layer_1" xmlns:x="&ns_extend;" xmlns:i="&ns_ai;" xmlns:graph="&ns_graphs;"
	 xmlns="http://www.w3.org/2000/svg" xmlns:xlink="http://www.w3.org/1999/xlink" x="0px" y="0px" width="185.374px"
	 height="188.56px" viewBox="0 0 185.374 188.56" enable-background="new 0 0 185.374 188.56" xml:space="preserve">
<metadata>
	<sfw  xmlns="&ns_sfw;">
		<slices></slices>
		<sliceSourceBounds  height="188.559" width="185.374" bottomLeftOrigin="true" x="508.268" y="-635.961"></sliceSourceBounds>
	</sfw>
</metadata>
<g>
	<line fill="none" stroke="#375BAA" stroke-width="8" stroke-miterlimit="10" x1="0" y1="184.56" x2="185.374" y2="184.56"/>
	<g id="PuNOur_2_">
		<g>
			<path fill="#FFFFFF" d="M93.087,155.469c-0.816-0.137-1.643-0.23-2.447-0.417c-5.022-1.171-8.411-4.91-9.098-10.032
				c-0.51-3.804,0.233-7.304,2.661-10.342c2.098-2.624,4.885-4.085,8.185-4.562c2.868-0.412,5.667-0.113,8.299,1.146
				c3.807,1.823,5.956,4.912,6.622,9.035c0.421,2.602,0.214,5.175-0.763,7.638c-1.551,3.913-4.523,6.165-8.551,7.106
				c-0.884,0.207-1.798,0.289-2.697,0.427C94.56,155.469,93.824,155.469,93.087,155.469z M101.604,143.635
				c0.033-0.004,0.066-0.008,0.1-0.012c-0.145-1.394-0.22-2.798-0.449-4.179c-0.336-2.025-1.057-3.916-2.384-5.527
				c-2.471-3.004-6.813-3.057-9.268-0.112c-0.798,0.958-1.326,2.063-1.661,3.253c-0.9,3.193-0.859,6.408-0.121,9.623
				c0.419,1.826,1.101,3.539,2.349,4.975c1.735,1.997,4.561,2.682,7.006,1.691c1.635-0.662,2.615-1.955,3.285-3.52
				C101.307,147.851,101.528,145.755,101.604,143.635z"/>
			<path fill="#FFFFFF" d="M43.99,155.469c-0.835-0.11-1.679-0.181-2.505-0.34c-2.596-0.501-5.005-1.425-6.947-3.303
				c-2.401-2.321-3.527-5.198-3.586-8.503c-0.072-4.016,1.292-7.418,4.428-10.022c2.013-1.671,4.362-2.591,6.917-3.03
				c3.244-0.559,6.461-0.348,9.66,0.357c0.451,0.1,0.908,0.168,1.399,0.258c0.037,0.529,0.068,1.071,0.114,1.611
				c0.115,1.344,0.222,2.689,0.366,4.029c0.035,0.329-0.092,0.454-0.358,0.525c-0.588,0.156-0.919-0.02-1.139-0.588
				c-0.831-2.148-2.149-3.836-4.46-4.49c-3.289-0.931-7.77-0.135-9.88,4.518c-0.743,1.637-1.085,3.361-1.146,5.148
				c-0.069,2.03,0.103,4.029,0.745,5.971c1.323,4.003,4.333,6.175,8.548,6.158c0.34-0.002,0.685-0.006,1.019-0.061
				c0.905-0.148,1.35-0.537,1.387-1.442c0.064-1.604,0.041-3.212,0.015-4.818c-0.009-0.558-0.349-0.953-0.91-1.064
				c-0.787-0.156-1.582-0.273-2.375-0.4c-0.405-0.065-0.579-0.292-0.55-0.743c0.027-0.43,0.177-0.568,0.617-0.563
				c2.754,0.026,5.507,0.06,8.261,0.075c0.722,0.004,1.445-0.031,2.166-0.078c0.339-0.022,0.465,0.118,0.506,0.427
				c0.084,0.631-0.055,0.833-0.681,0.94c-1.396,0.24-1.615,0.426-1.666,1.837c-0.049,1.388,0.001,2.779,0.036,4.169
				c0.011,0.457,0.138,0.877,0.631,1.105c0.109,0.049,0.164,0.361,0.13,0.53c-0.029,0.144-0.206,0.341-0.345,0.368
				c-2.536,0.488-5.019,1.283-7.627,1.363c-0.05,0.002-0.1,0.036-0.15,0.056C45.736,155.469,44.863,155.469,43.99,155.469z"/>
			<path fill="#FFFFFF" d="M121.728,155.469c-0.739-0.108-1.492-0.164-2.215-0.343c-0.774-0.191-1.55-0.435-2.274-0.768
				c-2.355-1.08-3.517-3.066-3.912-5.525c-0.209-1.299-0.306-2.627-0.323-3.943c-0.047-3.354-0.014-6.709-0.029-10.063
				c-0.003-0.556-0.076-1.113-0.151-1.665c-0.086-0.621-0.471-0.997-1.072-1.146c-0.423-0.104-0.85-0.191-1.276-0.279
				c-0.387-0.082-0.548-0.311-0.509-0.738c0.039-0.426,0.196-0.563,0.625-0.558c2.576,0.026,5.152,0.058,7.729,0.071
				c0.79,0.004,1.582-0.027,2.371-0.078c0.381-0.024,0.516,0.139,0.545,0.479c0.042,0.505-0.089,0.747-0.455,0.813
				c-0.335,0.059-0.673,0.107-1.006,0.177c-0.94,0.197-1.306,0.577-1.4,1.545c-0.069,0.704-0.103,1.414-0.104,2.121
				c-0.004,3.437-0.004,6.872,0.023,10.308c0.011,1.297,0.174,2.584,0.579,3.825c0.739,2.266,2.302,3.531,4.675,3.694
				c0.831,0.057,1.7,0.001,2.511-0.184c1.609-0.364,2.677-1.445,3.374-2.91c0.722-1.518,1.024-3.145,1.037-4.799
				c0.025-3.244-0.022-6.488-0.082-9.732c-0.015-0.77-0.179-1.539-0.304-2.305c-0.114-0.701-0.557-1.147-1.228-1.335
				c-0.575-0.161-1.165-0.272-1.751-0.396c-0.381-0.081-0.504-0.29-0.464-0.8c0.027-0.352,0.153-0.507,0.56-0.504
				c2.78,0.022,5.561,0.02,8.341,0.005c0.325-0.001,0.475,0.084,0.516,0.407c0.065,0.517-0.034,0.796-0.356,0.88
				c-0.421,0.111-0.846,0.207-1.264,0.328c-0.751,0.216-1.25,0.705-1.34,1.484c-0.164,1.432-0.339,2.869-0.383,4.309
				c-0.067,2.221-0.018,4.444-0.037,6.667c-0.015,1.515-0.124,3.02-0.463,4.505c-0.771,3.375-2.896,5.36-6.229,6.113
				c-0.647,0.146-1.311,0.228-1.967,0.339C123.255,155.469,122.492,155.469,121.728,155.469z"/>
			<path fill="#FFFFFF" d="M101.084,64.592c-1.356-1.209-2.544-2.526-3.548-3.992c-0.799-1.167-1.505-2.398-2.256-3.599
				c-0.119-0.189-0.139-0.342-0.021-0.557c2.026-3.673,3.183-7.625,3.733-11.767c0.545-4.09,0.56-8.185,0.064-12.278
				c-0.67-5.539-2.339-10.725-5.687-15.258c-4.446-6.021-10.364-9.698-17.768-10.944c-4.483-0.755-8.936-0.506-13.37,0.384
				c-0.987,0.199-1.966,0.442-2.953,0.646C59.03,7.28,58.929,7.389,58.962,7.64c0.012,0.094,0.002,0.19,0.002,0.286
				c0,20.279,0,40.559,0,60.838c0,0.189,0,0.379,0,0.615c0.907,0.184,1.795,0.376,2.688,0.543c3.234,0.604,6.485,1.038,9.789,0.943
				c4.842-0.138,9.399-1.295,13.588-3.78c0.07-0.042,0.143-0.079,0.152-0.084c1.76,1.463,3.494,2.906,5.229,4.349
				c-0.045,0.021-0.156,0.082-0.273,0.126c-3.348,1.284-6.813,2.097-10.361,2.581c-3.223,0.439-6.459,0.581-9.708,0.578
				c-10.433-0.009-20.866-0.003-31.299-0.003c-0.188,0-0.375,0-0.589,0c0-0.666,0-1.287,0-1.97c0.158,0,0.316,0.005,0.474-0.001
				c1.401-0.052,2.813-0.021,4.202-0.182c1.72-0.199,3.191-0.965,4.297-2.353c0.754-0.947,1.047-2.068,1.166-3.224
				c0.162-1.584,0.315-3.179,0.317-4.77c0.023-15.956,0.017-31.913,0.009-47.869c0-1.896-0.135-3.78-0.45-5.658
				c-0.408-2.429-1.896-3.804-4.134-4.519c-1.089-0.348-2.213-0.442-3.351-0.433c-0.829,0.007-1.659,0.001-2.522,0.001
				c0-0.668,0-1.3,0-1.991c0.154,0,0.299,0,0.444,0c9.833,0,19.666-0.007,29.499,0.004c3.71,0.004,7.416,0.145,11.107,0.544
				c4.25,0.46,8.447,1.183,12.454,2.737c5.877,2.28,10.434,6.186,13.901,11.406c2.989,4.5,4.824,9.442,5.591,14.78
				c0.888,6.174,0.637,12.291-1.081,18.31c-1.622,5.684-4.54,10.621-8.687,14.832C101.32,64.373,101.219,64.463,101.084,64.592z"/>
			<path fill="#FFFFFF" d="M121.995,36.873c0-0.721,0-1.358,0-2.021c9.396,0,18.772,0,28.185,0c0,0.644,0,1.289,0,1.979
				c-0.169,0.008-0.34,0.014-0.511,0.025c-0.909,0.061-1.835,0.036-2.726,0.2c-2.497,0.46-3.925,1.922-4.434,4.404
				c-0.404,1.975-0.471,3.978-0.474,5.982c-0.011,7.309-0.007,14.619,0.004,21.928c0.001,0.358-0.096,0.547-0.426,0.721
				c-4.534,2.378-9.258,4.233-14.297,5.225c-4.545,0.895-9.139,1.131-13.757,0.928c-4.126-0.182-8.178-0.813-12.143-2.011
				C87.232,69.945,79.326,58.3,77.002,47.968c-0.908-4.036-1.167-8.115-0.782-12.231c0.808-8.62,4.245-16.124,9.705-22.763
				c0.043-0.053,0.088-0.104,0.136-0.153c0.018-0.017,0.046-0.023,0.095-0.047c1.378,1.013,2.657,2.157,3.793,3.448
				c0.71,0.807,1.357,1.67,2.011,2.525c0.091,0.119,0.131,0.367,0.071,0.5c-1.903,4.169-2.991,8.548-3.395,13.105
				c-0.586,6.608-0.02,13.095,2.114,19.403c1.498,4.427,3.6,8.538,6.688,12.081c4.06,4.656,9.189,7.491,15.259,8.488
				c6.208,1.02,12.083-0.237,17.655-3.059c0.4-0.202,0.925-0.349,1.133-0.683c0.198-0.317,0.064-0.846,0.064-1.281
				c-0.001-6.982,0.019-13.964-0.022-20.945c-0.009-1.507-0.182-3.019-0.374-4.516c-0.309-2.405-2.232-4.215-4.629-4.6
				c-1.273-0.205-2.571-0.252-3.859-0.364C122.452,36.856,122.235,36.873,121.995,36.873z"/>
			<path fill="#FFFFFF" d="M75.531,94.827c1.079-0.308,1.979-1.046,2.797-1.904c0.393-0.411,0.816-0.34,1.023,0.203
				c0.175,0.457,0.281,0.938,0.44,1.401c1.958,5.688,3.919,11.376,5.884,17.063c0.333,0.964,0.686,1.922,1.042,2.879
				c0.385,1.031,1.08,1.621,2.224,1.773c0.808,0.106,1.566,0.08,2.334-0.141c0.778-0.225,1.292-0.707,1.406-1.525
				c0.126-0.902,0.293-1.811,0.3-2.717c0.037-4.977,0.046-9.953,0.027-14.93c-0.005-1.42-0.666-2.104-2.067-2.342
				c-0.323-0.055-0.646-0.098-0.97-0.149c-0.378-0.062-0.509-0.269-0.466-0.733c0.043-0.458,0.176-0.586,0.602-0.579
				c1.867,0.031,3.734,0.064,5.603,0.089c0.747,0.01,1.495,0.002,2.274,0.002c0.903,2.261,2.583,4.086,4.157,5.974
				c2.592,3.111,5.232,6.182,7.854,9.267c0.211,0.247,0.442,0.476,0.729,0.782c0.052-0.254,0.118-0.429,0.118-0.604
				c0.011-3.721,0.151-7.445-0.171-11.16c-0.038-0.433-0.14-0.859-0.215-1.289c-0.135-0.771-0.617-1.236-1.347-1.428
				c-0.551-0.146-1.12-0.223-1.682-0.328c-0.348-0.064-0.477-0.309-0.423-0.816c0.033-0.314,0.119-0.507,0.522-0.499
				c2.331,0.044,4.662,0.061,6.993,0.076c0.49,0.003,0.981-0.03,1.471-0.069c0.265-0.022,0.385,0.096,0.409,0.333
				c0.019,0.188,0.023,0.38,0.012,0.569c-0.015,0.246-0.133,0.385-0.404,0.418c-0.351,0.043-0.697,0.125-1.041,0.209
				c-0.835,0.203-1.403,0.712-1.506,1.576c-0.17,1.432-0.372,2.871-0.384,4.309c-0.045,5.168-0.017,10.336-0.013,15.504
				c0,0.272-0.002,0.549,0.045,0.816c0.063,0.359-0.087,0.607-0.388,0.723c-0.49,0.19-0.996,0.346-1.507,0.47
				c-0.123,0.029-0.344-0.087-0.428-0.202c-4.471-6.129-9.428-11.869-14.175-17.776c-0.323-0.403-0.695-0.767-1.048-1.146
				c-0.033-0.036-0.087-0.054-0.209-0.125c-0.046,0.411-0.123,0.769-0.12,1.126c0.04,4.268,0.083,8.533,0.151,12.801
				c0.01,0.607,0.143,1.216,0.243,1.82c0.129,0.778,0.602,1.276,1.354,1.474c0.551,0.144,1.118,0.229,1.681,0.327
				c0.387,0.068,0.505,0.256,0.475,0.779c-0.021,0.361-0.129,0.545-0.565,0.541c-2.862-0.021-5.725,0.004-8.587-0.01
				c-2.686-0.012-5.371-0.059-8.057-0.073c-0.776-0.005-1.553,0.05-2.33,0.071c-0.412,0.012-0.605-0.181-0.636-0.611
				c-0.027-0.395,0.15-0.629,0.517-0.693c0.456-0.08,0.918-0.141,1.364-0.258c0.52-0.139,0.655-0.368,0.501-0.879
				c-0.542-1.799-1.104-3.591-1.659-5.385c-0.093-0.303-0.295-0.486-0.61-0.53c-0.229-0.031-0.46-0.065-0.69-0.066
				c-1.609-0.007-3.218-0.007-4.827-0.003c-0.627,0.001-0.761,0.089-0.948,0.682c-0.53,1.674-1.066,3.346-1.561,5.029
				c-0.22,0.747-0.082,0.94,0.673,1.132c0.474,0.12,0.961,0.188,1.443,0.28c0.315,0.061,0.461,0.34,0.412,0.801
				c-0.034,0.311-0.128,0.516-0.528,0.513c-2.494-0.017-4.988-0.007-7.482-0.003c-0.237,0-0.525,0.029-0.562-0.264
				c-0.039-0.307,0.026-0.629,0.072-0.941c0.006-0.043,0.159-0.08,0.248-0.094c0.215-0.035,0.432-0.066,0.649-0.077
				c1.062-0.056,1.806-0.596,2.222-1.545c0.497-1.134,0.961-2.284,1.396-3.443c1.814-4.829,3.618-9.663,5.408-14.502
				C75.224,96.192,75.34,95.547,75.531,94.827z M76.21,99.362c-0.08,0.168-0.135,0.262-0.17,0.363
				c-0.785,2.233-1.578,4.464-2.344,6.703c-0.219,0.64-0.043,0.842,0.649,0.846c1.118,0.008,2.235,0.004,3.353,0.003
				c0.959-0.001,1.086-0.163,0.788-1.093c-0.641-1.995-1.295-3.986-1.948-5.977C76.45,99.94,76.335,99.683,76.21,99.362z"/>
			<path fill="#FFFFFF" d="M145.991,98.731c-0.058,0.336-0.126,0.545-0.125,0.753c0.024,4.349,0.046,8.698,0.101,13.047
				c0.009,0.688,0.168,1.377,0.278,2.062c0.124,0.772,0.615,1.237,1.345,1.43c0.551,0.146,1.119,0.229,1.682,0.328
				c0.388,0.068,0.497,0.246,0.459,0.787c-0.023,0.332-0.097,0.543-0.529,0.531c-2.071-0.05-4.144-0.079-6.216-0.087
				c-3.395-0.013-6.789-0.009-10.184,0.001c-0.872,0.002-1.744,0.053-2.617,0.074c-0.406,0.011-0.579-0.16-0.607-0.584
				c-0.03-0.448,0.12-0.654,0.517-0.723c0.416-0.07,0.836-0.127,1.245-0.23c0.645-0.162,0.771-0.365,0.584-1
				c-0.421-1.423-0.868-2.838-1.305-4.256c-0.101-0.324-0.205-0.648-0.307-0.974c-0.106-0.345-0.323-0.563-0.693-0.602
				c-0.243-0.024-0.488-0.056-0.732-0.057c-1.555-0.005-3.108-0.005-4.663-0.002c-0.719,0.001-0.825,0.073-1.045,0.775
				c-0.524,1.675-1.058,3.349-1.547,5.034c-0.192,0.662-0.074,0.821,0.586,0.998c0.499,0.134,1.012,0.212,1.52,0.312
				c0.336,0.065,0.482,0.335,0.438,0.817c-0.03,0.324-0.146,0.511-0.536,0.5c-1.622-0.047-3.244-0.078-4.867-0.085
				c-0.898-0.003-1.799,0.058-2.698,0.079c-0.383,0.009-0.536-0.164-0.558-0.584c-0.025-0.477,0.117-0.682,0.494-0.721
				c0.271-0.028,0.542-0.059,0.813-0.093c0.902-0.116,1.55-0.61,1.916-1.419c0.455-1.002,0.878-2.023,1.266-3.055
				c1.867-4.969,3.726-9.943,5.568-14.922c0.233-0.631,0.357-1.302,0.554-2.037c1.091-0.308,2.015-1.076,2.855-1.967
				c0.286-0.302,0.644-0.271,0.877,0.079c0.074,0.111,0.12,0.244,0.163,0.372c1.611,4.729,3.217,9.459,4.833,14.186
				c0.709,2.074,1.44,4.14,2.164,6.209c0.081,0.23,0.178,0.457,0.263,0.687c0.397,1.076,1.101,1.703,2.299,1.854
				c0.854,0.107,1.647,0.061,2.447-0.205c0.664-0.221,1.137-0.655,1.218-1.352c0.168-1.445,0.367-2.897,0.385-4.35
				c0.052-4.268,0.024-8.536,0.021-12.805c0-0.367-0.032-0.736-0.078-1.101c-0.117-0.919-0.665-1.515-1.639-1.759
				c-0.422-0.105-0.857-0.153-1.287-0.227c-0.488-0.084-0.585-0.23-0.526-0.796c0.046-0.453,0.161-0.536,0.677-0.53
				c2.14,0.027,4.28,0.055,6.421,0.07c0.447,0.003,0.895-0.041,1.336-0.063c0.787,2.053,2.198,3.676,3.567,5.313
				c2.887,3.451,5.817,6.865,8.731,10.293c0.131,0.154,0.269,0.303,0.46,0.516c0.052-0.201,0.096-0.311,0.105-0.423
				c0.029-0.34,0.063-0.681,0.061-1.021c-0.016-2.74-0.012-5.482-0.073-8.222c-0.023-1.072-0.188-2.142-0.308-3.211
				c-0.109-0.972-0.718-1.494-1.63-1.696c-0.479-0.106-0.966-0.17-1.448-0.254c-0.326-0.057-0.473-0.3-0.424-0.741
				c0.035-0.315,0.062-0.585,0.537-0.574c2.194,0.053,4.39,0.069,6.585,0.083c0.626,0.004,1.254-0.037,1.88-0.076
				c0.238-0.015,0.337,0.074,0.397,0.296c0.178,0.658-0.009,0.968-0.669,1.076c-0.215,0.034-0.43,0.07-0.643,0.118
				c-0.933,0.212-1.564,0.761-1.649,1.733c-0.166,1.898-0.367,3.802-0.38,5.704c-0.034,4.963,0.022,9.927,0.055,14.891
				c0.001,0.282-0.084,0.473-0.317,0.605c-0.165,0.094-0.331,0.19-0.507,0.263c-1.089,0.441-1.225,0.361-1.935-0.553
				c-2.138-2.758-4.286-5.509-6.468-8.232c-2.472-3.085-4.982-6.139-7.483-9.201C146.711,99.471,146.382,99.153,145.991,98.731z
				 M126.817,99.382c-0.073,0.128-0.114,0.18-0.135,0.238c-0.807,2.293-1.623,4.584-2.41,6.885
				c-0.188,0.547-0.001,0.761,0.585,0.767c1.13,0.012,2.26,0.006,3.389,0.006c1.02,0,1.143-0.153,0.831-1.122
				c-0.645-2.004-1.304-4.004-1.962-6.006C127.037,99.912,126.935,99.683,126.817,99.382z"/>
			<path fill="#FFFFFF" d="M43.251,117.659c-1.731,0-3.462-0.002-5.193,0c-0.438,0-0.531-0.085-0.561-0.541
				c-0.033-0.518,0.097-0.712,0.497-0.764c0.378-0.049,0.756-0.101,1.131-0.166c0.684-0.121,1.102-0.524,1.19-1.217
				c0.073-0.566,0.146-1.139,0.147-1.707c0.011-5.25,0.011-10.5,0-15.75c-0.001-0.555-0.055-1.117-0.146-1.666
				c-0.134-0.807-0.474-1.117-1.283-1.262c-0.362-0.064-0.728-0.107-1.091-0.16c-0.356-0.05-0.482-0.264-0.443-0.764
				c0.025-0.322,0.085-0.553,0.525-0.546c2.74,0.043,5.48,0.061,8.22,0.075c0.599,0.003,1.2-0.029,1.798-0.071
				c0.299-0.021,0.415,0.109,0.469,0.378c0.124,0.613-0.047,0.873-0.663,0.975c-0.295,0.049-0.593,0.089-0.885,0.153
				c-0.562,0.121-0.945,0.465-1.019,1.036c-0.103,0.794-0.184,1.597-0.199,2.397c-0.031,1.621-0.02,3.244-0.009,4.867
				c0.006,0.854,0.135,0.986,0.971,0.988c2.959,0.007,5.918,0.006,8.877-0.001c0.8-0.002,0.93-0.146,0.93-0.933
				c0.001-1.842,0.01-3.682-0.011-5.523c-0.007-0.568-0.078-1.141-0.163-1.705c-0.089-0.586-0.462-0.947-1.039-1.072
				c-0.465-0.1-0.938-0.166-1.408-0.248c-0.369-0.064-0.518-0.318-0.473-0.791c0.035-0.364,0.168-0.534,0.593-0.527
				c2.794,0.044,5.589,0.061,8.384,0.075c0.599,0.003,1.199-0.033,1.798-0.07c0.26-0.016,0.366,0.101,0.423,0.333
				c0.151,0.619-0.036,0.92-0.648,1.024c-0.321,0.056-0.644,0.109-0.962,0.182c-0.559,0.127-0.945,0.473-1.019,1.04
				c-0.105,0.822-0.198,1.652-0.199,2.479c-0.006,5.223-0.001,10.444,0.035,15.666c0.013,1.822,0.362,2.158,2.148,2.445
				c0.319,0.051,0.739-0.027,0.808,0.496c0.091,0.695-0.056,0.871-0.747,0.871c-3.271-0.004-6.543-0.002-9.814,0.002
				c-0.484,0-0.572-0.07-0.607-0.537c-0.04-0.521,0.094-0.711,0.532-0.773c0.351-0.049,0.702-0.1,1.049-0.165
				c0.645-0.122,1.059-0.499,1.154-1.157c0.079-0.552,0.15-1.109,0.155-1.666c0.019-2.195,0.013-4.391,0.011-6.586
				c0-0.742-0.135-0.891-0.882-0.893c-3-0.008-6-0.008-8.999,0c-0.744,0.002-0.895,0.145-0.893,0.893
				c0.005,2.467,0.028,4.936,0.051,7.402c0.002,0.244,0.05,0.488,0.091,0.729c0.118,0.692,0.503,1.134,1.217,1.245
				c0.484,0.076,0.97,0.141,1.456,0.207c0.357,0.049,0.485,0.259,0.451,0.762c-0.022,0.324-0.082,0.557-0.521,0.55
				C46.741,117.646,44.996,117.659,43.251,117.659z"/>
			<path fill="#FFFFFF" d="M14.927,93.157c3.389-0.05,6.048-0.109,8.691,0.288c2.594,0.392,5.064,1.106,7.119,2.835
				c2.728,2.293,4.034,5.268,4.042,8.8c0.007,3.18-0.925,6.046-3.128,8.413c-1.896,2.037-4.289,3.18-6.977,3.757
				c-2.499,0.536-5.033,0.628-7.569,0.464c-2.577-0.168-5.15-0.166-7.727-0.074c-0.259,0.009-0.521-0.01-0.776,0.023
				c-0.396,0.053-0.583-0.102-0.612-0.496c-0.04-0.541,0.083-0.746,0.525-0.823c0.443-0.076,0.888-0.142,1.327-0.235
				c0.788-0.166,1.15-0.509,1.242-1.309c0.094-0.824,0.143-1.658,0.143-2.488c-0.002-5.059-0.022-10.118-0.043-15.178
				c-0.001-0.311-0.042-0.625-0.093-0.934c-0.141-0.852-0.539-1.234-1.393-1.361c-0.216-0.032-0.433-0.056-0.649-0.08
				c-0.424-0.047-0.581-0.246-0.562-0.719c0.017-0.438,0.157-0.577,0.591-0.598C11.271,93.336,13.463,93.229,14.927,93.157z
				 M16.495,104.399c-0.001,0-0.002,0-0.003,0c0,1.391-0.01,2.781,0.003,4.171c0.014,1.513,0.012,3.026,0.088,4.536
				c0.085,1.689,0.861,2.594,2.531,2.859c0.847,0.135,1.746,0.127,2.598,0.01c2.884-0.398,4.83-2.081,5.979-4.691
				c1.269-2.885,1.448-5.902,0.866-8.971c-0.411-2.164-1.355-4.047-3.109-5.454c-1.459-1.17-3.16-1.761-4.995-1.933
				c-0.956-0.09-1.931-0.072-2.89,0c-0.738,0.057-0.919,0.318-1.007,1.051c-0.037,0.311-0.058,0.625-0.059,0.938
				C16.493,99.409,16.495,101.904,16.495,104.399z"/>
			<path fill="#FFFFFF" d="M63.232,154.974c-1.677,0-3.353-0.012-5.029,0.01c-0.375,0.004-0.518-0.131-0.548-0.477
				c-0.047-0.549,0.062-0.766,0.451-0.844c0.414-0.082,0.831-0.15,1.242-0.245c0.804-0.185,1.152-0.53,1.251-1.353
				c0.087-0.729,0.137-1.467,0.138-2.201c0.009-4.771,0.006-9.544-0.007-14.315c-0.002-0.68-0.044-1.363-0.126-2.038
				c-0.101-0.822-0.435-1.135-1.249-1.276c-0.335-0.059-0.673-0.103-1.009-0.158c-0.374-0.063-0.54-0.282-0.492-0.696
				c0.037-0.322,0.118-0.607,0.548-0.627c1.293-0.061,2.585-0.188,3.878-0.209c2.384-0.039,4.772-0.096,7.153,0
				c1.265,0.052,2.557,0.283,3.767,0.658c2.255,0.699,3.864,2.152,4.433,4.541c0.622,2.61-0.297,4.867-2.547,6.324
				c-0.331,0.215-0.68,0.402-1.026,0.59c-0.53,0.287-0.593,0.42-0.31,0.971c0.902,1.757,1.78,3.527,2.745,5.248
				c0.557,0.993,1.227,1.932,1.914,2.843c0.837,1.11,1.916,1.894,3.344,2.081c0.317,0.043,0.389,0.27,0.408,0.525
				c0.02,0.271-0.074,0.494-0.381,0.53c-0.715,0.083-1.431,0.187-2.149,0.22c-1.162,0.057-2.315-0.029-3.438-0.373
				c-1.888-0.578-3.265-1.807-4.2-3.494c-0.963-1.735-1.814-3.533-2.712-5.305c-0.104-0.207-0.187-0.424-0.292-0.629
				c-0.339-0.664-0.873-1.032-1.629-1.042c-0.34-0.005-0.681,0.008-1.021,0.02c-0.337,0.012-0.555,0.181-0.55,0.526
				c0.035,2.425,0.046,4.851,0.138,7.273c0.033,0.852,0.435,1.184,1.27,1.371c0.398,0.09,0.801,0.158,1.202,0.238
				c0.365,0.072,0.497,0.314,0.45,0.805c-0.032,0.334-0.126,0.526-0.546,0.52C66.612,154.956,64.922,154.974,63.232,154.974z
				 M65.813,137.407c-0.013,0-0.026,0-0.039,0c0,1.281,0,2.563,0,3.844c0,0.054,0.002,0.108,0.005,0.162
				c0.033,0.888,0.201,1.078,1.075,1.147c0.475,0.037,0.953,0.06,1.429,0.044c1.777-0.06,2.981-0.932,3.542-2.622
				c0.195-0.588,0.309-1.218,0.356-1.835c0.116-1.488-0.121-2.916-1.017-4.158c-1.068-1.481-2.582-1.953-4.338-1.854
				c-0.737,0.041-0.988,0.215-1.004,0.939C65.789,134.519,65.813,135.962,65.813,137.407z"/>
			<path fill="#FFFFFF" d="M137.868,0.021c1.305,0,2.593,0,3.862,0c0,7.663,0,15.305,0,23.001c-0.62,0-1.175,0.017-1.727-0.016
				c-0.1-0.006-0.222-0.202-0.275-0.333c-0.737-1.786-1.391-3.61-2.211-5.356c-1.644-3.499-3.875-6.562-6.986-8.931
				c-3.037-2.313-6.46-3.712-10.217-4.279c-4.425-0.667-8.806-0.446-13.105,0.868c-2.15,0.656-3.51,1.326-6.174,2.988
				c-1.684-1.143-3.348-2.272-5.029-3.415c0.077-0.046,0.206-0.13,0.341-0.205c3.641-2.014,7.54-3.248,11.646-3.861
				c3.195-0.477,6.404-0.583,9.627-0.397c3.373,0.195,6.616,0.999,9.797,2.093c2.033,0.7,4.063,1.412,6.098,2.109
				c0.333,0.114,0.682,0.191,1.027,0.262c1.274,0.26,2.316-0.247,2.732-1.484c0.291-0.867,0.379-1.803,0.556-2.709
				C137.849,0.253,137.853,0.146,137.868,0.021z"/>
			<path fill="#FFFFFF" d="M145.777,142.416c0,2.959,0,5.917,0,8.876c0,0.068,0.004,0.137,0.008,0.205
				c0.081,1.432,0.4,1.797,1.812,2.055c0.321,0.059,0.647,0.094,0.969,0.15c0.4,0.07,0.56,0.299,0.524,0.729
				c-0.034,0.42-0.184,0.548-0.632,0.543c-2.591-0.025-5.181-0.062-7.771-0.073c-0.913-0.005-1.826,0.05-2.739,0.072
				c-0.432,0.011-0.607-0.153-0.657-0.588c-0.046-0.412,0.118-0.621,0.549-0.7c0.415-0.077,0.833-0.14,1.243-0.238
				c0.893-0.215,1.215-0.611,1.3-1.632c0.053-0.624,0.084-1.252,0.085-1.878c0.006-4.842,0.009-9.682-0.006-14.523
				c-0.002-0.719-0.073-1.441-0.163-2.156c-0.074-0.594-0.459-0.94-1.055-1.031c-0.417-0.063-0.836-0.117-1.255-0.172
				c-0.389-0.051-0.541-0.229-0.527-0.627c0.013-0.414,0.2-0.656,0.548-0.67c3.011-0.108,6.021-0.264,9.031-0.299
				c2.131-0.025,4.248,0.217,6.251,1.039c4.288,1.764,4.898,5.951,3.762,8.926c-0.699,1.827-2.14,2.906-3.917,3.588
				c-1.475,0.564-3.006,0.744-4.576,0.666c-0.315-0.016-0.439-0.178-0.478-0.446c-0.041-0.29-0.002-0.518,0.346-0.635
				c1.258-0.425,2.351-1.116,2.857-2.39c0.922-2.312,0.936-4.64-0.261-6.869c-0.869-1.619-2.565-2.419-4.367-2.188
				c-0.56,0.072-0.826,0.331-0.876,0.9c-0.037,0.435-0.053,0.871-0.054,1.308c-0.005,2.687-0.002,5.372-0.002,8.06
				C145.743,142.417,145.759,142.417,145.777,142.416z"/>
			<path fill="#FFFFFF" d="M173.998,117.659c-1.744,0-3.488-0.014-5.232,0.012c-0.426,0.006-0.51-0.211-0.541-0.535
				c-0.043-0.459,0.103-0.717,0.441-0.783c0.441-0.085,0.884-0.163,1.324-0.25c0.724-0.143,1.176-0.562,1.254-1.309
				c0.07-0.662,0.144-1.329,0.146-1.994c0.012-4.936,0.013-9.87,0-14.805c-0.002-0.679-0.073-1.359-0.152-2.035
				c-0.081-0.684-0.483-1.107-1.166-1.246c-0.479-0.098-0.962-0.184-1.441-0.285c-0.312-0.064-0.458-0.369-0.401-0.811
				c0.039-0.311,0.131-0.507,0.531-0.501c2.849,0.041,5.697,0.061,8.546,0.074c0.667,0.003,1.336-0.022,2.002-0.073
				c0.381-0.029,0.496,0.175,0.505,0.474c0.01,0.324,0.103,0.722-0.365,0.83c-0.438,0.102-0.885,0.158-1.324,0.253
				c-0.872,0.187-1.219,0.526-1.328,1.421c-0.091,0.742-0.137,1.494-0.139,2.241c-0.012,4.703-0.012,9.406,0.001,14.109
				c0.002,0.774,0.068,1.552,0.145,2.323c0.072,0.738,0.507,1.182,1.236,1.326c0.453,0.092,0.91,0.17,1.364,0.259
				c0.318,0.063,0.461,0.321,0.402,0.761c-0.04,0.305-0.092,0.561-0.532,0.555C177.514,117.646,175.755,117.659,173.998,117.659z"/>
		</g>
	</g>
</g>
</svg>
