<?xml version="1.0" encoding="utf-8"?>
<!-- Generator: Adobe Illustrator 16.0.0, SVG Export Plug-In . SVG Version: 6.00 Build 0)  -->
<!DOCTYPE svg PUBLIC "-//W3C//DTD SVG 1.1//EN" "http://www.w3.org/Graphics/SVG/1.1/DTD/svg11.dtd" [
	<!ENTITY ns_extend "http://ns.adobe.com/Extensibility/1.0/">
	<!ENTITY ns_ai "http://ns.adobe.com/AdobeIllustrator/10.0/">
	<!ENTITY ns_graphs "http://ns.adobe.com/Graphs/1.0/">
	<!ENTITY ns_vars "http://ns.adobe.com/Variables/1.0/">
	<!ENTITY ns_imrep "http://ns.adobe.com/ImageReplacement/1.0/">
	<!ENTITY ns_sfw "http://ns.adobe.com/SaveForWeb/1.0/">
	<!ENTITY ns_custom "http://ns.adobe.com/GenericCustomNamespace/1.0/">
	<!ENTITY ns_adobe_xpath "http://ns.adobe.com/XPath/1.0/">
]>
<svg version="1.1" id="Layer_1" xmlns:x="&ns_extend;" xmlns:i="&ns_ai;" xmlns:graph="&ns_graphs;"
	 xmlns="http://www.w3.org/2000/svg" xmlns:xlink="http://www.w3.org/1999/xlink" x="0px" y="0px" width="96px"
	 height="30px" viewBox="0 0 379.551 113.811" enable-background="new 0 0 379.551 113.811" xml:space="preserve">
<metadata>
	<sfw  xmlns="&ns_sfw;">
		<slices></slices>
		<sliceSourceBounds  height="113.81" width="379.551" y="1097.15" x="407.156" bottomLeftOrigin="true"></sliceSourceBounds>
	</sfw>
</metadata>
<path fill="#FFFFFF" d="M23.922,39.075c-0.534,0.799-6.132,11.997-6.399,12.797c0.088,0.267,0.268,0.445,0.444,0.622
	c1.333,1.067,2.755,2.133,4.089,3.289c3.554,2.843,7.554,4.71,11.997,5.687c0.979,0.267,1.866,0.444,2.844,0.533
	c1.334,0.178,2.755,0.178,4.088-0.177c2.134-0.445,4.355,2.577,1.866,3.821c-0.533,0.267-1.066,0.445-1.688,0.622
	c-1.778,0.355-3.646,0.444-5.421,0c-1.333-0.267-2.668-0.533-3.911-0.889c-3.288-0.711-6.311-2.044-9.065-3.821
	c-1.688-1.066-3.289-2.223-4.799-3.466c-0.889-0.711-1.778-1.422-2.666-2.044c-0.178-0.178-0.355-0.266-0.444-0.356
	c-0.444,0.178-0.711,0.445-0.978,0.711c-0.533,0.623-1.067,1.156-1.6,1.778c-1.6,1.689-3.466,2.666-5.688,3.199
	c-3.645,0.8-6.044-1.776-6.488-4.088c-0.354-2.488,0.178-4.532,1.955-6.221c1.866-1.866,4.177-2.755,6.843-2.755
	c1.155,0,2.313,0.267,3.378,0.622c0.444,0.089,0.889,0.267,1.332,0.445c0.09-0.178,0.268-0.356,0.356-0.445
	c0.089-0.177,0.178-0.355,0.266-0.533c1.69-3.288,3.289-6.487,4.979-9.776c0.088-0.177,0.177-0.354,0.265-0.622
	c-0.177-0.355-0.443-0.533-0.799-0.711c-0.266-0.089-0.533-0.178-0.711-0.354c-3.021-1.422-5.51-3.378-7.643-5.866
	c-1.689-2.044-2.666-4.354-3.11-6.932c-0.09-1.066-0.09-2.044,0.089-3.022c0.355-2.221,0.977-4.443,1.777-6.487
	c0.977-2.4,2.398-4.444,4.088-6.31c1.244-1.422,2.577-2.666,4.088-3.732c1.333-0.889,2.844-1.689,4.354-2.311
	c0.622-0.267,1.333-0.356,1.955-0.356c0.8,0,1.423,0.356,1.778,1.156c0.266,0.711,0.266,1.511-0.267,2.133
	c-0.178,0.266-0.444,0.444-0.712,0.533c-0.267,0.267-0.622,0.355-0.978,0.533c-1.866,0.711-3.554,1.689-4.976,3.022
	c-2.224,1.866-3.91,4.088-5.155,6.754c-0.356,0.711-0.621,1.6-0.889,2.4c-0.179,0.799-0.355,1.51-0.533,2.221
	c-0.533,2.133-0.267,4.177,0.801,6.044c0.532,0.799,1.065,1.599,1.776,2.31c1.776,1.777,3.91,3.288,6.31,4.266
	c0.089,0.089,0.267,0.089,0.445,0.178h0.177c0.089-0.178,0.178-0.268,0.267-0.445c0.179-0.444,0.445-0.889,0.622-1.333
	c1.601-3.999,3.2-8.087,4.889-12.086c1.244-3.022,2.488-5.955,4.088-8.71c1.154-2.043,2.399-4.088,3.91-5.865
	c0.978-1.155,1.955-2.133,3.199-3.022c1.066-0.888,2.311-1.511,3.645-1.777c2.132-0.534,4.087-0.178,5.775,1.155
	c0.622,0.533,1.244,1.066,1.689,1.688c1.155,1.511,1.866,3.11,2.132,4.976c0.445,2.489,0.356,4.977-0.354,7.377
	c-2.133,6.843-5.421,12.797-10.487,17.863c-1.688,1.688-3.644,3.11-5.777,4.088c-2.132,0.978-4.265,1.6-6.575,1.6
	c-1.155,0.089-2.223,0.089-3.377,0.089H23.922z M10.413,53.027c-0.621-0.266-1.244-0.355-1.867-0.355
	c-0.799,0.089-1.51,0.268-2.132,0.533c-1.067,0.445-3.022,2.488-1.422,3.466c0.444,0.268,1.243,0.356,2.044-0.089
	c1.422-0.622,2.487-1.688,3.377-2.932C10.591,53.472,10.591,53.294,10.413,53.027 M26.143,34.631
	c0.268,0.089,0.623,0.179,0.979,0.179c0.533-0.089,0.977-0.089,1.511-0.179c3.021-0.267,5.598-1.422,7.821-3.466
	c1.51-1.333,2.843-2.755,4.088-4.354c2.398-3.021,4.176-6.398,5.598-10.131c0.445-1.422,0.979-2.844,1.156-4.355
	c0.177-1.599,0.177-3.11-0.268-4.621c-0.266-0.889-0.799-1.777-1.511-2.488c-0.8-0.8-1.776-0.978-2.844-0.622
	c-0.355,0.088-0.799,0.266-1.154,0.533c-1.066,0.622-1.956,1.422-2.667,2.311c-0.8,0.978-1.511,1.955-2.222,2.933
	c-1.777,2.666-3.199,5.51-4.443,8.443c-1.511,3.731-3.021,7.465-4.532,11.198c-0.533,1.244-0.979,2.31-1.423,3.554
	C26.055,33.831,25.966,34.188,26.143,34.631"/>
<path fill="#FFFFFF" d="M83.02,45.918c-0.09,0.178-0.267,0.444-0.356,0.622c-1.332,2.489-2.577,4.977-4.087,7.287
	c-0.712,1.156-1.422,2.222-2.222,3.378c-1.155,1.599-2.577,2.932-4.267,3.91c-2.666,1.511-5.332,1.422-7.91,0
	c-1.599-0.89-2.754-2.223-3.377-3.999c-0.089-0.178-0.178-0.356-0.266-0.534c-0.179,0.089-0.267,0.089-0.355,0.178
	c-0.356,0.445-0.801,0.978-1.155,1.422c-1.155,1.511-2.667,2.666-4.355,3.555c-1.776,0.8-3.554,1.067-5.51,0.8
	c-0.711-0.178-1.333-0.444-1.955-0.889c-1.955-1.422-3.288-3.377-3.731-5.776c-0.268-1.245-0.356-2.4-0.268-3.645
	c0.088-2.133,0.355-4.354,0.888-6.398c0.89-3.377,2.312-6.487,4.444-9.242c1.156-1.422,2.311-2.755,3.732-3.822
	c1.511-1.065,3.111-2.044,4.889-2.311c3.198-0.622,6.042,0,8.353,2.489c1.245,1.333,1.867,2.933,2.223,4.71
	c0.267,1.422,0.177,2.844-0.088,4.355c-0.356,1.777-0.89,3.377-1.334,5.065c-0.533,1.777-0.978,3.644-1.423,5.422
	c-0.267,0.799-0.267,1.599-0.267,2.398c0,0.8,0.356,1.422,0.889,1.955c0.445,0.445,1.156,0.889,1.867,1.067
	c0.888,0.177,1.777,0,2.577-0.445c0.889-0.622,1.777-1.244,2.489-2.133c0.71-0.888,1.422-1.777,2.044-2.843
	c1.51-2.578,3.021-5.244,4.443-7.821c0.443-0.8,0.978-1.244,1.776-1.511c0.178-0.089,0.269-0.089,0.444-0.089
	C82.486,42.896,83.374,44.585,83.02,45.918 M47.56,55.072c0.267,1.066,0.8,2.044,1.688,2.755c0.533,0.533,1.244,0.711,1.955,0.622
	c1.066-0.178,1.956-0.622,2.844-1.244c1.155-0.979,2.133-2.044,2.933-3.289c2.488-3.643,4.534-7.554,6.221-11.642
	c0.712-1.599,0.712-3.199,0.179-4.888c-0.179-0.354-0.355-0.799-0.623-1.155c-0.888-1.422-2.933-2.044-4.176-1.866
	c-1.333,0.266-2.578,0.8-3.645,1.688c-2.666,2.133-4.532,4.8-5.865,7.91c-0.533,1.599-0.978,3.11-1.244,4.71
	c-0.267,1.244-0.533,2.577-0.444,3.822C47.293,53.383,47.382,54.272,47.56,55.072"/>
<path fill="#FFFFFF" d="M166.468,16.235c-0.177,0.977-0.356,2.044-0.533,3.11c-0.267,1.956-0.622,3.822-1.065,5.688
	c-1.422,6.043-2.934,12.087-4.445,18.13c-0.533,2.311-1.155,4.621-1.688,6.932c-0.268,1.333-0.445,2.577-0.533,3.91
	c-0.089,1.422-0.089,2.844,0.088,4.177c0.09,1.511,0.267,2.934,0.89,4.267c0.088,0.178,0.177,0.444,0.267,0.711
	c0.266,1.066-0.355,2.222-1.423,2.577c-1.155,0.444-2.311-0.178-2.755-1.066c-0.267-0.445-0.443-0.889-0.533-1.333
	c-0.533-1.866-0.8-3.733-0.889-5.599c-0.089-1.511-0.089-3.022,0-4.533c0.178-1.421,0.355-2.932,0.711-4.443
	c0.622-3.2,1.51-6.398,2.311-9.598c1.066-4.444,2.223-8.976,3.378-13.42c0.622-2.577,1.155-5.243,1.51-7.821
	c0.179-1.155,0.356-2.31,0.445-3.554c0.178-1.244,0.178-2.578,0.178-3.911c0.089-0.355,0-0.711-0.089-1.066
	c0-0.178,0-0.267-0.089-0.445c-0.267-0.444-0.622-0.622-1.067-0.622c-0.266,0.089-0.532,0.178-0.8,0.267
	c-1.688,0.711-3.199,1.689-4.532,2.844c-2.222,2.044-3.91,4.354-5.422,6.843c-1.688,3.021-3.198,6.132-4.442,9.42
	c-2.311,5.955-4.177,11.998-5.688,18.219c-0.622,2.577-1.156,5.066-1.778,7.643c-0.533,2.577-1.422,11.642-6.132,8.887
	c-1.688-0.978-0.889-3.11-0.533-4.532c1.511-6.132,3.021-12.265,4.533-18.397c1.066-4.177,2.132-8.265,3.198-12.353
	c1.245-5.066,2.399-10.042,3.467-15.108c0.355-1.688,0.534-3.466,0.534-5.332c-0.09-0.445-0.09-0.889-0.357-1.333
	c-0.177-0.178-0.443-0.178-0.71,0c-0.178,0.088-0.445,0.266-0.623,0.355c-1.688,1.333-3.199,2.933-4.442,4.622
	c-1.512,2.221-2.844,4.532-4,6.931c-2.043,4.266-3.821,8.799-5.243,13.331c-1.155,3.377-2.221,6.843-3.288,10.22
	c-1.511,4.444-3.022,8.888-4.799,13.153c-0.8,1.955-1.688,3.822-2.755,5.599c-0.355,0.622-0.8,1.156-1.333,1.689
	c-0.444,0.444-0.979,0.711-1.601,0.977c-1.777,0.711-3.466-0.355-4.177-1.599c-0.355-0.622-0.533-1.245-0.711-1.956
	c-0.088-0.799-0.177-1.51-0.177-2.31c-0.09-2.222,0.089-4.444,0.443-6.665c0.799-4.178,1.955-8.265,3.111-12.354
	c1.688-6.31,3.465-12.53,5.154-18.84c0.621-2.222,1.065-4.533,1.422-6.932c0.177-1.333,0.177-2.755-0.178-4.177
	c-0.09-0.356-0.179-0.711-0.355-1.067c-0.533-1.244-1.511-1.777-2.755-1.777c-1.156,0-2.312,0.177-3.466,0.533
	c-4.71,1.511-8.532,4.177-11.376,8.176c-1.333,1.955-2.488,3.91-3.288,6.043c-0.801,1.956-1.244,3.822-1.422,5.866
	c-0.179,1.155-0.268,2.31-0.179,3.466c0.089,1.955,0.444,3.91,1.156,5.777c0.355,0.799,0.71,1.51,1.244,2.221
	c0.444,0.534,0.977,1.067,1.6,1.511c0.889,0.622,1.866,0.978,3.021,0.978c0.355,0.089,0.623,0.089,0.978,0.089
	c0.712,0.178,1.245,0.533,1.422,1.244c0.979,2.666-2.221,3.466-4.177,3.021c-3.109-0.888-5.598-2.666-7.198-5.598
	c-1.243-2.222-1.954-4.622-2.311-7.199c-0.089-1.066-0.177-2.044-0.177-3.111c0-3.821,0.8-7.376,2.31-10.842
	c1.511-3.288,3.556-6.31,5.955-8.976c2.666-2.933,5.866-4.976,9.509-6.31c1.6-0.533,3.199-1.066,4.889-1.244
	c1.422-0.267,2.933-0.178,4.266,0.355c2.398,1.066,3.91,2.843,4.532,5.332c0.532,1.955,0.532,3.999,0.355,6.043
	c-0.355,3.466-1.245,6.754-2.133,10.043c-2.045,7.198-4,14.486-5.955,21.685c-0.711,2.399-1.155,4.799-1.688,7.288
	c-0.268,1.333-0.355,2.666-0.268,4.088c0,0.354,0.089,0.799,0.089,1.155c0.268,0.089,0.355-0.089,0.444-0.178
	c0.356-0.622,0.711-1.333,0.978-1.955c0.978-2.31,1.866-4.532,2.668-6.843c2.31-6.31,4.354-12.709,6.396-19.019
	c1.602-5.243,3.734-10.22,6.311-15.019c0.889-1.688,1.777-3.377,2.845-4.888c1.422-2.044,3.109-3.91,5.064-5.509
	c0.8-0.712,1.689-1.245,2.666-1.778c0.711-0.355,1.6-0.533,2.489-0.533c1.066,0.089,1.954,0.444,2.666,1.333
	c0.889,1.155,1.511,2.488,1.511,3.999c0,2.222-0.178,4.444-0.532,6.665c-0.09,0.356-0.179,0.8-0.179,1.156
	c-0.09,0.354-0.09,0.711,0.089,0.977c0.09,0,0.178-0.088,0.267-0.178c0.267-0.355,0.622-0.799,0.889-1.244
	c1.066-1.422,2.222-2.843,3.555-4.177c1.512-1.422,3.199-2.755,5.065-3.732c0.889-0.534,1.866-0.889,2.756-1.245
	c1.155-0.266,2.222-0.355,3.288,0c1.422,0.534,2.488,1.511,3.11,2.933c0.267,0.711,0.354,1.511,0.533,2.222
	C167.001,11.525,166.823,13.924,166.468,16.235"/>
<path fill="#FFFFFF" d="M203.969,45.918c-0.089,0.178-0.266,0.444-0.356,0.622c-1.332,2.489-2.577,4.977-4.088,7.287
	c-0.71,1.156-1.422,2.222-2.221,3.378c-1.155,1.599-2.577,2.932-4.267,3.91c-2.666,1.511-5.332,1.422-7.909,0
	c-1.6-0.89-2.755-2.223-3.376-3.999c-0.09-0.178-0.18-0.356-0.269-0.534c-0.177,0.089-0.266,0.089-0.354,0.178
	c-0.355,0.445-0.799,0.978-1.155,1.422c-1.155,1.511-2.667,2.666-4.354,3.555c-1.777,0.8-3.556,1.067-5.511,0.8
	c-0.71-0.178-1.333-0.444-1.955-0.889c-1.955-1.422-3.288-3.377-3.732-5.776c-0.267-1.245-0.355-2.4-0.267-3.645
	c0.089-2.133,0.355-4.354,0.889-6.398c0.889-3.377,2.311-6.487,4.443-9.242c1.155-1.422,2.312-2.755,3.733-3.822
	c1.51-1.065,3.11-2.044,4.888-2.311c3.199-0.622,6.043,0,8.354,2.489c1.243,1.333,1.866,2.933,2.221,4.71
	c0.267,1.422,0.178,2.844-0.089,4.355c-0.355,1.777-0.889,3.377-1.333,5.065c-0.533,1.777-0.979,3.644-1.422,5.422
	c-0.267,0.799-0.267,1.599-0.267,2.398c0,0.8,0.355,1.422,0.89,1.955c0.443,0.445,1.154,0.889,1.866,1.067
	c0.888,0.177,1.776,0,2.576-0.445c0.89-0.622,1.778-1.244,2.488-2.133c0.712-0.888,1.422-1.777,2.045-2.843
	c1.511-2.578,3.021-5.244,4.443-7.821c0.443-0.8,0.978-1.244,1.777-1.511c0.178-0.089,0.267-0.089,0.444-0.089
	C203.436,42.896,204.323,44.585,203.969,45.918 M168.51,55.072c0.266,1.066,0.799,2.044,1.688,2.755
	c0.533,0.533,1.244,0.711,1.955,0.622c1.067-0.178,1.956-0.622,2.844-1.244c1.155-0.979,2.134-2.044,2.934-3.289
	c2.488-3.643,4.532-7.554,6.221-11.642c0.71-1.599,0.71-3.199,0.178-4.888c-0.178-0.354-0.355-0.799-0.623-1.155
	c-0.888-1.422-2.932-2.044-4.176-1.866c-1.334,0.266-2.576,0.8-3.645,1.688c-2.665,2.133-4.531,4.8-5.865,7.91
	c-0.533,1.599-0.977,3.11-1.244,4.71c-0.266,1.244-0.534,2.577-0.443,3.822C168.241,53.383,168.332,54.272,168.51,55.072"/>
<path fill="#FFFFFF" d="M224.585,57.116c0.8-0.979,1.599-1.867,2.311-2.755c1.334-1.6,2.487-3.289,3.645-4.977
	c1.243-1.777,2.399-3.466,3.553-5.155c0.356-0.533,0.802-0.977,1.246-1.51c0.267-0.267,0.622-0.445,1.066-0.623
	c0.621-0.177,1.244-0.088,1.778,0.445c0.799,0.711,0.976,1.6,0.443,2.577c-0.089,0.178-0.268,0.355-0.355,0.622
	c-2.223,3.11-4.354,6.221-6.576,9.332c-1.155,1.599-2.4,3.11-3.734,4.621c-0.799,0.889-1.687,1.689-2.844,2.222
	c-0.799,0.444-1.6,0.711-2.487,0.711c-2.844,0.089-4.532-1.866-5.065-3.555c-0.355-1.333-0.445-2.755-0.267-4.177
	c0-0.354,0.088-0.8,0.088-1.244c0,0-0.088-0.089-0.088-0.178c-0.268,0-0.268,0.178-0.443,0.355c-0.979,1.511-2.046,3.021-3.2,4.444
	c-1.601,1.778-3.466,3.022-5.688,3.733c-1.245,0.355-2.487,0.444-3.821,0.178c-1.244-0.267-2.311-0.889-3.199-1.867
	c-1.777-1.955-2.666-4.177-2.755-6.665c-0.089-1.955,0.267-3.91,0.711-5.777c0.889-3.199,2.133-6.31,3.821-9.242
	c0.801-1.245,1.688-2.489,2.666-3.644c1.243-1.333,2.665-2.489,4.355-3.288c1.598-0.89,3.288-1.245,5.154-1.067
	c0.622,0.089,1.244,0.267,1.865,0.534c1.066,0.533,1.956,1.244,2.756,2.221c0.267,0.267,0.443,0.622,0.889,0.889
	c0.089-0.178,0.178-0.356,0.266-0.533c0.622-1.956,1.245-3.822,1.867-5.777c1.155-3.377,2.223-6.665,3.377-10.043
	c0.444-1.332,1.066-2.665,1.6-3.999c0.179-0.444,0.443-0.799,0.8-1.155c0.622-0.622,1.334-0.8,2.223-0.533
	c0.533,0.178,0.888,0.622,1.066,1.155c0.177,0.268,0.177,0.533,0.266,0.8c-0.089,1.067-0.354,2.044-0.711,3.11
	c-0.711,2.755-1.51,5.511-2.222,8.266c-2.133,7.465-4.087,14.93-6.133,22.395c-0.621,1.955-0.978,3.911-1.242,5.954
	c-0.09,0.889-0.269,1.778-0.18,2.755v0.356c0.09,0.8,0.268,1.066,1.156,1.422C223.43,58.271,224.052,57.738,224.585,57.116
	 M217.742,39.697c-0.089-1.244-0.533-2.488-1.334-3.466c-0.355-0.444-0.711-0.8-1.155-1.066c-0.622-0.356-1.333-0.534-2.043-0.356
	c-0.355,0.178-0.622,0.268-0.978,0.356c-1.422,0.533-2.577,1.422-3.645,2.577c-1.065,1.155-1.867,2.31-2.577,3.643
	c-1.866,3.2-2.933,6.577-3.555,10.132c-0.178,0.888-0.267,1.777-0.089,2.755c0.267,1.155,0.8,2.222,1.6,3.11
	c0.622,0.711,1.512,0.978,2.4,0.711c0.177,0,0.265-0.088,0.354-0.088c1.513-0.534,2.756-1.423,3.822-2.578
	c1.422-1.688,2.667-3.554,3.732-5.51c1.245-2.221,2.223-4.532,3.199-6.843c0.268-0.711,0.355-1.511,0.355-2.488
	C217.83,40.408,217.83,40.052,217.742,39.697"/>
<path fill="#FFFFFF" d="M238.359,52.05c0.178,1.155,0.533,2.222,1.066,3.288c0.978,1.689,2.312,2.577,4.178,2.666
	c1.776,0.089,3.377-0.354,4.887-1.244c2.312-1.511,4.443-3.377,6.31-5.599c1.69-1.955,3.2-4.177,4.8-6.31
	c0.355-0.533,0.8-1.066,1.244-1.599c0.178-0.355,0.533-0.711,0.889-0.889c0.8-0.444,1.688-0.355,2.312,0.178
	c0.621,0.622,0.888,1.599,0.532,2.399c-0.088,0.355-0.268,0.622-0.355,0.889c-0.711,1.155-1.511,2.222-2.311,3.288
	c-1.155,1.511-2.311,2.933-3.466,4.444c-2.044,2.487-4.354,4.71-7.11,6.487c-1.332,0.889-2.754,1.6-4.266,2.043
	c-1.866,0.445-3.732,0.445-5.599,0c-2.133-0.444-3.821-1.688-5.065-3.554c-1.244-1.867-1.956-3.911-2.312-6.044
	c-0.266-1.688-0.266-3.288-0.178-4.976c0.089-1.333,0.445-2.667,0.8-3.911c0.979-3.11,2.4-5.954,4.444-8.354
	c1.333-1.599,2.843-2.932,4.533-3.91c1.153-0.711,2.221-1.067,3.466-1.244c2.222-0.267,4.443,0.8,5.598,2.932
	c0.979,1.956,0.979,3.822,0.356,5.866c-0.444,1.244-1.067,2.398-1.866,3.466c-2.756,3.822-6.4,6.043-10.843,6.932
	c-0.622,0.089-1.333,0.178-1.954,0.355c-0.09,0-0.09,0.089-0.268,0.089C238.004,50.539,238.182,51.339,238.359,52.05
	 M239.337,45.029c0.089,0,0.267,0,0.444-0.089c1.6-0.355,3.199-0.978,4.621-1.866c1.688-1.066,3.021-2.577,4.088-4.355
	c0.355-0.622,0.711-1.244,0.801-2.044c0.355-1.511-1.066-2.488-2.133-2.133c-1.067,0.356-1.956,0.889-2.756,1.6
	c-1.955,1.6-3.377,3.555-4.532,5.866c-0.356,0.71-0.622,1.421-0.889,2.222c-0.089,0.178-0.089,0.444-0.089,0.711
	C239.07,44.94,239.159,45.029,239.337,45.029"/>
<path fill="#FFFFFF" d="M259.865,46.896c0.799-3.555,1.865-7.021,2.933-10.487c1.154-3.999,2.312-7.909,3.554-11.909
	c1.067-3.288,2.135-6.487,3.2-9.776c0.179-0.711,0.356-1.333,0.622-2.044c0.178-0.444,0.356-0.8,0.533-1.244
	c0.354-0.622,0.889-0.978,1.688-0.978h0.178c1.333,0,1.866,0.889,1.866,1.867c0,0.533-0.089,1.066-0.266,1.6
	c-0.712,2.133-1.334,4.177-2.045,6.221c-2.31,7.198-4.533,14.486-6.665,21.773c-0.622,2.311-1.244,4.622-1.688,7.021
	c-0.355,1.511-0.533,2.933-0.533,4.444c0,1.066,0.266,2.132,0.622,3.11c0.088,0.444,0.355,0.889,0.711,1.155
	c0.354,0.267,0.711,0.356,1.155,0.267c0.621-0.178,1.155-0.444,1.6-0.889c0.533-0.533,1.156-1.065,1.688-1.688
	c1.777-2.044,3.555-4.177,4.977-6.577c0.978-1.511,2.045-3.022,3.022-4.532c0.266-0.356,0.621-0.711,0.978-1.067
	c0.444-0.444,0.977-0.622,1.688-0.533c1.333,0.178,1.955,1.422,1.689,2.311c-0.089,0.355-0.267,0.711-0.445,0.978
	c-1.688,2.489-3.377,4.977-4.976,7.466c-1.067,1.51-2.312,3.021-3.556,4.443c-0.978,1.067-2.044,2.044-3.199,2.933
	c-1.423,1.066-3.11,1.422-4.889,1.244c-0.355,0-0.621-0.089-0.977-0.268c-1.422-0.622-2.488-1.688-3.111-3.109
	c-0.533-1.155-0.888-2.312-0.978-3.556c-0.088-0.622-0.178-1.333-0.178-1.776C259.154,50.983,259.421,48.939,259.865,46.896"/>
<path fill="#FFFFFF" d="M281.191,52.05c0.18,1.155,0.534,2.222,1.067,3.288c0.978,1.689,2.312,2.577,4.177,2.666
	c1.778,0.089,3.377-0.354,4.89-1.244c2.31-1.511,4.442-3.377,6.309-5.599c1.689-1.955,3.2-4.177,4.799-6.31
	c0.355-0.533,0.8-1.066,1.245-1.599c0.177-0.355,0.532-0.711,0.889-0.889c0.799-0.444,1.688-0.355,2.311,0.178
	c0.622,0.622,0.888,1.599,0.533,2.399c-0.09,0.355-0.268,0.622-0.356,0.889c-0.711,1.155-1.51,2.222-2.31,3.288
	c-1.156,1.511-2.312,2.933-3.467,4.444c-2.045,2.487-4.354,4.71-7.109,6.487c-1.333,0.889-2.755,1.6-4.266,2.043
	c-1.866,0.445-3.732,0.445-5.6,0c-2.133-0.444-3.821-1.688-5.066-3.554c-1.243-1.867-1.953-3.911-2.31-6.044
	c-0.266-1.688-0.266-3.288-0.178-4.976c0.089-1.333,0.444-2.667,0.8-3.911c0.979-3.11,2.4-5.954,4.444-8.354
	c1.333-1.599,2.844-2.932,4.532-3.91c1.154-0.711,2.221-1.067,3.466-1.244c2.222-0.267,4.442,0.8,5.599,2.932
	c0.979,1.956,0.979,3.822,0.355,5.866c-0.444,1.244-1.067,2.398-1.866,3.466c-2.754,3.822-6.399,6.043-10.843,6.932
	c-0.622,0.089-1.332,0.178-1.954,0.355c-0.091,0-0.091,0.089-0.268,0.089C280.837,50.539,281.015,51.339,281.191,52.05
	 M282.17,45.029c0.089,0,0.267,0,0.444-0.089c1.601-0.355,3.199-0.978,4.622-1.866c1.688-1.066,3.021-2.577,4.089-4.355
	c0.354-0.622,0.71-1.244,0.799-2.044c0.355-1.511-1.066-2.488-2.133-2.133c-1.066,0.356-1.955,0.889-2.755,1.6
	c-1.955,1.6-3.377,3.555-4.533,5.866c-0.355,0.71-0.622,1.421-0.889,2.222c-0.089,0.178-0.089,0.444-0.089,0.711
	C281.904,44.94,281.993,45.029,282.17,45.029"/>
<path fill="#FFFFFF" d="M310.43,57.382c1.155-1.244,2.223-2.666,3.199-4.088c1.778-2.488,3.467-5.065,5.066-7.643
	c0.178-0.355,0.355-0.711,0.622-0.978c0.533-0.8,1.243-1.066,2.133-0.889c0.889,0.089,1.599,0.978,1.599,1.866
	c0,0.267-0.088,0.622-0.177,0.889c-0.178,0.356-0.355,0.8-0.533,1.155c-2.222,3.644-4.533,7.199-7.199,10.665
	c-0.8,0.977-1.6,1.955-2.577,2.844c-0.8,0.711-1.688,1.244-2.755,1.422c-3.378,0.711-6.222-0.889-7.465-3.377
	c-0.354-0.622-0.532-1.333-0.623-2.044c-0.088-1.334-0.177-2.667-0.088-4c0.179-3.199,0.888-6.221,1.778-9.153
	c1.065-3.644,2.221-7.288,3.288-10.932c0.177-0.266,0.266-0.622,0.443-0.977c0.444-0.889,1.155-1.244,2.222-1.067
	c0.801,0.178,1.422,0.978,1.511,1.867c0,0.354,0,0.8-0.089,1.155c-0.266,0.889-0.533,1.778-0.799,2.666
	c-0.712,2.4-1.512,4.799-2.223,7.199c-0.622,1.955-1.154,3.91-1.51,5.954c-0.355,1.866-0.534,3.644-0.534,5.51
	c0.089,0.444,0.089,0.8,0.179,1.244c0.177,0.979,0.711,1.6,1.688,1.867c0.266,0.089,0.445,0.089,0.711,0.177
	C309.186,58.538,309.896,58.004,310.43,57.382 M310.341,25.033c-0.711-1.244-0.177-2.844,0.979-3.466
	c0.888-0.533,1.776-0.533,2.577,0c0.711,0.355,0.978,0.977,1.065,1.688c0.178,1.689-1.422,3.022-2.755,2.844
	C311.319,26.099,310.696,25.833,310.341,25.033"/>
<path fill="#FFFFFF" d="M326.692,30.276c0.978,0.444,1.422,1.422,1.156,2.4c-0.179,0.444-0.356,0.977-0.533,1.422
	c-0.179,0.533-0.445,1.066-0.623,1.599c-0.177,0.268-0.267,0.622-0.355,0.889c0.179,0.178,0.179,0,0.268,0
	c1.155-1.155,2.222-2.311,3.288-3.377c0.888-0.889,1.955-1.511,3.11-1.955c0.71-0.356,1.512-0.534,2.311-0.534
	c1.776-0.089,3.11,0.8,3.644,2.311c0.179,0.711,0.268,1.422,0.355,2.133c0,0.711-0.088,1.511-0.088,2.222
	c-0.18,2.755-0.89,5.51-1.334,8.354c-0.355,1.955-0.801,3.999-0.978,6.132c-0.089,0.177-0.089,0.444-0.089,0.711v3.021
	c0,0.534,0.089,0.978,0.355,1.422c0.267,0.623,0.711,0.889,1.333,0.889c0.532,0,0.978-0.089,1.422-0.355
	c0.623-0.445,1.245-0.978,1.777-1.6c0.89-1.244,1.778-2.4,2.577-3.644c1.333-2.044,2.578-4.088,3.911-6.132
	c0.444-0.711,0.888-1.422,1.422-2.133c0.177-0.267,0.444-0.533,0.711-0.8c0.8-0.8,2.132-0.622,2.845,0.089
	c1.065,1.066,0.354,2.311-0.268,3.289c-1.422,2.31-2.933,4.532-4.354,6.842c-0.711,1.067-1.423,2.133-2.134,3.289
	c-0.977,1.333-2.133,2.666-3.466,3.644c-0.266,0.266-0.623,0.533-0.978,0.799c-0.889,0.533-1.866,0.89-2.934,0.89
	c-0.799,0-1.51-0.089-2.221-0.267c-1.778-0.444-3.021-1.6-3.644-3.289c-0.356-1.066-0.532-2.133-0.532-3.288
	c-0.09-2.044,0.088-4.177,0.443-6.221c0.532-3.288,1.154-6.577,1.777-9.776c0.177-1.333,0.355-2.666,0.177-3.999
	c-0.088-0.089-0.177-0.178-0.177-0.267c-0.445,0-0.711,0.178-0.978,0.356c-0.444,0.354-0.979,0.711-1.422,1.065
	c-1.243,1.156-2.311,2.4-3.288,3.733c-1.333,1.866-2.489,3.821-3.556,5.865c-1.51,3.2-2.844,6.398-4.088,9.598
	c-0.534,1.6-1.155,3.111-1.956,4.533c-0.177,0.354-0.443,0.711-0.621,1.065c-0.444,0.533-1.065,0.711-1.688,0.711
	c-0.711-0.088-1.155-0.355-1.511-0.977c-0.355-0.533-0.444-1.067-0.267-1.778c1.155-4.442,2.222-8.976,3.466-13.419
	c0.978-3.289,2.043-6.665,3.2-9.954c0.533-1.333,1.155-2.666,1.688-4.088c0.268-0.711,0.712-1.244,1.511-1.422
	c0.179-0.089,0.355-0.178,0.623-0.178C326.16,30.099,326.426,30.188,326.692,30.276"/>
<path fill="#FFFFFF" d="M353.175,52.05c0.178,1.155,0.532,2.222,1.065,3.288c0.979,1.689,2.312,2.577,4.179,2.666
	c1.776,0.089,3.376-0.354,4.888-1.244c2.31-1.511,4.443-3.377,6.31-5.599c1.688-1.955,3.199-4.177,4.798-6.31
	c0.356-0.533,0.801-1.066,1.245-1.599c0.178-0.355,0.533-0.711,0.889-0.889c0.8-0.444,1.688-0.355,2.311,0.178
	c0.622,0.622,0.89,1.599,0.533,2.399c-0.089,0.355-0.267,0.622-0.355,0.889c-0.711,1.155-1.511,2.222-2.31,3.288
	c-1.157,1.511-2.313,2.933-3.467,4.444c-2.044,2.487-4.355,4.71-7.11,6.487c-1.332,0.889-2.754,1.6-4.266,2.043
	c-1.866,0.445-3.732,0.445-5.599,0c-2.133-0.444-3.821-1.688-5.065-3.554c-1.244-1.867-1.954-3.911-2.311-6.044
	c-0.267-1.688-0.267-3.288-0.178-4.976c0.088-1.333,0.444-2.667,0.799-3.911c0.979-3.11,2.4-5.954,4.445-8.354
	c1.332-1.599,2.844-2.932,4.531-3.91c1.155-0.711,2.222-1.067,3.467-1.244c2.221-0.267,4.442,0.8,5.598,2.932
	c0.979,1.956,0.979,3.822,0.355,5.866c-0.444,1.244-1.066,2.398-1.866,3.466c-2.754,3.822-6.398,6.043-10.842,6.932
	c-0.622,0.089-1.333,0.178-1.955,0.355c-0.089,0-0.089,0.089-0.266,0.089C352.819,50.539,352.998,51.339,353.175,52.05
	 M354.152,45.029c0.088,0,0.268,0,0.444-0.089c1.6-0.355,3.2-0.978,4.622-1.866c1.688-1.066,3.02-2.577,4.088-4.355
	c0.354-0.622,0.711-1.244,0.8-2.044c0.355-1.511-1.067-2.488-2.133-2.133c-1.067,0.356-1.956,0.889-2.755,1.6
	c-1.955,1.6-3.377,3.555-4.534,5.866c-0.355,0.71-0.621,1.421-0.888,2.222c-0.09,0.178-0.09,0.444-0.09,0.711
	C353.886,44.94,353.976,45.029,354.152,45.029"/>
<path fill="#FFFFFF" d="M15.909,82.336v-1.431h5.008v1.968h-0.359L15.909,82.336z M21.273,102.902l4.65,0.536v1.431H15.909v-1.431
	l4.648-0.536H21.273z M19.307,91.993c0-3.684,0-7.404-0.106-11.088h3.434c-0.108,3.613-0.108,7.332-0.108,11.088v1.359
	c0,4.113,0,7.833,0.108,11.517H19.2c0.106-3.613,0.106-7.332,0.106-11.088V91.993z M30.824,80.905l1.608,1.789H20.917v-1.789h12.768
	l0.251,6.367h-2.003L30.824,80.905z M29.286,93.46h-8.369v-1.646h8.369V93.46z M28.141,92.172l0.536-3.792h1.61v8.835h-1.61
	l-0.536-3.97V92.172z"/>
<path fill="#FFFFFF" d="M38.528,97.358v-1.682c0-1.967-0.034-3.075-0.105-4.506l-2.862-0.322v-1.252l4.864-2.146l0.537,0.358
	l0.429,4.471v5.079c0,2.217,0.036,5.901,0.107,7.511h-3.075C38.494,103.259,38.528,99.575,38.528,97.358 M35.846,103.617
	l3.936-0.715h0.715l3.934,0.715v1.252h-8.584V103.617z M39.96,92.529h2.039l-0.895,0.25c1.145-3.326,3.325-5.329,5.437-5.329
	c1.037,0,2.11,0.501,2.539,1.216c0,1.681-0.645,2.611-2.073,2.611c-0.823,0-1.503-0.322-2.147-0.858l-0.965-0.823l1.752-0.358
	c-2.218,1.145-3.506,2.934-4.328,5.687H39.96V92.529z"/>
<path fill="#FFFFFF" d="M65.401,94.282c0,0.823-0.108,1.538-0.25,2.003H51.953v-1.502h8.512c1.718,0,2.111-0.823,2.111-1.824
	c0-2.039-1.717-3.899-3.97-3.899c-2.289,0-4.937,1.932-4.937,7.046c0,4.542,2.289,6.975,5.866,6.975c2.289,0,3.719-1.038,5.007-2.54
	l0.822,0.644c-1.287,2.539-3.576,4.149-6.831,4.149c-4.793,0-7.904-3.326-7.904-8.763c0-5.472,3.72-9.12,8.154-9.12
	C62.47,87.451,65.401,89.954,65.401,94.282"/>
<path fill="#FFFFFF" d="M71.317,104.869c0.071-1.61,0.106-5.293,0.106-7.511v-1.681c0-1.967-0.035-3.076-0.106-4.506l-2.861-0.322
	v-1.252l4.863-2.146l0.537,0.357l0.429,4.149v5.4c0,2.218,0.036,5.901,0.108,7.511H71.317z M76.896,103.617v1.252H68.67v-1.252
	l3.935-0.715h0.715L76.896,103.617z M85.158,94.067v3.29c0,2.289,0.036,5.901,0.108,7.511H82.19c0.071-1.61,0.106-5.222,0.106-7.511
	v-3.004c0-3.327-0.858-4.4-3.004-4.4c-1.789,0-3.255,0.716-5.294,2.468h-0.751v-1.609h1.824l-1.538,0.645
	c1.681-2.254,4.542-4.006,7.082-4.006C83.691,87.451,85.158,89.346,85.158,94.067 M84.192,102.901l3.577,0.715v1.252h-8.227v-1.252
	l3.935-0.715H84.192z"/>
<path fill="#FFFFFF" d="M93.366,96.105c0,4.507,2.396,6.976,5.758,6.976c2.075,0,3.899-1.002,5.007-2.79l0.859,0.429
	c-0.967,2.969-3.256,4.614-6.617,4.614c-4.9,0-7.977-3.434-7.977-8.906c0-5.615,3.936-8.977,8.191-8.977
	c3.184,0,5.83,1.967,6.295,4.612c-0.179,0.896-0.716,1.324-1.609,1.324c-1.181,0-1.646-0.716-1.896-1.61l-0.896-3.147l1.646,1.323
	c-1.216-0.644-2.432-0.895-3.433-0.895C95.583,89.06,93.366,91.528,93.366,96.105"/>
<path fill="#FFFFFF" d="M109.76,81.621l-2.968-0.358v-1.252l5.365-1.609l0.501,0.286l-0.144,5.079v7.582l0.106,0.465v5.544
	c0,2.218,0.037,5.901,0.107,7.511h-3.076c0.072-1.61,0.107-5.293,0.107-7.511V81.621z M115.197,103.617v1.252h-8.227v-1.252
	l3.934-0.715h0.716L115.197,103.617z M123.638,94.067v3.29c0,2.289,0.036,5.901,0.107,7.511h-3.075
	c0.071-1.61,0.107-5.222,0.107-7.511v-3.004c0-3.327-0.859-4.4-3.006-4.4c-1.788,0-3.254,0.644-5.293,2.468h-0.752v-1.609h1.825
	l-1.608,0.645c1.68-2.254,4.613-4.006,7.152-4.006C122.172,87.451,123.638,89.346,123.638,94.067 M122.672,102.901l3.577,0.715
	v1.252h-8.228v-1.252l3.936-0.715H122.672z"/>
<path fill="#FFFFFF" d="M137.358,82.336v-1.431h5.009v1.968h-0.358L137.358,82.336z M142.367,102.902v1.967h-5.009v-1.432
	l4.65-0.536H142.367z M140.758,91.993c0-3.684,0-7.404-0.108-11.088h3.435c-0.108,3.613-0.108,7.332-0.108,11.088v1.252
	c0,4.22,0,7.939,0.108,11.624h-3.435c0.108-3.613,0.108-7.332,0.108-11.088V91.993z M142.367,91.671h3.54
	c4.399,0,6.296-1.395,6.296-4.685c0-3.291-1.896-4.435-5.58-4.435h-4.256v-1.646h5.293c4.899,0,7.762,2.433,7.762,5.866
	c0,2.79-1.933,5.258-6.689,5.83v-0.322c5.58,0.465,7.869,2.969,7.869,6.045c0,3.254-2.682,6.545-9.443,6.545h-4.791v-1.646h3.934
	c4.65,0,6.902-1.753,6.902-4.9c0-3.327-2.182-5.007-7.188-5.007h-3.647V91.671z"/>
<path fill="#FFFFFF" d="M165.739,95.498c1.502-0.537,3.756-1.18,5.545-1.503v1.288c-1.61,0.322-3.722,1.002-4.794,1.431
	c-3.219,1.251-3.577,2.611-3.577,3.648c0,1.895,1.252,2.647,2.897,2.647c1.252,0,1.968-0.465,4.221-2.075l0.715-0.536l0.501,0.751
	l-1.037,1.037c-2.147,2.146-3.362,3.147-5.543,3.147c-2.611,0-4.794-1.503-4.794-4.471C159.873,98.86,160.946,97.25,165.739,95.498
	 M169.852,101.578v-8.155c0-3.505-1.001-4.363-3.361-4.363c-0.822,0-1.896,0.106-3.219,0.643l1.431-1.108l-0.931,3.076
	c-0.321,1.037-0.858,1.609-1.823,1.609s-1.537-0.536-1.609-1.431c0.679-2.718,3.326-4.399,6.902-4.399
	c3.684,0,5.472,1.681,5.472,6.188v7.582c0,1.61,0.501,2.182,1.324,2.182c0.607,0,1.001-0.322,1.395-0.787l0.715,0.787
	c-0.857,1.359-1.823,1.824-3.039,1.824C171.14,105.227,169.852,103.796,169.852,101.578"/>
<path fill="#FFFFFF" d="M182.779,78.401l0.5,0.287l-0.144,5.078v13.592c0,2.503,0.035,5.007,0.107,7.511h-3.076
	c0.071-2.504,0.108-5.008,0.108-7.511V81.62l-2.97-0.357v-1.252L182.779,78.401z M186.104,103.617v1.252h-8.798v-1.252l4.042-0.715
	h0.715L186.104,103.617z M193.4,87.915l-11.695,12.018v-2.075l9.514-9.943H193.4z M191.935,102.902l3.935,0.715v1.252h-4.721
	l-5.974-9.514l2.002-2.075l7.047,11.016L191.935,102.902z M189.896,90.097l-3.256-0.823v-1.359h8.299v1.359l-3.971,0.609
	L189.896,90.097z"/>
<path fill="#FFFFFF" d="M211.585,94.282c0,0.823-0.108,1.538-0.25,2.003h-13.199v-1.502h8.513c1.718,0,2.11-0.823,2.11-1.824
	c0-2.039-1.717-3.899-3.969-3.899c-2.289,0-4.938,1.932-4.938,7.046c0,4.542,2.289,6.975,5.866,6.975c2.289,0,3.72-1.038,5.007-2.54
	l0.823,0.644c-1.288,2.539-3.577,4.149-6.831,4.149c-4.794,0-7.905-3.326-7.905-8.763c0-5.472,3.721-9.12,8.155-9.12
	C208.652,87.451,211.585,89.954,211.585,94.282"/>
<path fill="#FFFFFF" d="M217.607,97.358v-1.682c0-1.967-0.036-3.075-0.107-4.506l-2.862-0.322v-1.252l4.865-2.146l0.536,0.358
	l0.43,4.471v5.079c0,2.217,0.036,5.901,0.107,7.511H217.5C217.571,103.259,217.607,99.575,217.607,97.358 M214.924,103.617
	l3.937-0.715h0.714l3.934,0.715v1.252h-8.584V103.617z M219.038,92.529h2.039l-0.895,0.25c1.145-3.326,3.325-5.329,5.437-5.329
	c1.037,0,2.109,0.501,2.539,1.216c0,1.681-0.645,2.611-2.074,2.611c-0.823,0-1.502-0.322-2.146-0.858l-0.966-0.823l1.753-0.358
	c-2.218,1.145-3.506,2.934-4.328,5.687h-1.358V92.529z"/>
<path fill="#FFFFFF" d="M228.778,111.45c0.25-1.001,1.288-1.502,2.36-1.502c0.93,0,1.645,0.358,2.612,1.323l1.107,1.109
	l-1.396,0.787l-0.965-0.787c2.396-1.18,3.826-3.648,4.721-6.152l1.109-3.112l5.508-15.2h1.932l-6.367,16.738
	c-2.432,6.439-4.434,9.157-7.367,9.157C230.28,113.811,228.778,112.845,228.778,111.45 M232.427,89.704l-3.505-0.536v-1.252h8.512
	v1.287l-4.292,0.501H232.427z M237.756,106.729l-7.476-18.813h3.326l5.616,15.236L237.756,106.729z M243.836,89.704l-3.791-0.536
	v-1.252h7.01v1.252l-2.503,0.536H243.836z"/>
<path fill="#FFFFFF" d="M259.414,97.858c0,2.611,1.933,5.222,5.437,5.222c2.54,0,5.008-1.109,6.295-2.932l1.074,0.894
	c-1.503,2.289-4.042,4.292-8.227,4.292c-4.472,0-7.583-2.897-7.583-6.546c0-3.505,2.218-6.08,6.402-7.904l0.715,1.037
	C260.237,93.423,259.414,95.891,259.414,97.858 M261.669,91.17c-1.789-2.039-2.47-3.863-2.47-5.758c0-3.112,2.47-5.044,5.795-5.044
	c3.506,0,5.4,1.896,5.4,4.579c0,2.646-1.895,4.506-6.188,6.688l-0.571-1.001c2.575-1.646,4.47-3.327,4.47-5.616
	c0-2.11-1.359-3.398-3.146-3.398c-1.825,0-3.29,1.431-3.29,3.362c0,1.288,0.286,2.396,1.608,4.078
	c1.395,1.717,2.467,2.861,4.687,5.293c2.825,3.076,4.97,5.365,8.726,9.371l-1.789-0.822l4.615,0.572l-0.143,1.502
	c-1.038,0.25-1.754,0.358-2.684,0.358c-1.859,0-2.968-0.429-4.112-1.646c-2.36-2.611-4.113-4.613-5.973-6.688
	C264.529,94.532,263.349,93.101,261.669,91.17 M275.33,90.634h1.646c-0.894,4.149-2.467,7.296-4.614,10.3l-1.144-0.715
	C273.185,97.429,274.545,94.461,275.33,90.634 M275.724,91.492l-3.397-0.537v-1.43h7.225v1.43l-3.111,0.537H275.724z"/>
<path fill="#FFFFFF" d="M309.906,101.328v1.967l-2.217,0.501l0.894-5.294h2.183l-0.144,5.186c-2.253,1.217-4.722,1.717-7.225,1.717
	c-7.225,0-12.089-5.222-12.089-12.519c0-7.153,5.079-12.518,12.053-12.518c1.932,0,4.471,0.322,6.903,1.716l0.143,5.187h-2.181
	l-0.895-5.294l2.218,0.501v2.182c-2.039-1.896-4.042-2.504-5.759-2.504c-4.828,0-8.727,3.755-8.727,10.729s3.504,10.73,8.476,10.73
	C305.578,103.617,307.867,103.009,309.906,101.328"/>
<path fill="#FFFFFF" d="M319.724,95.498c1.502-0.537,3.756-1.18,5.545-1.503v1.288c-1.609,0.322-3.721,1.002-4.794,1.431
	c-3.218,1.251-3.577,2.611-3.577,3.648c0,1.895,1.253,2.647,2.898,2.647c1.251,0,1.967-0.465,4.22-2.075l0.715-0.536l0.501,0.751
	l-1.036,1.037c-2.147,2.146-3.362,3.147-5.543,3.147c-2.611,0-4.795-1.503-4.795-4.471C313.857,98.86,314.931,97.25,319.724,95.498
	 M323.837,101.578v-8.155c0-3.505-1.001-4.363-3.362-4.363c-0.822,0-1.895,0.106-3.218,0.643l1.43-1.108l-0.93,3.076
	c-0.322,1.037-0.859,1.609-1.824,1.609s-1.537-0.536-1.608-1.431c0.679-2.718,3.326-4.399,6.901-4.399
	c3.685,0,5.473,1.681,5.473,6.188v7.582c0,1.61,0.501,2.182,1.323,2.182c0.608,0,1.001-0.322,1.396-0.787l0.715,0.787
	c-0.858,1.359-1.824,1.824-3.04,1.824C325.125,105.227,323.837,103.796,323.837,101.578"/>
<path fill="#FFFFFF" d="M334.652,89.775h-3.004v-1.538l4.041-0.536l-1.037,0.536c0.358-4.113,0.931-6.295,2.539-8.012
	c1.539-1.681,3.363-2.181,4.973-2.181c1.681,0,3.04,0.536,3.397,1.896c-0.071,0.894-0.857,1.574-2.145,1.574
	c-0.896,0-1.683-0.358-2.54-1.002l-1.753-1.323l3.004-0.715l0.823,1.073c-0.395-0.215-0.967-0.429-1.396-0.429
	c-1.073,0-2.289,0.786-2.968,2.002c-0.823,1.431-1.36,3.827-1.074,8.191v8.047c0,2.504,0.036,5.008,0.108,7.511h-3.077
	c0.072-2.503,0.107-5.007,0.107-7.511V89.775z M340.84,103.617v1.251h-9.156v-1.251l4.043-0.716h0.715L340.84,103.617z
	 M342.449,89.775h-6.366v-1.86h6.366V89.775z"/>
<path fill="#FFFFFF" d="M358.947,94.282c0,0.823-0.107,1.538-0.25,2.003H345.5v-1.502h8.512c1.717,0,2.111-0.823,2.111-1.824
	c0-2.039-1.717-3.899-3.971-3.899c-2.289,0-4.936,1.932-4.936,7.046c0,4.542,2.289,6.975,5.865,6.975
	c2.289,0,3.719-1.038,5.008-2.54l0.822,0.644c-1.288,2.539-3.577,4.149-6.832,4.149c-4.792,0-7.904-3.326-7.904-8.763
	c0-5.472,3.719-9.12,8.155-9.12C356.015,87.451,358.947,89.954,358.947,94.282"/>
</svg>
