<?xml version="1.0" encoding="utf-8"?>
<!-- Generator: Adobe Illustrator 16.0.0, SVG Export Plug-In . SVG Version: 6.00 Build 0)  -->
<!DOCTYPE svg PUBLIC "-//W3C//DTD SVG 1.1//EN" "http://www.w3.org/Graphics/SVG/1.1/DTD/svg11.dtd" [
	<!ENTITY ns_extend "http://ns.adobe.com/Extensibility/1.0/">
	<!ENTITY ns_ai "http://ns.adobe.com/AdobeIllustrator/10.0/">
	<!ENTITY ns_graphs "http://ns.adobe.com/Graphs/1.0/">
	<!ENTITY ns_vars "http://ns.adobe.com/Variables/1.0/">
	<!ENTITY ns_imrep "http://ns.adobe.com/ImageReplacement/1.0/">
	<!ENTITY ns_sfw "http://ns.adobe.com/SaveForWeb/1.0/">
	<!ENTITY ns_custom "http://ns.adobe.com/GenericCustomNamespace/1.0/">
	<!ENTITY ns_adobe_xpath "http://ns.adobe.com/XPath/1.0/">
]>
<svg version="1.1" id="Layer_1" xmlns:x="&ns_extend;" xmlns:i="&ns_ai;" xmlns:graph="&ns_graphs;"
	 xmlns="http://www.w3.org/2000/svg" xmlns:xlink="http://www.w3.org/1999/xlink" x="0px" y="0px" width="68.717px"
	 height="69.438px" viewBox="0 0 68.717 69.438" enable-background="new 0 0 68.717 69.438" xml:space="preserve">
<metadata>
	<sfw  xmlns="&ns_sfw;">
		<slices></slices>
		<sliceSourceBounds  height="69.437" width="68.717" y="-575.437" x="567" bottomLeftOrigin="true"></sliceSourceBounds>
	</sfw>
</metadata>
<path fill="#FFFFFF" d="M14.939,19.614c-0.313,0.116-1.272,0.526-1.009-1.009c0.299-1.743,3.443-11.253,15.509-14.149
	C41.503,1.561,49.027,5.641,51.527,8.91c0.854,1.115-0.271,1.073-1.732,1.359C36.107,12.945,23.1,16.587,14.939,19.614
	 M22.979,53.268c-1.381,0.558-2.45,0.817-1.721,1.779c1.723,2.274,10.736,6.505,22.432,2.362
	c10.822-3.832,13.959-11.891,14.119-13.651c0.141-1.551-0.613-1.237-1.605-0.991C46.578,45.159,34.822,48.483,22.979,53.268"/>
<path fill="#FFFFFF" d="M42.754,10.203c0,0,1.974-0.658,1.579-2.27c-0.395-1.612-5.067-3.554-8.588-3.652
	c0,0,8.048-0.703,10.857,3.274C48.15,9.743,42.754,10.203,42.754,10.203 M25.282,6.584c0,0-6.948,3.194-8.473,9.739
	c-0.279,1.201,1.036,1.168,1.218,0.247C18.15,15.943,18.998,11.157,25.282,6.584 M44.837,55.772c0,0,7.554-2.717,9.725-9.403
	c0.397-1.228-1.477-1.749-1.739-0.499C52.684,46.524,51.506,51.332,44.837,55.772"/>
<path fill="#FFFFFF" d="M60.719,45.212c-4.342,9.807-13.121,17.184-24.261,18.274c-8.897,0.872-17.228-2.349-23.271-8.167
	c-1.64,0.701-3.698,1.508-3.698,1.508v-5.796c-3.233-4.528-5.319-10.026-5.772-16.08C2.629,20.432,11.433,7.837,23.957,2.98
	c5.015-1.946,12.26-3.224,20.257-1.665C41.195,0.459,38.011,0,34.718,0C15.544,0,0,15.544,0,34.718
	c0,19.176,15.544,34.719,34.718,34.719c14.359,0,26.684-8.719,31.967-21.151L60.719,45.212z"/>
<path fill="#FFFFFF" d="M67.021,42.452c0-0.525-0.425-0.949-0.949-0.949h-1.596v3.378h0.66V43.4h0.365l0.847,1.48h0.659
	l-0.849-1.485C66.642,43.352,67.021,42.946,67.021,42.452 M65.136,41.979h0.781c0.26,0,0.471,0.211,0.471,0.473
	c0,0.26-0.211,0.471-0.471,0.471h-0.781V41.979z M65.653,40.075c-1.69,0-3.062,1.396-3.062,3.116c0,1.722,1.371,3.116,3.062,3.116
	c1.692,0,3.063-1.395,3.063-3.116C68.717,41.471,67.346,40.075,65.653,40.075 M65.653,45.54c-1.274,0-2.308-1.051-2.308-2.349
	c0-1.297,1.033-2.349,2.308-2.349c1.276,0,2.31,1.052,2.31,2.349C67.963,44.489,66.93,45.54,65.653,45.54 M23.602,46.764
	c1.071,1.071,1.071,2.808,0,3.879s-2.808,1.071-3.879,0l-4.41-4.41v5.396c0,0,0.066,1.843-1.283,2.436
	c-1.686,0.739-3.85,1.579-3.85,1.579V38.698l5.133-2.173v6.149l4.47-7.588c0.661-1.118,2.083-1.383,3.291-0.905
	c1.22,0.483,1.646,1.81,0.762,3.298l-3.581,5.936L23.602,46.764z M30.776,45.542c0,0,0.044,2.412-2.325,3.246l-3.07,1.097V35.144
	c0,0-0.043-2.412,2.325-3.246l3.07-1.097V45.542z M16.036,31.294c-0.113-1.713-2.039-2.271-2.039-2.271s1.81-1.053,1.546-3.356
	c-0.357-3.122-4.048-1.645-4.048-1.645l-3.914,1.448v12.403c0,0,2.532-1.053,5.133-2.203C15.363,34.495,16.168,33.269,16.036,31.294
	 M10.641,26.425c0,0,1.908-0.888,1.842,0.691c-0.064,1.578-1.842,1.974-1.842,1.974V26.425z M10.641,34.091v-3.092
	c0,0,2.141-1.021,2.073,0.854C12.647,33.663,10.641,34.091,10.641,34.091 M24.756,21.062c0,0,0.032,5.495,0,6.383
	c-0.033,0.889,0.165,4.08-3.915,5.363c-4.408,1.387-4.508-2.6-4.508-2.6v-8.061c0,0,1.315-0.494,1.611-0.593
	c1.601-0.533,1.58,0.888,1.58,0.888v6.482c0,0-0.099,1.251,0.921,1.119c1.283-0.166,1.151-1.514,1.151-1.514v-8.259
	c0,0,0.79-0.263,1.48-0.46C24.818,19.313,24.756,21.062,24.756,21.062 M33.969,28.003c0.954-1.118-0.263-2.236-0.263-2.236
	l-1.811-1.843c0,0,1.948-1.019,1.908-3.948c-0.032-2.435-2.698-2.698-4.836-1.941c-0.697,0.246-3.323,1.02-3.323,1.02v11.647
	l1.941-0.658c0,0,1.217-0.329,1.217-1.941v-2.698l2.764,2.764C31.566,28.169,32.845,29.321,33.969,28.003 M30.646,21.095
	c-0.132,1.971-1.876,2.5-1.876,2.5v-3.224C28.77,20.371,30.744,19.614,30.646,21.095 M55.322,21.522v-2.218l2.566,2.843
	c0,0,1.119,1.25,2.401,0.061c1.017-0.941-0.263-2.204-0.263-2.204l-1.711-2.168c0,0,1.811-0.888,1.777-3.389
	c-0.032-2.439-2.468-2.99-4.606-2.493c-0.697,0.162-3.324,0.617-3.324,0.617v11.166l1.942-0.422
	C54.105,23.315,55.322,23.134,55.322,21.522 M55.157,14.316c0,0,1.955-0.69,1.844,0.789c-0.132,1.744-1.844,2.172-1.844,2.172
	V14.316z M34.231,21.16c0.165-2.599,2.238-7.008,8.127-6.153c0.773,0.113,1.415,0.634,1.415,1.415c0,0.782-0.633,1.415-1.415,1.415
	c0,0-4.507-1.053-4.705,3.455c-0.08,1.833,0.441,2.759,1.316,2.896c1.053,0.164,1.851-0.328,1.941-0.691
	c0.032-0.132-0.032-1.349-0.032-1.349s-1.613,0.427-1.646-0.625c-0.032-1.054,0.033-1.415,0.033-1.415l4.508-1.053v4.573
	c0,0,0.099,2.731-4.211,3.225C35.252,27.346,34.067,23.76,34.231,21.16 M50.196,24.063l-5.566,1.276V14.053l6.761-1.371
	c0,0,0.001,1.088,0,1.371c-0.004,1.184-1.211,1.389-1.211,1.389l-2.441,0.56v1.629l3.274-0.688c0,0,0.001,0.824,0,1.108
	c-0.005,1.184-1.103,1.349-1.103,1.349l-2.172,0.504v2.169l3.669-0.771c0,0,0.001,1.088,0,1.372
	C51.402,23.856,50.196,24.063,50.196,24.063 M47.097,41.446c0,0,0.047,2.19-2.325,2.555c-0.83,0.129-1.819-0.197-2.5-0.961
	c-1.034-1.157-5.089-5.791-5.089-5.791v6.285c0,0,0.011,2.401-2.402,3.137l-2.369,0.845V30.372l2.709-0.821
	c0,0,1.514-0.593,2.862,0.921l4.442,5.166v-5.495c0,0-0.066-2.45,2.303-2.985l2.369-0.583V41.446z M53.168,32.339
	c-0.478,3.418,1.084,4.672,2.86,4.716c2.147,0.053,2.227-1.324,2.227-1.324v-1.245c-2.677,0.715-2.623-1.087-2.623-1.087v-1.987
	l7.207-1.537v5.67c0,2.729-1.693,5.359-7.374,5.772c-4.417,0.322-8.206-2.725-7.394-8.782c0.777-5.785,5.252-8.717,9.998-8.701
	c0.871,0.003,1.863,0.13,2.631,0.312c1.927,0.457,2.43,1.702,2.139,2.788c-0.578,2.153-2.411,1.457-4.293,1.22
	C56.665,27.913,53.645,28.921,53.168,32.339"/>
</svg>
