<?xml version="1.0" encoding="utf-8"?>
<!-- Generator: Adobe Illustrator 16.0.0, SVG Export Plug-In . SVG Version: 6.00 Build 0)  -->
<!DOCTYPE svg PUBLIC "-//W3C//DTD SVG 1.1//EN" "http://www.w3.org/Graphics/SVG/1.1/DTD/svg11.dtd" [
	<!ENTITY ns_extend "http://ns.adobe.com/Extensibility/1.0/">
	<!ENTITY ns_ai "http://ns.adobe.com/AdobeIllustrator/10.0/">
	<!ENTITY ns_graphs "http://ns.adobe.com/Graphs/1.0/">
	<!ENTITY ns_vars "http://ns.adobe.com/Variables/1.0/">
	<!ENTITY ns_imrep "http://ns.adobe.com/ImageReplacement/1.0/">
	<!ENTITY ns_sfw "http://ns.adobe.com/SaveForWeb/1.0/">
	<!ENTITY ns_custom "http://ns.adobe.com/GenericCustomNamespace/1.0/">
	<!ENTITY ns_adobe_xpath "http://ns.adobe.com/XPath/1.0/">
]>
<svg version="1.1" id="Layer_1" xmlns:x="&ns_extend;" xmlns:i="&ns_ai;" xmlns:graph="&ns_graphs;"
	 xmlns="http://www.w3.org/2000/svg" xmlns:xlink="http://www.w3.org/1999/xlink" x="0px" y="0px" width="131.473px"
	 height="118.946px" viewBox="0 0 131.473 118.946" enable-background="new 0 0 131.473 118.946" xml:space="preserve">
<metadata>
	<sfw  xmlns="&ns_sfw;">
		<slices></slices>
		<sliceSourceBounds  height="118.946" width="131.474" y="-271.468" x="301.325" bottomLeftOrigin="true"></sliceSourceBounds>
	</sfw>
</metadata>
<path fill="#FFFFFF" d="M65.111,118.946c-0.624-0.105-1.257-0.177-1.872-0.32c-3.843-0.895-6.435-3.755-6.961-7.675
	c-0.39-2.91,0.178-5.588,2.036-7.912c1.604-2.008,3.737-3.126,6.262-3.49c2.194-0.316,4.335-0.087,6.349,0.878
	c2.912,1.394,4.557,3.757,5.067,6.912c0.321,1.99,0.163,3.959-0.584,5.843c-1.187,2.994-3.461,4.717-6.543,5.438
	c-0.676,0.158-1.375,0.22-2.063,0.326H65.111z M71.627,109.892c0.025-0.003,0.051-0.006,0.076-0.009
	c-0.11-1.066-0.168-2.141-0.343-3.197c-0.257-1.55-0.809-2.996-1.824-4.229c-1.89-2.298-5.212-2.338-7.09-0.086
	c-0.611,0.732-1.015,1.578-1.272,2.488c-0.688,2.445-0.657,4.904-0.092,7.364c0.321,1.397,0.842,2.707,1.797,3.806
	c1.327,1.527,3.489,2.051,5.36,1.294c1.251-0.508,2.001-1.496,2.513-2.694C71.4,113.117,71.569,111.514,71.627,109.892"/>
<path fill="#FFFFFF" d="M27.549,118.946c-0.639-0.084-1.284-0.138-1.916-0.26c-1.987-0.384-3.83-1.09-5.316-2.527
	c-1.837-1.776-2.698-3.977-2.744-6.505c-0.054-3.072,0.989-5.676,3.388-7.668c1.54-1.279,3.337-1.983,5.292-2.319
	c2.482-0.427,4.943-0.266,7.391,0.274c0.345,0.076,0.695,0.129,1.07,0.197c0.029,0.405,0.053,0.82,0.088,1.233
	c0.088,1.029,0.17,2.057,0.28,3.083c0.027,0.251-0.07,0.347-0.274,0.401c-0.45,0.12-0.703-0.014-0.871-0.45
	c-0.636-1.644-1.645-2.935-3.413-3.435c-2.516-0.712-5.944-0.103-7.559,3.456c-0.569,1.253-0.83,2.572-0.877,3.94
	c-0.053,1.553,0.079,3.082,0.57,4.568c1.012,3.062,3.316,4.724,6.54,4.711c0.26-0.001,0.524-0.004,0.78-0.046
	c0.692-0.114,1.033-0.411,1.06-1.103c0.05-1.228,0.032-2.458,0.012-3.687c-0.007-0.426-0.267-0.729-0.697-0.815
	c-0.602-0.119-1.21-0.209-1.817-0.306c-0.31-0.05-0.443-0.222-0.42-0.569c0.02-0.329,0.135-0.434,0.472-0.431
	c2.107,0.021,4.214,0.046,6.32,0.058c0.553,0.003,1.106-0.024,1.657-0.06c0.26-0.017,0.356,0.091,0.387,0.327
	c0.065,0.482-0.042,0.637-0.52,0.72c-1.069,0.184-1.236,0.325-1.275,1.404c-0.038,1.062,0.001,2.127,0.027,3.19
	c0.009,0.35,0.106,0.671,0.484,0.846c0.083,0.038,0.125,0.277,0.099,0.406c-0.023,0.11-0.157,0.261-0.264,0.281
	c-1.941,0.374-3.84,0.982-5.836,1.043c-0.039,0.001-0.076,0.028-0.115,0.043H27.549z"/>
<path fill="#FFFFFF" d="M87.024,118.946c-0.566-0.083-1.142-0.125-1.694-0.262c-0.593-0.146-1.186-0.333-1.74-0.587
	c-1.803-0.827-2.691-2.347-2.993-4.228c-0.16-0.993-0.234-2.009-0.248-3.017c-0.035-2.566-0.01-5.133-0.022-7.698
	c-0.002-0.425-0.058-0.852-0.116-1.274c-0.066-0.476-0.36-0.764-0.82-0.877c-0.324-0.079-0.651-0.146-0.977-0.214
	c-0.296-0.062-0.419-0.238-0.389-0.564c0.03-0.326,0.15-0.43,0.478-0.426c1.971,0.02,3.942,0.043,5.913,0.054
	c0.605,0.003,1.21-0.021,1.814-0.06c0.291-0.019,0.395,0.106,0.417,0.366c0.032,0.386-0.068,0.572-0.348,0.621
	c-0.257,0.046-0.515,0.083-0.77,0.136c-0.719,0.151-0.999,0.442-1.072,1.182c-0.053,0.538-0.078,1.081-0.079,1.623
	c-0.002,2.629-0.003,5.257,0.018,7.886c0.008,0.993,0.133,1.976,0.443,2.926c0.566,1.734,1.762,2.702,3.577,2.827
	c0.636,0.044,1.301,0.001,1.921-0.14c1.231-0.279,2.048-1.107,2.581-2.228c0.553-1.16,0.784-2.404,0.794-3.671
	c0.019-2.481-0.017-4.964-0.063-7.445c-0.011-0.59-0.136-1.179-0.232-1.763c-0.088-0.537-0.426-0.879-0.94-1.022
	c-0.44-0.124-0.891-0.209-1.339-0.303c-0.291-0.062-0.386-0.222-0.355-0.612c0.021-0.269,0.117-0.388,0.428-0.385
	c2.127,0.017,4.254,0.015,6.381,0.004c0.249-0.001,0.364,0.064,0.395,0.311c0.05,0.395-0.026,0.609-0.273,0.673
	c-0.321,0.086-0.647,0.159-0.966,0.25c-0.575,0.166-0.957,0.541-1.025,1.137c-0.126,1.095-0.26,2.195-0.293,3.296
	c-0.052,1.699-0.013,3.401-0.029,5.101c-0.011,1.158-0.095,2.31-0.354,3.446c-0.589,2.583-2.216,4.102-4.765,4.678
	c-0.496,0.112-1.003,0.174-1.505,0.259H87.024z"/>
<path fill="#FFFFFF" d="M71.23,49.417c-1.038-0.925-1.947-1.932-2.714-3.054c-0.612-0.893-1.151-1.835-1.727-2.753
	c-0.09-0.145-0.105-0.261-0.015-0.426c1.55-2.81,2.435-5.833,2.856-9.003c0.417-3.129,0.429-6.262,0.05-9.393
	c-0.513-4.238-1.79-8.206-4.351-11.674c-3.402-4.607-7.929-7.42-13.594-8.373c-3.429-0.578-6.836-0.388-10.229,0.294
	c-0.755,0.152-1.504,0.338-2.259,0.494c-0.192,0.04-0.269,0.124-0.244,0.315c0.01,0.072,0.002,0.146,0.002,0.219V52.61v0.471
	c0.694,0.14,1.373,0.288,2.056,0.415c2.475,0.462,4.962,0.795,7.489,0.722c3.705-0.106,7.191-0.991,10.396-2.892
	c0.053-0.032,0.109-0.06,0.116-0.064c1.346,1.119,2.673,2.223,4.001,3.327c-0.034,0.016-0.119,0.062-0.209,0.097
	c-2.562,0.982-5.212,1.604-7.928,1.974c-2.465,0.336-4.941,0.445-7.427,0.443C39.517,57.095,31.535,57.1,23.553,57.1h-0.451v-1.508
	c0.121,0,0.242,0.004,0.363,0c1.072-0.04,2.152-0.017,3.215-0.14c1.315-0.152,2.441-0.738,3.288-1.8
	c0.577-0.724,0.801-1.583,0.891-2.466c0.124-1.213,0.241-2.433,0.243-3.649c0.017-12.208,0.013-24.416,0.007-36.624
	c-0.001-1.45-0.103-2.892-0.344-4.329c-0.312-1.858-1.451-2.91-3.163-3.458c-0.833-0.266-1.694-0.338-2.564-0.331
	c-0.634,0.006-1.269,0.002-1.93,0.002V1.273h0.34c7.523,0,15.046-0.005,22.569,0.003c2.838,0.003,5.674,0.111,8.498,0.417
	c3.251,0.352,6.462,0.905,9.528,2.094c4.497,1.744,7.982,4.732,10.636,8.727c2.287,3.442,3.691,7.223,4.277,11.307
	c0.679,4.724,0.487,9.404-0.827,14.009c-1.24,4.348-3.473,8.126-6.646,11.347C71.41,49.25,71.333,49.32,71.23,49.417"/>
<path fill="#FFFFFF" d="M87.229,28.21v-1.546h21.563v1.514c-0.129,0.007-0.26,0.011-0.39,0.02c-0.696,0.046-1.404,0.027-2.085,0.153
	c-1.911,0.352-3.004,1.47-3.393,3.369c-0.31,1.511-0.36,3.044-0.362,4.577c-0.008,5.592-0.005,11.184,0.003,16.776
	c0,0.275-0.073,0.419-0.326,0.552c-3.469,1.819-7.083,3.239-10.938,3.997c-3.478,0.685-6.992,0.866-10.525,0.71
	c-3.157-0.139-6.257-0.622-9.29-1.539c-10.853-3.28-16.902-12.189-18.68-20.094c-0.694-3.088-0.893-6.209-0.598-9.358
	c0.618-6.595,3.247-12.336,7.425-17.415c0.033-0.041,0.067-0.08,0.104-0.117c0.013-0.014,0.035-0.018,0.072-0.036
	c1.055,0.775,2.033,1.65,2.902,2.638c0.544,0.617,1.039,1.278,1.539,1.932c0.07,0.091,0.101,0.281,0.054,0.382
	c-1.456,3.19-2.288,6.54-2.597,10.026c-0.448,5.056-0.015,10.019,1.618,14.845c1.146,3.387,2.754,6.532,5.117,9.242
	c3.106,3.563,7.03,5.732,11.674,6.495c4.75,0.78,9.244-0.182,13.508-2.34c0.306-0.155,0.707-0.267,0.867-0.523
	c0.151-0.242,0.048-0.647,0.048-0.98c0-5.342,0.015-10.683-0.016-16.025c-0.007-1.152-0.14-2.31-0.287-3.455
	c-0.236-1.84-1.708-3.225-3.541-3.52c-0.974-0.156-1.968-0.193-2.953-0.278C87.578,28.198,87.413,28.21,87.229,28.21"/>
<path fill="#FFFFFF" d="M51.68,72.55c0.826-0.235,1.513-0.8,2.14-1.456c0.3-0.315,0.624-0.26,0.783,0.155
	c0.133,0.349,0.215,0.718,0.337,1.072c1.498,4.352,2.998,8.704,4.501,13.054c0.255,0.739,0.525,1.472,0.797,2.204
	c0.295,0.789,0.826,1.24,1.702,1.356c0.617,0.082,1.198,0.062,1.785-0.107c0.596-0.172,0.989-0.541,1.076-1.167
	c0.097-0.69,0.225-1.385,0.23-2.079c0.028-3.807,0.034-7.615,0.021-11.422c-0.004-1.087-0.51-1.61-1.582-1.792
	c-0.247-0.041-0.495-0.075-0.742-0.114c-0.289-0.047-0.39-0.206-0.356-0.561c0.032-0.351,0.134-0.448,0.459-0.443
	c1.429,0.023,2.858,0.049,4.287,0.068c0.572,0.008,1.144,0.002,1.74,0.002c0.691,1.729,1.977,3.126,3.181,4.571
	c1.983,2.379,4.003,4.729,6.01,7.089c0.16,0.189,0.338,0.363,0.558,0.598c0.039-0.194,0.09-0.328,0.09-0.461
	c0.008-2.847,0.115-5.696-0.131-8.539c-0.029-0.33-0.107-0.658-0.164-0.986c-0.104-0.59-0.473-0.946-1.031-1.093
	c-0.421-0.111-0.857-0.17-1.287-0.25c-0.266-0.05-0.364-0.236-0.323-0.625c0.025-0.24,0.091-0.388,0.4-0.382
	c1.783,0.034,3.567,0.047,5.35,0.058c0.375,0.003,0.751-0.023,1.125-0.053c0.203-0.017,0.295,0.074,0.313,0.255
	c0.015,0.144,0.018,0.291,0.01,0.435c-0.012,0.189-0.103,0.296-0.31,0.321c-0.268,0.033-0.533,0.095-0.796,0.159
	c-0.639,0.156-1.074,0.545-1.152,1.206c-0.13,1.096-0.285,2.197-0.294,3.297c-0.034,3.954-0.012,7.908-0.01,11.862
	c0.001,0.208-0.001,0.42,0.034,0.624c0.049,0.275-0.066,0.465-0.296,0.553c-0.375,0.146-0.762,0.265-1.153,0.359
	c-0.094,0.023-0.263-0.066-0.327-0.154c-3.421-4.689-7.213-9.081-10.845-13.601c-0.247-0.308-0.532-0.586-0.801-0.876
	c-0.026-0.028-0.067-0.042-0.16-0.096c-0.035,0.314-0.095,0.588-0.092,0.862c0.03,3.264,0.063,6.528,0.115,9.793
	c0.007,0.465,0.11,0.93,0.186,1.392c0.099,0.596,0.46,0.977,1.036,1.128c0.421,0.11,0.856,0.175,1.286,0.251
	c0.296,0.052,0.386,0.195,0.363,0.595c-0.016,0.277-0.099,0.417-0.433,0.415c-2.19-0.016-4.38,0.002-6.57-0.008
	c-2.055-0.009-4.109-0.044-6.164-0.056c-0.594-0.004-1.189,0.038-1.783,0.055c-0.315,0.008-0.463-0.139-0.486-0.469
	c-0.021-0.301,0.115-0.48,0.395-0.529c0.349-0.062,0.702-0.108,1.043-0.198c0.398-0.106,0.501-0.282,0.384-0.673
	c-0.415-1.376-0.845-2.747-1.27-4.119c-0.071-0.231-0.226-0.373-0.466-0.406c-0.176-0.024-0.352-0.05-0.528-0.051
	c-1.231-0.005-2.462-0.005-3.694-0.002c-0.48,0.001-0.582,0.068-0.725,0.521c-0.405,1.281-0.815,2.56-1.194,3.848
	c-0.168,0.572-0.063,0.72,0.515,0.867c0.363,0.091,0.736,0.143,1.104,0.213c0.241,0.046,0.353,0.26,0.315,0.613
	c-0.026,0.239-0.098,0.395-0.404,0.393c-1.908-0.013-3.817-0.006-5.725-0.003c-0.181,0-0.402,0.023-0.43-0.201
	c-0.029-0.235,0.02-0.482,0.055-0.72c0.005-0.034,0.122-0.062,0.19-0.073c0.164-0.026,0.33-0.05,0.497-0.058
	c0.812-0.043,1.382-0.456,1.7-1.182c0.38-0.868,0.735-1.748,1.068-2.635c1.388-3.695,2.768-7.393,4.137-11.095
	C51.445,73.596,51.534,73.101,51.68,72.55 M52.2,76.02c-0.061,0.129-0.103,0.201-0.131,0.278c-0.6,1.709-1.207,3.415-1.793,5.129
	c-0.167,0.489-0.033,0.644,0.497,0.647c0.855,0.005,1.71,0.003,2.565,0.002c0.734,0,0.831-0.125,0.603-0.836
	c-0.491-1.527-0.991-3.05-1.491-4.573C52.383,76.463,52.296,76.266,52.2,76.02"/>
<path fill="#FFFFFF" d="M105.588,75.538c-0.045,0.257-0.097,0.417-0.096,0.576c0.019,3.328,0.035,6.655,0.077,9.982
	c0.006,0.527,0.128,1.054,0.212,1.578c0.096,0.59,0.471,0.946,1.029,1.093c0.422,0.111,0.857,0.175,1.287,0.251
	c0.297,0.052,0.38,0.188,0.351,0.602c-0.018,0.255-0.073,0.415-0.404,0.407c-1.585-0.038-3.171-0.061-4.757-0.067
	c-2.597-0.009-5.194-0.007-7.791,0c-0.667,0.002-1.334,0.041-2.002,0.058c-0.311,0.008-0.443-0.124-0.465-0.447
	c-0.023-0.343,0.092-0.5,0.396-0.553c0.318-0.054,0.639-0.098,0.952-0.176c0.493-0.124,0.59-0.279,0.447-0.765
	c-0.322-1.089-0.664-2.171-0.999-3.256c-0.076-0.249-0.156-0.496-0.234-0.745c-0.081-0.264-0.247-0.432-0.53-0.46
	c-0.187-0.019-0.374-0.043-0.56-0.044c-1.19-0.004-2.379-0.003-3.569-0.001c-0.549,0.001-0.631,0.056-0.799,0.593
	c-0.401,1.282-0.809,2.561-1.183,3.851c-0.147,0.506-0.057,0.629,0.448,0.764c0.381,0.102,0.774,0.162,1.163,0.238
	c0.257,0.051,0.369,0.256,0.335,0.626c-0.023,0.248-0.111,0.391-0.41,0.382c-1.241-0.036-2.482-0.059-3.724-0.065
	c-0.688-0.002-1.376,0.044-2.064,0.06c-0.293,0.008-0.41-0.125-0.427-0.445c-0.02-0.365,0.09-0.523,0.378-0.553
	c0.208-0.021,0.415-0.044,0.622-0.07c0.69-0.089,1.185-0.467,1.466-1.085c0.348-0.768,0.671-1.549,0.968-2.338
	c1.429-3.802,2.85-7.607,4.26-11.416c0.179-0.483,0.273-0.996,0.424-1.559c0.834-0.236,1.541-0.823,2.185-1.505
	c0.218-0.231,0.492-0.207,0.67,0.061c0.057,0.085,0.092,0.186,0.126,0.284c1.232,3.618,2.46,7.237,3.697,10.853
	c0.542,1.587,1.102,3.168,1.656,4.75c0.061,0.178,0.136,0.35,0.2,0.526c0.304,0.824,0.843,1.303,1.76,1.419
	c0.652,0.083,1.26,0.046,1.872-0.157c0.508-0.169,0.869-0.501,0.931-1.034c0.129-1.106,0.281-2.217,0.295-3.327
	c0.04-3.265,0.018-6.532,0.016-9.797c-0.001-0.281-0.025-0.564-0.061-0.842c-0.089-0.704-0.508-1.16-1.253-1.346
	c-0.323-0.081-0.656-0.117-0.985-0.174c-0.373-0.064-0.447-0.176-0.403-0.608c0.036-0.347,0.124-0.411,0.518-0.406
	c1.638,0.021,3.275,0.042,4.913,0.054c0.342,0.003,0.684-0.031,1.022-0.048c0.602,1.571,1.682,2.812,2.729,4.064
	c2.209,2.64,4.451,5.253,6.68,7.876c0.1,0.118,0.206,0.231,0.352,0.394c0.04-0.154,0.074-0.238,0.081-0.324
	c0.022-0.259,0.048-0.52,0.047-0.78c-0.012-2.097-0.01-4.195-0.056-6.291c-0.019-0.82-0.145-1.639-0.236-2.456
	c-0.083-0.744-0.549-1.143-1.247-1.298c-0.366-0.082-0.739-0.13-1.108-0.194c-0.25-0.044-0.361-0.23-0.324-0.567
	c0.026-0.241,0.047-0.448,0.411-0.439c1.679,0.04,3.358,0.053,5.038,0.063c0.479,0.003,0.959-0.028,1.438-0.058
	c0.182-0.011,0.258,0.057,0.304,0.227c0.136,0.503-0.007,0.741-0.511,0.823c-0.165,0.026-0.33,0.053-0.492,0.091
	c-0.714,0.162-1.197,0.581-1.262,1.326c-0.127,1.452-0.281,2.908-0.291,4.363c-0.026,3.798,0.017,7.596,0.041,11.393
	c0.002,0.216-0.063,0.362-0.242,0.463c-0.126,0.072-0.253,0.146-0.388,0.201c-0.833,0.338-0.937,0.277-1.48-0.423
	c-1.635-2.11-3.279-4.214-4.948-6.298c-1.891-2.36-3.813-4.697-5.726-7.04C106.138,76.104,105.887,75.86,105.588,75.538
	 M90.918,76.034c-0.056,0.099-0.087,0.138-0.103,0.183c-0.618,1.754-1.242,3.507-1.844,5.267c-0.143,0.419-0.001,0.582,0.447,0.587
	c0.864,0.009,1.729,0.005,2.593,0.005c0.78,0,0.874-0.117,0.636-0.858c-0.494-1.535-0.998-3.065-1.501-4.596
	C91.086,76.441,91.008,76.266,90.918,76.034"/>
<path fill="#FFFFFF" d="M26.983,90.019c-1.324,0-2.649-0.001-3.973,0c-0.336,0-0.407-0.065-0.429-0.415
	c-0.026-0.395,0.074-0.543,0.38-0.583c0.289-0.038,0.578-0.077,0.865-0.128c0.524-0.092,0.843-0.4,0.911-0.93
	c0.056-0.434,0.112-0.871,0.112-1.307c0.009-4.016,0.009-8.033,0.001-12.049c-0.001-0.425-0.043-0.855-0.112-1.275
	c-0.103-0.617-0.363-0.855-0.982-0.965c-0.277-0.05-0.556-0.083-0.835-0.122c-0.272-0.039-0.368-0.202-0.339-0.585
	c0.019-0.246,0.066-0.423,0.402-0.418c2.096,0.033,4.192,0.047,6.289,0.058c0.458,0.002,0.918-0.023,1.375-0.054
	c0.229-0.016,0.317,0.083,0.359,0.289c0.095,0.469-0.036,0.668-0.507,0.746c-0.226,0.037-0.454,0.068-0.677,0.116
	c-0.43,0.094-0.723,0.357-0.779,0.794c-0.079,0.608-0.141,1.222-0.152,1.834c-0.024,1.241-0.015,2.482-0.007,3.724
	c0.004,0.653,0.103,0.754,0.742,0.756c2.264,0.005,4.528,0.005,6.792-0.001c0.611-0.001,0.711-0.11,0.712-0.714
	c0-1.408,0.007-2.816-0.009-4.225c-0.005-0.435-0.059-0.873-0.125-1.304c-0.068-0.449-0.354-0.726-0.795-0.821
	c-0.356-0.076-0.717-0.128-1.076-0.19c-0.283-0.049-0.397-0.243-0.362-0.605c0.026-0.278,0.129-0.408,0.453-0.403
	c2.138,0.034,4.276,0.047,6.414,0.057c0.459,0.002,0.918-0.025,1.376-0.053c0.199-0.013,0.28,0.077,0.324,0.254
	c0.115,0.474-0.028,0.704-0.496,0.784c-0.246,0.042-0.493,0.084-0.736,0.139c-0.428,0.097-0.724,0.362-0.78,0.796
	c-0.081,0.628-0.151,1.263-0.152,1.896c-0.004,3.995-0.001,7.991,0.027,11.986c0.01,1.394,0.277,1.65,1.643,1.87
	c0.245,0.039,0.566-0.021,0.618,0.38c0.07,0.532-0.042,0.667-0.571,0.666c-2.503-0.003-5.006,0-7.509,0.002
	c-0.37,0-0.438-0.054-0.465-0.411c-0.03-0.4,0.072-0.544,0.408-0.591c0.268-0.039,0.536-0.077,0.802-0.127
	c0.493-0.094,0.811-0.382,0.883-0.886c0.06-0.422,0.115-0.848,0.119-1.274c0.014-1.679,0.009-3.359,0.009-5.038
	c-0.001-0.568-0.104-0.682-0.676-0.684c-2.295-0.005-4.59-0.005-6.885,0c-0.569,0.002-0.684,0.111-0.683,0.683
	c0.004,1.888,0.022,3.776,0.04,5.663c0.002,0.187,0.038,0.374,0.069,0.559c0.091,0.529,0.386,0.867,0.931,0.953
	c0.371,0.057,0.743,0.107,1.114,0.158c0.274,0.037,0.372,0.198,0.345,0.582c-0.016,0.248-0.063,0.426-0.398,0.421
	C29.653,90.008,28.318,90.019,26.983,90.019"/>
<path fill="#FFFFFF" d="M5.313,71.273c2.593-0.038,4.628-0.084,6.65,0.221c1.984,0.298,3.874,0.846,5.446,2.168
	c2.087,1.754,3.086,4.031,3.092,6.733c0.006,2.433-0.707,4.626-2.393,6.436c-1.451,1.559-3.281,2.433-5.337,2.875
	c-1.912,0.41-3.851,0.481-5.792,0.355c-1.971-0.128-3.94-0.127-5.911-0.058c-0.198,0.008-0.399-0.006-0.594,0.019
	c-0.302,0.04-0.446-0.078-0.468-0.379c-0.031-0.415,0.064-0.572,0.402-0.63c0.339-0.059,0.679-0.109,1.015-0.18
	c0.603-0.127,0.88-0.39,0.95-1.002c0.073-0.63,0.11-1.269,0.11-1.903c-0.002-3.871-0.017-7.741-0.033-11.612
	c-0.001-0.239-0.032-0.479-0.072-0.715c-0.107-0.652-0.412-0.944-1.065-1.041c-0.165-0.025-0.331-0.043-0.497-0.061
	c-0.324-0.036-0.444-0.188-0.429-0.55c0.013-0.335,0.119-0.442,0.452-0.458C2.516,71.41,4.193,71.328,5.313,71.273 M6.512,79.874
	H6.51c0,1.063-0.008,2.127,0.002,3.191c0.011,1.157,0.009,2.315,0.068,3.471c0.065,1.292,0.658,1.984,1.937,2.188
	c0.647,0.103,1.336,0.097,1.987,0.007c2.207-0.304,3.695-1.592,4.574-3.59c0.971-2.206,1.108-4.515,0.663-6.863
	c-0.315-1.655-1.037-3.096-2.379-4.173c-1.116-0.895-2.418-1.347-3.822-1.479c-0.731-0.068-1.477-0.055-2.21,0.001
	c-0.565,0.043-0.704,0.244-0.771,0.804c-0.028,0.238-0.045,0.478-0.045,0.717C6.51,76.057,6.512,77.965,6.512,79.874"/>
<path fill="#FFFFFF" d="M42.27,118.567c-1.282,0-2.565-0.009-3.847,0.007c-0.287,0.004-0.397-0.1-0.42-0.364
	c-0.036-0.42,0.048-0.586,0.346-0.645c0.316-0.063,0.635-0.116,0.95-0.188c0.615-0.141,0.882-0.406,0.957-1.035
	c0.067-0.558,0.105-1.122,0.106-1.684c0.007-3.651,0.005-7.302-0.005-10.952c-0.001-0.52-0.034-1.043-0.096-1.559
	c-0.077-0.63-0.333-0.869-0.956-0.978c-0.256-0.044-0.515-0.078-0.772-0.12c-0.286-0.048-0.413-0.216-0.376-0.533
	c0.028-0.246,0.09-0.465,0.419-0.48c0.99-0.046,1.978-0.142,2.968-0.159c1.824-0.031,3.651-0.074,5.472,0
	c0.968,0.039,1.956,0.216,2.882,0.503c1.726,0.535,2.956,1.646,3.391,3.474c0.476,1.998-0.227,3.724-1.948,4.839
	c-0.253,0.163-0.52,0.308-0.786,0.451c-0.405,0.22-0.453,0.322-0.236,0.743c0.69,1.344,1.361,2.698,2.1,4.015
	c0.426,0.76,0.939,1.477,1.464,2.175c0.641,0.85,1.466,1.448,2.559,1.592c0.243,0.033,0.298,0.206,0.312,0.401
	c0.015,0.208-0.057,0.38-0.292,0.407c-0.547,0.063-1.095,0.142-1.644,0.168c-0.889,0.043-1.772-0.023-2.63-0.286
	c-1.444-0.442-2.498-1.382-3.214-2.672c-0.736-1.329-1.388-2.704-2.075-4.06c-0.08-0.157-0.143-0.324-0.224-0.481
	c-0.259-0.507-0.668-0.79-1.246-0.797c-0.26-0.003-0.521,0.006-0.782,0.015c-0.257,0.009-0.424,0.138-0.42,0.403
	c0.026,1.855,0.035,3.711,0.105,5.564c0.025,0.652,0.333,0.906,0.972,1.05c0.304,0.068,0.613,0.121,0.919,0.182
	c0.279,0.055,0.38,0.24,0.345,0.615c-0.025,0.256-0.097,0.403-0.419,0.398C44.856,118.554,43.563,118.567,42.27,118.567
	 M44.245,105.127h-0.03c0,0.98,0,1.96,0,2.94c0,0.042,0.002,0.084,0.004,0.125c0.026,0.679,0.154,0.825,0.823,0.878
	c0.363,0.029,0.729,0.045,1.093,0.033c1.36-0.045,2.281-0.711,2.71-2.006c0.149-0.449,0.236-0.93,0.273-1.404
	c0.088-1.138-0.093-2.23-0.778-3.181c-0.817-1.133-1.976-1.493-3.319-1.418c-0.563,0.032-0.756,0.164-0.768,0.719
	C44.227,102.917,44.245,104.022,44.245,105.127"/>
<path fill="#FFFFFF" d="M99.372,0.016h2.955v17.598c-0.474,0-0.899,0.013-1.321-0.012c-0.076-0.004-0.169-0.154-0.211-0.255
	c-0.564-1.366-1.063-2.762-1.691-4.098c-1.258-2.677-2.965-5.02-5.345-6.833c-2.324-1.77-4.942-2.839-7.816-3.273
	c-3.386-0.511-6.738-0.341-10.027,0.664c-1.645,0.501-2.686,1.014-4.724,2.286c-1.288-0.875-2.561-1.739-3.848-2.613
	c0.059-0.035,0.158-0.099,0.261-0.156c2.785-1.541,5.769-2.485,8.91-2.954c2.444-0.365,4.899-0.446,7.365-0.304
	c2.581,0.149,5.062,0.764,7.495,1.602c1.556,0.536,3.109,1.08,4.665,1.613c0.255,0.088,0.522,0.146,0.787,0.2
	c0.975,0.2,1.772-0.188,2.09-1.134c0.223-0.664,0.29-1.38,0.425-2.073C99.358,0.194,99.361,0.112,99.372,0.016"/>
<path fill="#FFFFFF" d="M105.424,108.959c0,2.264,0,4.527,0,6.791c0,0.052,0.003,0.105,0.006,0.156
	c0.062,1.096,0.306,1.375,1.386,1.573c0.246,0.044,0.495,0.071,0.741,0.115c0.306,0.054,0.428,0.229,0.401,0.557
	c-0.026,0.321-0.14,0.419-0.483,0.416c-1.982-0.021-3.964-0.047-5.946-0.057c-0.698-0.003-1.397,0.039-2.096,0.056
	c-0.33,0.008-0.465-0.117-0.502-0.45c-0.036-0.315,0.09-0.475,0.419-0.536c0.318-0.058,0.638-0.106,0.952-0.182
	c0.682-0.164,0.929-0.468,0.994-1.249c0.04-0.477,0.064-0.958,0.065-1.437c0.005-3.703,0.007-7.407-0.005-11.111
	c-0.001-0.55-0.055-1.103-0.124-1.649c-0.057-0.455-0.351-0.72-0.807-0.789c-0.319-0.049-0.64-0.09-0.96-0.132
	c-0.298-0.038-0.414-0.175-0.404-0.48c0.01-0.316,0.154-0.502,0.42-0.512c2.303-0.083,4.605-0.203,6.909-0.229
	c1.63-0.019,3.25,0.166,4.782,0.795c3.281,1.349,3.749,4.553,2.879,6.829c-0.535,1.398-1.638,2.224-2.997,2.745
	c-1.129,0.432-2.3,0.569-3.502,0.509c-0.241-0.011-0.336-0.135-0.365-0.341c-0.031-0.221-0.001-0.396,0.265-0.486
	c0.962-0.325,1.798-0.854,2.186-1.828c0.705-1.768,0.716-3.55-0.2-5.255c-0.665-1.239-1.962-1.851-3.341-1.673
	c-0.428,0.055-0.632,0.252-0.67,0.688c-0.028,0.333-0.04,0.667-0.041,1c-0.003,2.056-0.002,4.111-0.002,6.166H105.424z"/>
<path fill="#FFFFFF" d="M127.015,90.019c-1.335,0-2.669-0.011-4.004,0.008c-0.325,0.005-0.39-0.16-0.413-0.409
	c-0.033-0.351,0.078-0.548,0.338-0.599c0.337-0.065,0.676-0.125,1.013-0.191c0.553-0.109,0.899-0.43,0.959-1.002
	c0.054-0.507,0.11-1.016,0.111-1.526c0.009-3.775,0.01-7.551,0-11.326c-0.001-0.519-0.056-1.04-0.117-1.557
	c-0.061-0.523-0.369-0.847-0.891-0.954c-0.368-0.074-0.737-0.141-1.103-0.217c-0.238-0.05-0.351-0.283-0.308-0.621
	c0.03-0.237,0.101-0.388,0.407-0.383c2.18,0.031,4.359,0.046,6.538,0.056c0.511,0.003,1.023-0.016,1.532-0.055
	c0.291-0.022,0.379,0.133,0.386,0.363c0.007,0.247,0.079,0.552-0.28,0.635c-0.334,0.077-0.676,0.121-1.012,0.194
	c-0.668,0.143-0.933,0.402-1.016,1.086c-0.07,0.568-0.105,1.143-0.106,1.715c-0.009,3.598-0.01,7.197,0,10.795
	c0.002,0.592,0.053,1.187,0.111,1.777c0.055,0.565,0.388,0.904,0.945,1.016c0.348,0.069,0.697,0.129,1.044,0.197
	c0.244,0.048,0.354,0.246,0.309,0.581c-0.032,0.234-0.071,0.43-0.408,0.425C129.705,90.008,128.36,90.019,127.015,90.019"/>
</svg>
