<?xml version="1.0" encoding="utf-8"?>
<!-- Generator: Adobe Illustrator 16.0.0, SVG Export Plug-In . SVG Version: 6.00 Build 0)  -->
<!DOCTYPE svg PUBLIC "-//W3C//DTD SVG 1.1//EN" "http://www.w3.org/Graphics/SVG/1.1/DTD/svg11.dtd" [
	<!ENTITY ns_extend "http://ns.adobe.com/Extensibility/1.0/">
	<!ENTITY ns_ai "http://ns.adobe.com/AdobeIllustrator/10.0/">
	<!ENTITY ns_graphs "http://ns.adobe.com/Graphs/1.0/">
	<!ENTITY ns_vars "http://ns.adobe.com/Variables/1.0/">
	<!ENTITY ns_imrep "http://ns.adobe.com/ImageReplacement/1.0/">
	<!ENTITY ns_sfw "http://ns.adobe.com/SaveForWeb/1.0/">
	<!ENTITY ns_custom "http://ns.adobe.com/GenericCustomNamespace/1.0/">
	<!ENTITY ns_adobe_xpath "http://ns.adobe.com/XPath/1.0/">
]>
<svg version="1.1" id="Layer_1" xmlns:x="&ns_extend;" xmlns:i="&ns_ai;" xmlns:graph="&ns_graphs;"
	 xmlns="http://www.w3.org/2000/svg" xmlns:xlink="http://www.w3.org/1999/xlink" x="0px" y="0px" width="1078.521px"
	 height="666.685px" viewBox="0 0 1078.521 666.685" enable-background="new 0 0 1078.521 666.685" xml:space="preserve">
<metadata>
	<sfw  xmlns="&ns_sfw;">
		<slices></slices>
		<sliceSourceBounds  width="1078.521" height="666.685" x="69.982" y="-859.82" bottomLeftOrigin="true"></sliceSourceBounds>
	</sfw>
</metadata>
<path fill="#15204A" d="M1078.021,83.377v6.627l-11.037,9.995l-8.417,7.616l-9.621-0.321l-7.295,3.982l1.977,7.964v5.638
	l-16.941,8.311l-2.967,11.625v21.913L1037,182.654l-1.656,6.654l-13.95,5.639v8.952l-10.021,5.425l-6.6,3.554h-10.957
	l-17.263,17.611l2.645,2.646l2.993,19.909l-4.756,10.929l-6.521,14.992l-4.302-0.668l-0.989-7.322l-10.716-0.588l7.376,12.88
	l8.631,10.289l-3.661,15.286l-5.985,9.781h-5.853l0.883-11.117l-5.078-7.991l-7.43-3.901l-0.774-10.021l2.325-12.614l-3.635-2.325
	l-8.311,8.632l2.993,6.307l0.668,13.949l5.317,2.646l5.639,10.636l1.229,5.799l0.748,3.5l-2.325,7.643l8.633,0.668l6.653,2.94
	l-1.657,8.337l5.639,3.662l-0.32,3.313l-5.666,5.317l9.968,7.644v9.968l-2.778,1.683l-4.864,2.967l4.649,8.284l-3.313,8.312
	l-26.242,4.302v10.289l-7.616,14.617l-12.293,2.673l-1.896,3.207L909.477,440l0.348,6.654l-15.927,16.916h-6.655l-5.317,11.624
	l-8.632,4.649l-0.159,2.78l-2.165,34.419l6.307,8.312l2.672,11.598l0.348,0.32l6.628,5.666v8.979l15.927,13.602l1.657,15.287
	l5.959,11.144l11.65,21.726v32.923h-24.585c0,0,0.034-0.286,0-0.374c-0.934-2.423-6.975-7.696-6.975-7.696l-9.273,0.722v-11.304
	h-6.333l-2.646-4.304v-6.306l-5.318-0.347l-10.609-12.293l1.337-6.976l-5.318,0.668l-2.672-4.97l0.347-1.47l2.325-10.155
	l-1.683-17.263l-5.64-1.979l-16.916-18.6l-14.297-1.015l-16.916,9.968l-6.654,1.657l-10.287-15.26l-27.445-2.031l-4.089-0.293
	l-0.428,0.293l-8.552,6.334l-4.649-5.318l-5.879,5.211l-24.665,0.107v10.636l-4.65,6.307l12.613,12.961l-6.975,4.302l-16.942-7.963
	l-8.979,10.662l-15.259-0.053l-4.303-14.939l-17.61-4.97v7.644l-3.635,2.324l-24.265-6.307h-10.288l-32.87,14.591v6.654l-9.62,6.494
	l-3.661,2.458l-14.618,2.993l-5.317,7.964l-7.295,0.668l-3.982,9.299l-4.971,1.337l0.32,19.267
	c-0.908,3.181-0.802,6.976-0.24,10.663c1.256,8.284,4.891,16.222,4.891,16.222l-4.329,3.313l-17.905-5.319
	c-11.544-2.243-18.652-8.416-22.928-14.216c-4.623-6.227-5.986-11.999-5.986-11.999c-1.31-8.979-3.313-12.293-3.313-12.293
	C461.22,616,452.908,592.75,452.908,592.75c-0.105-0.294-0.213-0.534-0.347-0.801c-7.937-19.054-19.241-28.407-19.241-28.407
	h-10.956l-3.313-3.661l-18.599-0.669v12.961l-11.625,8.953c-17.263-4.303-29.476-25.761-29.476-25.761l0.588-11.759l-5.238-6.334
	l-32.602-39.496l-35.221-2.646l-2.967,13.629l-62.773-7.643l-30.625-18.492l-41.421-25.014v-11.624h-50.48l-1.63-18.038
	l-0.695-7.857l-8.632-3.313v-9.968h-7.963l-1.23-7.188l-6.734-1.791l-12.64-15.606l-16.595-1.978l-5.639-4.65l0.775-2.298
	l0.027-0.025l2.512-7.322l-1.978-3.635l-1.683-4.329L38.832,352l-2.806-6.948l-1.524-3.742l-6.279-15.526l-2.993-2.672v-3.982
	l4.65-4.97v-4.971l-7.643-8.979l0.668-19.588l-6.975-7.643l0.668-10.636l-7.776-11.758l0.801-15.74l2.325-10.021L0.644,212.21
	l6.334-8.631l11.597-18.921l-1.309-9.299l3.314-5.986l1.336-23.891l12.507-22.688l8.738-15.847v-8.632l3.554-5.185l3.073-4.436
	l6.654-21.245v-5.986l5.987-6.975l-3.662-6.654l0.428-10.823l5.532-5.397l-5.292-0.748l0.321-7.938l-3.314-1.657v-5.318l3.314-8.952
	h4.65l2.993,7.963l10.956,4.329l11.625,1.978v7.99l-4.97,6.976l-6.655,2.298l1.337,10.636h9.62l6.654-7.963v-9.3l2.646-3.314
	l-5.318-6.975l3.821-6.654l1.497-3.634l-2.993-2.993l2.993-7.723l41.154,12.693l50.827,13.603l17.396,3.848l2.192,0.481
	l26.322,4.249l60.341,9.7l1.898,0.241l21.165,2.539l107.534,13.015l9.888,0.454l7.295,0.321l76.349,3.34l11.784-0.802l32.041-2.164
	V53.5l8.979,5.292v10.956l18.599,6.654l5.319-5.986l13.922,4.65l4.01,6.653l13.602,4.65l10.636-3.34l23.223,3.661l5.666-8.953
	l6.947-0.668L685,67.103l-0.641-3.662l2.646-4.97l25.226,0.989l4.65,2.993l9.647,18.252l9.62,0.347l1.978-5.317l8.311,4.971
	l0.668,8.658l5.318,3.634l0.24,7.002l0.08,2.646l5.64,0.32v6.976l6.306,4.649l2.673,5.959l22.581-1.309l33.992-0.695l13.495,13.308
	l10.608,15.927l-4.008,6.868H829.28l-7.456-8.525l-2.324,1.337l0.935,7.188l0.722,5.425l-6.975,12.614l4.649,19.267l-10.636,8.631
	l-0.508,8.739l-0.481,8.204l-10.956,3.634v5.666l12.293,0.668l15.767-18.172l1.817-2.084l16.274,0.988l14.297-11.277l9.941,0.321
	l2.645-5.318l-2.298-4.65l-10.636,1.336l-1.657-7.643l10.61-10.288l17.931-9.621l13.977,0.642l-2.005-6.307l1.845-0.774l20.39-8.525
	l4.997-10.288l13.95-12.293l53.126-12.319l3.313-8.926l8.204-2.298l0.081-0.027l2.004-3.981l0.32-6.307l4.677-1.657l-0.347-6.976
	l-3.982-8.311l5.479-27.391h36.584l8.738,27.391l7.964,0.348l0.936,8.551L1078.021,83.377z"/>
<path fill="none" stroke="#FFFFFF" stroke-miterlimit="10" d="M1078.021,83.377v6.627l-11.037,9.995l-8.417,7.616l-9.621-0.321
	l-7.295,3.982l1.977,7.964v5.638l-16.941,8.311l-2.967,11.625v21.913L1037,182.654l-1.656,6.654l-13.95,5.639v8.952l-10.021,5.425
	l-6.6,3.554h-10.957l-17.263,17.611l2.645,2.646l2.993,19.909l-4.756,10.929l-6.521,14.992l-4.302-0.668l-0.989-7.322l-10.716-0.588
	l7.376,12.88l8.631,10.289l-3.661,15.286l-5.985,9.781h-5.853l0.883-11.117l-5.078-7.991l-7.43-3.901l-0.774-10.021l2.325-12.614
	l-3.635-2.325l-8.311,8.632l2.993,6.307l0.668,13.949l5.317,2.646l5.639,10.636l1.229,5.799l0.748,3.5l-2.325,7.643l8.633,0.668
	l6.653,2.94l-1.657,8.337l5.639,3.662l-0.32,3.313l-5.666,5.317l9.968,7.644v9.968l-2.778,1.683l-4.864,2.967l4.649,8.284
	l-3.313,8.312l-26.242,4.302v10.289l-7.616,14.617l-12.293,2.673l-1.896,3.207L909.477,440l0.348,6.654l-15.927,16.916h-6.655
	l-5.317,11.624l-8.632,4.649l-0.159,2.78l-2.165,34.419l6.307,8.312l2.672,11.598l0.348,0.32l6.628,5.666v8.979l15.927,13.602
	l1.657,15.287l5.959,11.144l11.65,21.726v32.923h-24.585c0,0,0.034-0.286,0-0.374c-0.934-2.423-6.975-7.696-6.975-7.696
	l-9.273,0.722v-11.304h-6.333l-2.646-4.304v-6.306l-5.318-0.347l-10.609-12.293l1.337-6.976l-5.318,0.668l-2.672-4.97l0.347-1.47
	l2.325-10.155l-1.683-17.263l-5.64-1.979l-16.916-18.6l-14.297-1.015l-16.916,9.968l-6.654,1.657l-10.287-15.26l-27.445-2.031
	l-4.089-0.293l-0.428,0.293l-8.552,6.334l-4.649-5.318l-5.879,5.211l-24.665,0.107v10.636l-4.65,6.307l12.613,12.961l-6.975,4.302
	l-16.942-7.963l-8.979,10.662l-15.259-0.053l-4.303-14.939l-17.61-4.97v7.644l-3.635,2.324l-24.265-6.307h-10.288l-32.87,14.591
	v6.654l-9.62,6.494l-3.661,2.458l-14.618,2.993l-5.317,7.964l-7.295,0.668l-3.982,9.299l-4.971,1.337l0.32,19.267
	c-0.908,3.181-0.802,6.976-0.24,10.663c1.256,8.284,4.891,16.222,4.891,16.222l-4.329,3.313l-17.905-5.319
	c-11.544-2.243-18.652-8.416-22.928-14.216c-4.623-6.227-5.986-11.999-5.986-11.999c-1.31-8.979-3.313-12.293-3.313-12.293
	C461.22,616,452.908,592.75,452.908,592.75c-0.105-0.294-0.213-0.534-0.347-0.801c-7.937-19.054-19.241-28.407-19.241-28.407
	h-10.956l-3.313-3.661l-18.599-0.669v12.961l-11.625,8.953c-17.263-4.303-29.476-25.761-29.476-25.761l0.588-11.759l-5.238-6.334
	l-32.602-39.496l-35.221-2.646l-2.967,13.629l-62.773-7.643l-30.625-18.492l-41.421-25.014v-11.624h-50.48l-1.63-18.038
	l-0.695-7.857l-8.632-3.313v-9.968h-7.963l-1.23-7.188l-6.734-1.791l-12.64-15.606l-16.595-1.978l-5.639-4.65l0.775-2.298
	l0.027-0.025l2.512-7.322l-1.978-3.635l-1.683-4.329L38.832,352l-2.806-6.948l-1.524-3.742l-6.279-15.526l-2.993-2.672v-3.982
	l4.65-4.97v-4.971l-7.643-8.979l0.668-19.588l-6.975-7.643l0.668-10.636l-7.776-11.758l0.801-15.74l2.325-10.021L0.644,212.21
	l6.334-8.631l11.597-18.921l-1.309-9.299l3.314-5.986l1.336-23.891l12.507-22.688l8.738-15.847v-8.632l3.554-5.185l3.073-4.436
	l6.654-21.245v-5.986l5.987-6.975l-3.662-6.654l0.428-10.823l5.532-5.397l-5.292-0.748l0.321-7.938l-3.314-1.657v-5.318l3.314-8.952
	h4.65l2.993,7.963l10.956,4.329l11.625,1.978v7.99l-4.97,6.976l-6.655,2.298l1.337,10.636h9.62l6.654-7.963v-9.3l2.646-3.314
	l-5.318-6.975l3.821-6.654l1.497-3.634l-2.993-2.993l2.993-7.723l41.154,12.693l50.827,13.603l17.396,3.848l2.192,0.481
	l26.322,4.249l60.341,9.7l1.898,0.241l21.165,2.539l107.534,13.015l9.888,0.454l7.295,0.321l76.349,3.34l11.784-0.802l32.041-2.164
	V53.5l8.979,5.292v10.956l18.599,6.654l5.319-5.986l13.922,4.65l4.01,6.653l13.602,4.65l10.636-3.34l23.223,3.661l5.666-8.953
	l6.947-0.668L685,67.103l-0.641-3.662l2.646-4.97l25.226,0.989l4.65,2.993l9.647,18.252l9.62,0.347l1.978-5.317l8.311,4.971
	l0.668,8.658l5.318,3.634l0.24,7.002l0.08,2.646l5.64,0.32v6.976l6.306,4.649l2.673,5.959l22.581-1.309l33.992-0.695l13.495,13.308
	l10.608,15.927l-4.008,6.868H829.28l-7.456-8.525l-2.324,1.337l0.935,7.188l0.722,5.425l-6.975,12.614l4.649,19.267l-10.636,8.631
	l-0.508,8.739l-0.481,8.204l-10.956,3.634v5.666l12.293,0.668l15.767-18.172l1.817-2.084l16.274,0.988l14.297-11.277l9.941,0.321
	l2.645-5.318l-2.298-4.65l-10.636,1.336l-1.657-7.643l10.61-10.288l17.931-9.621l13.977,0.642l-2.005-6.307l1.845-0.774l20.39-8.525
	l4.997-10.288l13.95-12.293l53.126-12.319l3.313-8.926l8.204-2.298l0.081-0.027l2.004-3.981l0.32-6.307l4.677-1.657l-0.347-6.976
	l-3.982-8.311l5.479-27.391h36.584l8.738,27.391l7.964,0.348l0.936,8.551L1078.021,83.377z"/>
<path fill="#15204A" d="M199.685,26.127c0,0-15.273,37.9-12.445,41.859c2.829,3.96-2.828,23.758-2.828,23.758l-2.829,8.486
	c0,0,6.223,9.05,5.657,13.01c-0.565,3.96-9.616,12.445-9.05,14.707c0.565,2.263-11.314,9.617-10.183,12.445
	c1.132,2.828,3.96,3.96,2.263,8.485c-1.697,4.525-13.01,52.607-13.01,52.607"/>
<path fill="none" stroke="#FFFFFF" stroke-miterlimit="10" d="M199.685,26.127c0,0-15.273,37.9-12.445,41.859
	c2.829,3.96-2.828,23.758-2.828,23.758l-2.829,8.486c0,0,6.223,9.05,5.657,13.01c-0.565,3.96-9.616,12.445-9.05,14.707
	c0.565,2.263-11.314,9.617-10.183,12.445c1.132,2.828,3.96,3.96,2.263,8.485c-1.697,4.525-13.01,52.607-13.01,52.607"/>
<path fill="#15204A" d="M52.61,60.633c0,0,13.576-0.566,15.839,0.566c2.263,1.131,2.263,5.657,2.263,5.657s5.656-2.263,7.353-1.132
	c1.697,1.132,2.263,7.919,2.263,7.919s0,4.526-1.697,6.789c-1.697,2.262,1.697,5.091,3.96,5.656c2.262,0.566,6.788-2.263,9.05-1.697
	c2.263,0.566,11.314,5.091,11.314,5.091l10.182,1.132l9.05-1.698l5.091,3.96l14.142-1.131c0,0,10.182,0,18.667,2.828
	c8.485,2.829,21.495,5.657,21.495,5.657"/>
<path fill="none" stroke="#FFFFFF" stroke-miterlimit="10" d="M52.61,60.633c0,0,13.576-0.566,15.839,0.566
	c2.263,1.131,2.263,5.657,2.263,5.657s5.656-2.263,7.353-1.132c1.697,1.132,2.263,7.919,2.263,7.919s0,4.526-1.697,6.789
	c-1.697,2.262,1.697,5.091,3.96,5.656c2.262,0.566,6.788-2.263,9.05-1.697c2.263,0.566,11.314,5.091,11.314,5.091l10.182,1.132
	l9.05-1.698l5.091,3.96l14.142-1.131c0,0,10.182,0,18.667,2.828c8.485,2.829,21.495,5.657,21.495,5.657"/>
<path fill="#15204A" d="M215.523,30.087L209.3,53.279l3.395,10.182l-2.829,5.091c0,0,2.829,6.223,7.354,8.485
	c4.525,2.263,2.263,16.405,5.657,17.536c0,0,9.616-1.697,9.616,0s-8.485,15.273-8.485,15.273s0,4.526-1.697,6.788
	c-1.697,2.263,0.566,2.828,2.263,3.96c1.697,1.131,9.616-2.263,9.05,1.131c-0.565,3.395,1.132,9.617,1.132,9.617l5.091,10.182
	l-2.263,6.223c0,0,3.96,0.565,3.96,2.263s-0.566,3.394,1.697,5.091c2.262,1.697,7.353,2.263,7.353,2.263s8.486,0,10.748,0.565
	c2.263,0.566,6.788,0,6.788,0s4.525-5.091,6.222-3.394c1.697,1.697,3.395,6.222,3.395,6.222"/>
<path fill="none" stroke="#FFFFFF" stroke-miterlimit="10" d="M215.523,30.087L209.3,53.279l3.395,10.182l-2.829,5.091
	c0,0,2.829,6.223,7.354,8.485c4.525,2.263,2.263,16.405,5.657,17.536c0,0,9.616-1.697,9.616,0s-8.485,15.273-8.485,15.273
	s0,4.526-1.697,6.788c-1.697,2.263,0.566,2.828,2.263,3.96c1.697,1.131,9.616-2.263,9.05,1.131
	c-0.565,3.395,1.132,9.617,1.132,9.617l5.091,10.182l-2.263,6.223c0,0,3.96,0.565,3.96,2.263s-0.566,3.394,1.697,5.091
	c2.262,1.697,7.353,2.263,7.353,2.263s8.486,0,10.748,0.565c2.263,0.566,6.788,0,6.788,0s4.525-5.091,6.222-3.394
	c1.697,1.697,3.395,6.222,3.395,6.222"/>
<path fill="#15204A" d="M18.105,163.584c0,0,178.186,54.304,249.46,59.395"/>
<path fill="none" stroke="#FFFFFF" stroke-miterlimit="10" d="M18.105,163.584c0,0,178.186,54.304,249.46,59.395"/>
<path fill="#15204A" d="M416.901,57.804c0,0-16.97,177.62-18.101,209.298"/>
<path fill="none" stroke="#FFFFFF" stroke-miterlimit="10" d="M416.901,57.804c0,0-16.97,177.62-18.101,209.298"/>
<path fill="#15204A" d="M407.851,161.322c-7.354,2.828-60.526-4.525-69.577-4.525s-58.264-7.92-58.264-7.92
	c-2.263,16.97-18.102,100.124-18.102,100.124s116.664,19.846,175.259,20.643c0,0,0.399,92.477-4.384,102.84
	c0,0-213.652-16.741-244.344-30.293"/>
<path fill="none" stroke="#FFFFFF" stroke-miterlimit="10" d="M407.851,161.322c-7.354,2.828-60.526-4.525-69.577-4.525
	s-58.264-7.92-58.264-7.92c-2.263,16.97-18.102,100.124-18.102,100.124s116.664,19.846,175.259,20.643
	c0,0,0.399,92.477-4.384,102.84c0,0-213.652-16.741-244.344-30.293"/>
<path fill="#15204A" d="M403.891,216.191c0,0,102.952,7.919,143.114,3.395"/>
<path fill="none" stroke="#FFFFFF" stroke-miterlimit="10" d="M403.891,216.191c0,0,102.952,7.919,143.114,3.395"/>
<path fill="#15204A" d="M530.035,64.592c0,0,3.959,8.485,2.828,11.313c-1.131,2.829-3.395,15.273,1.131,19.233
	s5.092,11.313,5.656,15.839c0.566,4.525-1.131,12.445,0,15.839c1.133,3.394,5.657,13.576,5.657,16.97
	c0,3.395-6.222,12.444-6.222,12.444l5.656,3.394c0,0,3.394,40.728,2.828,46.385c-0.565,5.657-3.394,15.272-1.131,19.799
	c2.262,4.525,0.565,14.141,2.828,17.535c2.262,3.395,6.223,12.444,7.354,15.839c1.132,3.394-1.697,19.798,3.394,24.324
	c5.091,4.525,7.92,11.879,9.617,13.01c1.696,1.132,1.131,5.657,6.788,5.091c5.656-0.565,6.788,0,3.96,2.263
	c-2.829,2.263-9.052,3.96-7.354,5.657s1.697,0.565,3.959,2.828c2.264,2.263,3.396,7.354,3.396,7.354
	c2.828,0,5.655,2.828,5.655,2.828s-1.696,16.97-0.565,19.799c1.132,2.828,0,29.98,1.698,32.243
	c1.695,2.262-2.264,13.01,0.564,17.535c2.828,4.526,1.697,19.233,1.697,19.233c3.96,6.222,0,32.809,2.829,42.425
	c2.828,9.617-0.565,9.051-0.565,9.051l9.049,1.131c0,0-1.131,31.112,3.396,38.467c4.525,7.353,5.091,8.484,5.656,11.879
	c0.565,3.394,3.96,5.656,5.091,8.484c1.132,2.828,2.263,10.182,0,13.01c-2.262,2.829-6.222,7.92-4.525,10.748
	c1.697,2.828,3.959,9.051,1.697,11.313c-2.263,2.263-1.697,9.051-1.697,9.051"/>
<path fill="none" stroke="#FFFFFF" stroke-miterlimit="10" d="M530.035,64.592c0,0,3.959,8.485,2.828,11.313
	c-1.131,2.829-3.395,15.273,1.131,19.233s5.092,11.313,5.656,15.839c0.566,4.525-1.131,12.445,0,15.839
	c1.133,3.394,5.657,13.576,5.657,16.97c0,3.395-6.222,12.444-6.222,12.444l5.656,3.394c0,0,3.394,40.728,2.828,46.385
	c-0.565,5.657-3.394,15.272-1.131,19.799c2.262,4.525,0.565,14.141,2.828,17.535c2.262,3.395,6.223,12.444,7.354,15.839
	c1.132,3.394-1.697,19.798,3.394,24.324c5.091,4.525,7.92,11.879,9.617,13.01c1.696,1.132,1.131,5.657,6.788,5.091
	c5.656-0.565,6.788,0,3.96,2.263c-2.829,2.263-9.052,3.96-7.354,5.657s1.697,0.565,3.959,2.828c2.264,2.263,3.396,7.354,3.396,7.354
	c2.828,0,5.655,2.828,5.655,2.828s-1.696,16.97-0.565,19.799c1.132,2.828,0,29.98,1.698,32.243
	c1.695,2.262-2.264,13.01,0.564,17.535c2.828,4.526,1.697,19.233,1.697,19.233c3.96,6.222,0,32.809,2.829,42.425
	c2.828,9.617-0.565,9.051-0.565,9.051l9.049,1.131c0,0-1.131,31.112,3.396,38.467c4.525,7.353,5.091,8.484,5.656,11.879
	c0.565,3.394,3.96,5.656,5.091,8.484c1.132,2.828,2.263,10.182,0,13.01c-2.262,2.829-6.222,7.92-4.525,10.748
	c1.697,2.828,3.959,9.051,1.697,11.313c-2.263,2.263-1.697,9.051-1.697,9.051"/>
<path fill="#15204A" d="M663.532,84.957c0,0-37.899,28.283-40.728,31.677c-2.829,3.394,0,13.011,0,13.011
	s-13.576,15.273-12.445,19.232c1.131,3.96,2.264,6.223,2.264,11.88c0,5.656,0,12.444,4.524,14.141
	c4.525,1.697,10.183,2.263,14.708,6.788c4.525,4.526,3.959,6.788,8.484,9.051c4.525,2.264,4.525,9.616,4.525,11.879
	s3.96,8.485,3.96,8.485l-1.132,6.788l1.697,6.222h5.657l7.354,6.224c0,0,3.395,2.828,4.525,6.222s3.96,7.92,0.565,10.748
	s3.959,3.96-3.395,7.919c-7.354,3.96-9.616,1.697-10.181,3.96c-0.566,2.263,0,12.445,0,12.445l-7.92,6.788
	c0,0-3.96,19.231,1.696,23.191c5.657,3.96,16.404,7.354,18.667,11.879c2.264,4.525,2.264,13.576,5.657,16.97
	c3.395,3.394,3.96,10.182,3.96,10.182s3.959,7.354,9.616,7.92s6.788,5.656,6.788,7.919c0,2.264-7.919,5.091-1.697,8.485
	c6.223,3.394,8.485,5.657,8.485,5.657l0.565,5.091l-3.394,4.524c0,0-10.183,0.566-8.485,3.395s3.959,4.524,3.959,4.524l0.566,9.052
	c0,0,0,1.131-0.566,3.96c-0.564,2.827-5.656,5.091-6.788,7.353c-1.131,2.264-2.828,13.576-5.091,15.839
	c-2.262,2.263-1.131,3.395-3.959,5.657c-2.829,2.263-9.617,11.879-7.354,14.143c2.263,2.262-3.96,5.655-3.96,5.655
	s-6.223,3.394-1.697,11.314c4.525,7.919-1.697,13.01,1.131,15.272c2.829,2.264,2.829,5.656,2.829,5.656l4.524,7.92
	c0,0-5.748,3.459-4.524,5.091c0,0-9.617,19.798-7.354,26.586c2.264,6.788,5.092,7.354,5.092,7.354l31.111-5.657l3.395,9.617
	c0,0-1.131,7.354,2.263,9.05l5.656,2.829"/>
<path fill="none" stroke="#FFFFFF" stroke-miterlimit="10" d="M663.532,84.957c0,0-37.899,28.283-40.728,31.677
	c-2.829,3.394,0,13.011,0,13.011s-13.576,15.273-12.445,19.232c1.131,3.96,2.264,6.223,2.264,11.88c0,5.656,0,12.444,4.524,14.141
	c4.525,1.697,10.183,2.263,14.708,6.788c4.525,4.526,3.959,6.788,8.484,9.051c4.525,2.264,4.525,9.616,4.525,11.879
	s3.96,8.485,3.96,8.485l-1.132,6.788l1.697,6.222h5.657l7.354,6.224c0,0,3.395,2.828,4.525,6.222s3.96,7.92,0.565,10.748
	s3.959,3.96-3.395,7.919c-7.354,3.96-9.616,1.697-10.181,3.96c-0.566,2.263,0,12.445,0,12.445l-7.92,6.788
	c0,0-3.96,19.231,1.696,23.191c5.657,3.96,16.404,7.354,18.667,11.879c2.264,4.525,2.264,13.576,5.657,16.97
	c3.395,3.394,3.96,10.182,3.96,10.182s3.959,7.354,9.616,7.92s6.788,5.656,6.788,7.919c0,2.264-7.919,5.091-1.697,8.485
	c6.223,3.394,8.485,5.657,8.485,5.657l0.565,5.091l-3.394,4.524c0,0-10.183,0.566-8.485,3.395s3.959,4.524,3.959,4.524l0.566,9.052
	c0,0,0,1.131-0.566,3.96c-0.564,2.827-5.656,5.091-6.788,7.353c-1.131,2.264-2.828,13.576-5.091,15.839
	c-2.262,2.263-1.131,3.395-3.959,5.657c-2.829,2.263-9.617,11.879-7.354,14.143c2.263,2.262-3.96,5.655-3.96,5.655
	s-6.223,3.394-1.697,11.314c4.525,7.919-1.697,13.01,1.131,15.272c2.829,2.264,2.829,5.656,2.829,5.656l4.524,7.92
	c0,0-5.748,3.459-4.524,5.091c0,0-9.617,19.798-7.354,26.586c2.264,6.788,5.092,7.354,5.092,7.354l31.111-5.657l3.395,9.617
	c0,0-1.131,7.354,2.263,9.05l5.656,2.829"/>
<path fill="#15204A" d="M166.875,390.983c-6.222-5.656-81.456-122.75-85.416-125.013c-3.96-2.262,19.233-78.062,19.233-78.062"/>
<path fill="none" stroke="#FFFFFF" stroke-miterlimit="10" d="M166.875,390.983c-6.222-5.656-81.456-122.75-85.416-125.013
	c-3.96-2.262,19.233-78.062,19.233-78.062"/>
<path fill="#15204A" d="M210.998,216.191c0,0-26.021,146.509-28.849,151.033c-2.828,4.526-4.525,0.566-4.525,0.566l-7.354-5.656
	c-2.829,3.394-2.559,9.153-2.16,11.943c0.398,2.79,1.594,9.168,1.594,10.762c0,1.595-6.378,9.168-4.783,10.364
	c1.594,1.195,2.79,5.182,3.587,6.775l3.986,7.973c1.196,2.392,0,5.979-3.189,5.182c-3.188-0.797-5.979,1.595-5.979,1.595
	s-4.384,10.363-2.79,12.755c1.595,2.393-2.391,2.393-2.391,5.183s-3.588,5.979-1.196,7.175c2.392,1.195,7.972,1.594,4.783,3.587
	s-5.58,3.188-7.972,3.188s-4.668-2.631-4.668-2.631"/>
<path fill="none" stroke="#FFFFFF" stroke-miterlimit="10" d="M210.998,216.191c0,0-26.021,146.509-28.849,151.033
	c-2.828,4.526-4.525,0.566-4.525,0.566l-7.354-5.656c-2.829,3.394-2.559,9.153-2.16,11.943c0.398,2.79,1.594,9.168,1.594,10.762
	c0,1.595-6.378,9.168-4.783,10.364c1.594,1.195,2.79,5.182,3.587,6.775l3.986,7.973c1.196,2.392,0,5.979-3.189,5.182
	c-3.188-0.797-5.979,1.595-5.979,1.595s-4.384,10.363-2.79,12.755c1.595,2.393-2.391,2.393-2.391,5.183s-3.588,5.979-1.196,7.175
	c2.392,1.195,7.972,1.594,4.783,3.587s-5.58,3.188-7.972,3.188s-4.668-2.631-4.668-2.631"/>
<path fill="#15204A" d="M302.04,255.294c0,0-33.881,243.945-30.693,254.309"/>
<path fill="none" stroke="#FFFFFF" stroke-miterlimit="10" d="M302.04,255.294c0,0-33.881,243.945-30.693,254.309"/>
<path fill="#15204A" d="M412.852,370.092c1.196,0-1.196,16.343-1.196,16.343c-2.391,1.993-6.377,102.042-7.175,113.203
	c0,0-75.734-4.783-78.525-4.783c-2.79,0-3.858,2.922-3.858,2.922"/>
<path fill="none" stroke="#FFFFFF" stroke-miterlimit="10" d="M412.852,370.092c1.196,0-1.196,16.343-1.196,16.343
	c-2.391,1.993-6.377,102.042-7.175,113.203c0,0-75.734-4.783-78.525-4.783c-2.79,0-3.858,2.922-3.858,2.922"/>
<path fill="#15204A" d="M432.782,372.483c0,0,129.001,6.583,154.385,2.096"/>
<path fill="none" stroke="#FFFFFF" stroke-miterlimit="10" d="M432.782,372.483c0,0,129.001,6.583,154.385,2.096"/>
<path fill="#15204A" d="M411.656,386.435c0,0,56.203,1.594,60.188,1.993l1.993,49.825l5.182,4.385l8.371-1.594l3.588,4.782
	l9.566,4.386h6.377l5.581-1.196l6.377,4.384v2.791l9.567-1.595l5.181,1.993l3.987-0.398l5.58-0.798l5.182,1.196l4.384,2.791
	l6.777-2.393h9.965l5.58-3.189l3.985,1.595c0,0,8.906,6.889,12.625,7.431"/>
<path fill="none" stroke="#FFFFFF" stroke-miterlimit="10" d="M411.656,386.435c0,0,56.203,1.594,60.188,1.993l1.993,49.825
	l5.182,4.385l8.371-1.594l3.588,4.782l9.566,4.386h6.377l5.581-1.196l6.377,4.384v2.791l9.567-1.595l5.181,1.993l3.987-0.398
	l5.58-0.798l5.182,1.196l4.384,2.791l6.777-2.393h9.965l5.58-3.189l3.985,1.595c0,0,8.906,6.889,12.625,7.431"/>
<path fill="#15204A" d="M436.37,296.35c0,0,81.573,5.913,133.261,0.167"/>
<path fill="none" stroke="#FFFFFF" stroke-miterlimit="10" d="M436.37,296.35c0,0,81.573,5.913,133.261,0.167"/>
<path fill="#15204A" d="M558.74,282c0,0,6.776,0.797,17.539,0.797c10.762,0,51.419-5.58,55.405-5.58
	c3.987,0,7.973,1.196,7.973,1.196l6.339,0.002"/>
<path fill="none" stroke="#FFFFFF" stroke-miterlimit="10" d="M558.74,282c0,0,6.776,0.797,17.539,0.797
	c10.762,0,51.419-5.58,55.405-5.58c3.987,0,7.973,1.196,7.973,1.196l6.339,0.002"/>
<path fill="#15204A" d="M547.57,206.01c0,0,20.737-1.737,28.311,0.256c7.574,1.993,39.063-0.797,45.042-1.196
	c5.979-0.397,23.942-2.454,23.942-2.454"/>
<path fill="none" stroke="#FFFFFF" stroke-miterlimit="10" d="M547.57,206.01c0,0,20.737-1.737,28.311,0.256
	c7.574,1.993,39.063-0.797,45.042-1.196c5.979-0.397,23.942-2.454,23.942-2.454"/>
<path fill="#15204A" d="M622.118,121.762c0,0,11.56-2.79,13.951-2.79s1.595-3.986,4.783-3.588c3.188,0.399,5.182,3.189,5.979,5.581
	c0.798,2.391,10.764,2.391,10.764,2.391s6.377,0.399,17.937,5.581c11.56,5.183,18.336,5.979,18.336,5.979l0.797,3.986l6.776,4.385
	l4.385,9.168l3.612,6.563l0.323,13.551l-0.323,27.748l-2.258,16.778c0,0,1.563,5.012,2.232,7.507c0,0-0.397,1.993,0.399,5.58
	c0.797,3.588,2.391,2.392,8.37,4.784c5.979,2.391,5.979,5.181,5.979,5.181s-2.391,11.161-3.587,17.539s4.783,44.644,5.183,49.028
	c0.398,4.385,1.195,12.755,1.195,12.755s-4.385,11.161-6.378,15.546c-1.993,4.384,0,7.175,1.196,8.77
	c1.196,1.594-0.399,6.776-0.399,6.776s-5.182,1.195-9.565,1.993c-4.386,0.797,0.797,4.782,1.194,7.174
	c0.399,2.393-0.797,3.588-0.797,3.588l-3.587-2.789c0,0-5.182,0.397-7.972,0.797c-2.79,0.397-1.475,9.296-1.475,9.296"/>
<path fill="none" stroke="#FFFFFF" stroke-miterlimit="10" d="M622.118,121.762c0,0,11.56-2.79,13.951-2.79s1.595-3.986,4.783-3.588
	c3.188,0.399,5.182,3.189,5.979,5.581c0.798,2.391,10.764,2.391,10.764,2.391s6.377,0.399,17.937,5.581
	c11.56,5.183,18.336,5.979,18.336,5.979l0.797,3.986l6.776,4.385l4.385,9.168l3.612,6.563l0.323,13.551l-0.323,27.748l-2.258,16.778
	c0,0,1.563,5.012,2.232,7.507c0,0-0.397,1.993,0.399,5.58c0.797,3.588,2.391,2.392,8.37,4.784c5.979,2.391,5.979,5.181,5.979,5.181
	s-2.391,11.161-3.587,17.539s4.783,44.644,5.183,49.028c0.398,4.385,1.195,12.755,1.195,12.755s-4.385,11.161-6.378,15.546
	c-1.993,4.384,0,7.175,1.196,8.77c1.196,1.594-0.399,6.776-0.399,6.776s-5.182,1.195-9.565,1.993
	c-4.386,0.797,0.797,4.782,1.194,7.174c0.399,2.393-0.797,3.588-0.797,3.588l-3.587-2.789c0,0-5.182,0.397-7.972,0.797
	c-2.79,0.397-1.475,9.296-1.475,9.296"/>
<path fill="#15204A" d="M657.992,227.392c0,0,10.763,0.398,14.351,0.398c3.587,0,17.937-1.992,17.937-1.992l10.763-1.994
	l7.428-0.579"/>
<path fill="none" stroke="#FFFFFF" stroke-miterlimit="10" d="M657.992,227.392c0,0,10.763,0.398,14.351,0.398
	c3.587,0,17.937-1.992,17.937-1.992l10.763-1.994l7.428-0.579"/>
<path fill="#15204A" d="M585.447,388.028c0,0,19.93-4.782,26.308-2.789c6.378,1.992,23.916,0.397,23.916,0.397l18.336-1.993
	c0,0,24.713-3.188,26.308-1.594s-0.398,8.77-2.392,11.161s1.595,2.79,5.182,2.392s5.979-4.385,7.973-3.588"/>
<path fill="none" stroke="#FFFFFF" stroke-miterlimit="10" d="M585.447,388.028c0,0,19.93-4.782,26.308-2.789
	c6.378,1.992,23.916,0.397,23.916,0.397l18.336-1.993c0,0,24.713-3.188,26.308-1.594s-0.398,8.77-2.392,11.161
	s1.595,2.79,5.182,2.392s5.979-4.385,7.973-3.588"/>
<path fill="#15204A" d="M799.133,224.838c0,0-11.992,8.135-15.979,8.932s-12.755,1.993-12.755,1.993l-6.777-3.189l-15.146,3.986
	l-15.147,3.986l-9.168-0.399"/>
<path fill="none" stroke="#FFFFFF" stroke-miterlimit="10" d="M799.133,224.838c0,0-11.992,8.135-15.979,8.932
	s-12.755,1.993-12.755,1.993l-6.777-3.189l-15.146,3.986l-15.147,3.986l-9.168-0.399"/>
<path fill="#15204A" d="M696.342,380.235c0,0,26.225,0.221,26.225-1.772v-4.386l16.343-1.594c0,0,33.881-6.378,49.825-7.574
	c15.944-1.194,28.7-4.782,43.846-7.572c15.147-2.79,43.049-3.588,52.616-6.378c9.566-2.79,35.077-7.175,44.645-11.958
	c9.565-4.783,20.613-11.884,20.613-11.884"/>
<path fill="none" stroke="#FFFFFF" stroke-miterlimit="10" d="M696.342,380.235c0,0,26.225,0.221,26.225-1.772v-4.386l16.343-1.594
	c0,0,33.881-6.378,49.825-7.574c15.944-1.194,28.7-4.782,43.846-7.572c15.147-2.79,43.049-3.588,52.616-6.378
	c9.566-2.79,35.077-7.175,44.645-11.958c9.565-4.783,20.613-11.884,20.613-11.884"/>
<path fill="#15204A" d="M601.391,478.113c0,0,20.329-1.196,26.706-0.797c6.378,0.397,35.875-2.791,35.875-2.791"/>
<path fill="none" stroke="#FFFFFF" stroke-miterlimit="10" d="M601.391,478.113c0,0,20.329-1.196,26.706-0.797
	c6.378,0.397,35.875-2.791,35.875-2.791"/>
<path fill="#15204A" d="M681.111,421.91c0,0,9.566-1.196,13.951-2.392s-12.755,0.797,45.042-4.385
	c57.798-5.182,84.106-12.356,84.106-12.356l6.775-1.196c0,0,9.566-6.776,14.35-7.573s20.728-3.588,20.728-3.588
	s1.595-1.194,5.979-0.397c4.384,0.797,7.972,1.594,7.972,1.594l0.398,5.182l6.776,0.798l19.531-5.581l17.14,11.56l14.505,3.877"/>
<path fill="none" stroke="#FFFFFF" stroke-miterlimit="10" d="M681.111,421.91c0,0,9.566-1.196,13.951-2.392
	s-12.755,0.797,45.042-4.385c57.798-5.182,84.106-12.356,84.106-12.356l6.775-1.196c0,0,9.566-6.776,14.35-7.573
	s20.728-3.588,20.728-3.588s1.595-1.194,5.979-0.397c4.384,0.797,7.972,1.594,7.972,1.594l0.398,5.182l6.776,0.798l19.531-5.581
	l17.14,11.56l14.505,3.877"/>
<path fill="#15204A" d="M747.833,538.772l3.034-5.253v-6.378c0,0,1.595-4.385-1.595-5.182c-3.188-0.797-2.79-4.783-2.79-4.783
	l7.175-1.196l9.169-0.399l15.146-1.194l17.139-2.791c0,0,7.574-1.595,11.162-0.797c3.587,0.797,4.384,4.385,4.384,4.385l5.979,0.797
	c0,0,5.58-1.993,15.944-1.993c10.363,0,19.133-1.195,25.111-1.195c5.979,0,6.378-1.196,8.371-0.399
	c1.993,0.798,5.183,5.581,6.378,5.581"/>
<path fill="none" stroke="#FFFFFF" stroke-miterlimit="10" d="M747.833,538.772l3.034-5.253v-6.378c0,0,1.595-4.385-1.595-5.182
	c-3.188-0.797-2.79-4.783-2.79-4.783l7.175-1.196l9.169-0.399l15.146-1.194l17.139-2.791c0,0,7.574-1.595,11.162-0.797
	c3.587,0.797,4.384,4.385,4.384,4.385l5.979,0.797c0,0,5.58-1.993,15.944-1.993c10.363,0,19.133-1.195,25.111-1.195
	c5.979,0,6.378-1.196,8.371-0.399c1.993,0.798,5.183,5.581,6.378,5.581"/>
<path fill="#15204A" d="M720.573,416.729c0,0,6.378,8.371,6.776,9.965s0,22.72,0,22.72s-3.986,30.693-3.189,31.89
	c0.798,1.195-1.195,13.552,0.399,15.545s2.79,8.77,2.79,8.77s4.385,27.105,4.783,30.293c0.398,3.189,3.439,6.411,3.439,6.411"/>
<path fill="none" stroke="#FFFFFF" stroke-miterlimit="10" d="M720.573,416.729c0,0,6.378,8.371,6.776,9.965s0,22.72,0,22.72
	s-3.986,30.693-3.189,31.89c0.798,1.195-1.195,13.552,0.399,15.545s2.79,8.77,2.79,8.77s4.385,27.105,4.783,30.293
	c0.398,3.189,3.439,6.411,3.439,6.411"/>
<path fill="#15204A" d="M779.966,411.546v5.183c0,0-0.399-1.993,5.579,14.748c5.979,16.741,12.357,42.252,14.351,43.846
	c1.993,1.595,2.392,5.581,1.196,7.574c-1.196,1.993-1.596,3.188-1.993,5.183c-0.399,1.992-0.399,5.182-0.399,5.182l5.182,6.775
	l-3.188,5.979v2.79"/>
<path fill="none" stroke="#FFFFFF" stroke-miterlimit="10" d="M779.966,411.546v5.183c0,0-0.399-1.993,5.579,14.748
	c5.979,16.741,12.357,42.252,14.351,43.846c1.993,1.595,2.392,5.581,1.196,7.574c-1.196,1.993-1.596,3.188-1.993,5.183
	c-0.399,1.992-0.399,5.182-0.399,5.182l5.182,6.775l-3.188,5.979v2.79"/>
<path fill="#15204A" d="M829.392,401.183l-3.188,7.573l5.581,2.791l4.384,1.993l8.371,5.979l6.775,8.371
	c0,0,0.399,5.979,7.176,9.566c6.775,3.588,13.553,7.572,13.553,7.572s1.195,1.196,1.993,3.588c0.797,2.393,2.79,6.379,2.79,6.379
	s3.188,3.587,4.783,5.979c1.594,2.391,6.574,4.235,6.574,4.235"/>
<path fill="none" stroke="#FFFFFF" stroke-miterlimit="10" d="M829.392,401.183l-3.188,7.573l5.581,2.791l4.384,1.993l8.371,5.979
	l6.775,8.371c0,0,0.399,5.979,7.176,9.566c6.775,3.588,13.553,7.572,13.553,7.572s1.195,1.196,1.993,3.588
	c0.797,2.393,2.79,6.379,2.79,6.379s3.188,3.587,4.783,5.979c1.594,2.391,6.574,4.235,6.574,4.235"/>
<path fill="#15204A" d="M803.881,406.763c0,0-0.398-3.588,0-6.377c0.399-2.791,3.189-3.188,5.183-3.188s0.398-4.385,2.79-5.581
	c2.392-1.195,6.775-3.986,8.769-3.986s3.189-3.985,3.189-3.985l8.371-5.979l2.392-3.588c5.58-1.195,9.566-2.391,9.566-2.391
	s18.336-10.762,23.119-17.938"/>
<path fill="none" stroke="#FFFFFF" stroke-miterlimit="10" d="M803.881,406.763c0,0-0.398-3.588,0-6.377
	c0.399-2.791,3.189-3.188,5.183-3.188s0.398-4.385,2.79-5.581c2.392-1.195,6.775-3.986,8.769-3.986s3.189-3.985,3.189-3.985
	l8.371-5.979l2.392-3.588c5.58-1.195,9.566-2.391,9.566-2.391s18.336-10.762,23.119-17.938"/>
<path fill="#15204A" d="M770.74,236.13c0,0,7.232,61.416,9.226,66.599"/>
<path fill="none" stroke="#FFFFFF" stroke-miterlimit="10" d="M770.74,236.13c0,0,7.232,61.416,9.226,66.599"/>
<path fill="#15204A" d="M864.07,194.706l0.797,13.951c0,0,72.546-18.734,78.924-19.531c6.377-0.798,6.377,1.993,6.377,1.993
	l2.791,3.188c0,0-0.398,1.595,1.992,2.791c2.393,1.195,7.973,4.384,7.973,4.384l11.16,1.993c0,0,5.581,6.378,8.371,4.783
	c2.79-1.594-0.797-2.79-0.797-4.783s1.196-4.783,1.196-4.783s-1.196-19.93-2.79-22.322c-1.595-2.391-3.588-12.755-3.588-12.755
	l-1.993-11.559l-4.384-14.351c0,0-1.994-9.566-5.581-13.153c-3.587-3.588-5.581-9.965-5.581-9.965"/>
<path fill="none" stroke="#FFFFFF" stroke-miterlimit="10" d="M864.07,194.706l0.797,13.951c0,0,72.546-18.734,78.924-19.531
	c6.377-0.798,6.377,1.993,6.377,1.993l2.791,3.188c0,0-0.398,1.595,1.992,2.791c2.393,1.195,7.973,4.384,7.973,4.384l11.16,1.993
	c0,0,5.581,6.378,8.371,4.783c2.79-1.594-0.797-2.79-0.797-4.783s1.196-4.783,1.196-4.783s-1.196-19.93-2.79-22.322
	c-1.595-2.391-3.588-12.755-3.588-12.755l-1.993-11.559l-4.384-14.351c0,0-1.994-9.566-5.581-13.153
	c-3.587-3.588-5.581-9.965-5.581-9.965"/>
<path fill="#15204A" d="M720.573,339.399c0,0,11.56,2.79,13.154,2.79c1.594,0,5.58-1.196,5.58-1.196l1.993-3.587
	c0,0,0-1.594,9.566-5.979s20.728-11.559,20.728-11.559l4.385-5.182c0.797-2.791,5.182-2.791,4.385-4.385
	c-0.798-1.594-5.182-6.776-2.392-7.175c2.79-0.397,6.377-1.993,6.775-0.797c0.399,1.196,3.588,0.797,6.776,2.79
	s4.783,5.182,4.783,5.182h10.363c4.386-1.196,8.371-1.196,8.371-1.196s-1.595-3.188,0.798-3.188c2.392,0,4.385-3.588,5.979-1.595
	s0.797,4.783,0.797,4.783l3.588,3.986c0,0,0,8.769,2.79,10.364c2.79,1.594,10.364,7.175,12.357,8.77
	c1.993,1.595,4.782,6.378,7.573,6.378s7.175-0.399,7.175-0.399l1.195-2.391c3.587,0.797,8.37-1.993,8.37-1.993l8.371-4.385
	l3.986-2.393v-9.167c0,0-1.993-4.385,0-5.183c1.993-0.797,7.258-12.678,6.936-14.937c-0.322-2.258,0.969-6.13,2.258-7.42
	c1.291-1.291-2.58,0.322,3.551-2.582c6.13-2.902,5.807-0.968,7.42-2.581s5.163-7.098,5.808-9.679
	c0.646-2.581,2.259-2.904,0.968-5.163c-1.291-2.258-3.227-3.871,0.969-1.29c4.193,2.581,5.808,3.549,8.065,4.194
	c2.259,0.646,4.84,1.614,4.84,0c0-1.613-1.936-5.485,0-5.485c1.937,0,6.775,4.518,10.324,5.809s2.622,5.406,6.776,6.13"/>
<path fill="none" stroke="#FFFFFF" stroke-miterlimit="10" d="M720.573,339.399c0,0,11.56,2.79,13.154,2.79
	c1.594,0,5.58-1.196,5.58-1.196l1.993-3.587c0,0,0-1.594,9.566-5.979s20.728-11.559,20.728-11.559l4.385-5.182
	c0.797-2.791,5.182-2.791,4.385-4.385c-0.798-1.594-5.182-6.776-2.392-7.175c2.79-0.397,6.377-1.993,6.775-0.797
	c0.399,1.196,3.588,0.797,6.776,2.79s4.783,5.182,4.783,5.182h10.363c4.386-1.196,8.371-1.196,8.371-1.196s-1.595-3.188,0.798-3.188
	c2.392,0,4.385-3.588,5.979-1.595s0.797,4.783,0.797,4.783l3.588,3.986c0,0,0,8.769,2.79,10.364
	c2.79,1.594,10.364,7.175,12.357,8.77c1.993,1.595,4.782,6.378,7.573,6.378s7.175-0.399,7.175-0.399l1.195-2.391
	c3.587,0.797,8.37-1.993,8.37-1.993l8.371-4.385l3.986-2.393v-9.167c0,0-1.993-4.385,0-5.183c1.993-0.797,7.258-12.678,6.936-14.937
	c-0.322-2.258,0.969-6.13,2.258-7.42c1.291-1.291-2.58,0.322,3.551-2.582c6.13-2.902,5.807-0.968,7.42-2.581
	s5.163-7.098,5.808-9.679c0.646-2.581,2.259-2.904,0.968-5.163c-1.291-2.258-3.227-3.871,0.969-1.29
	c4.193,2.581,5.808,3.549,8.065,4.194c2.259,0.646,4.84,1.614,4.84,0c0-1.613-1.936-5.485,0-5.485c1.937,0,6.775,4.518,10.324,5.809
	s2.622,5.406,6.776,6.13"/>
<path fill="#15204A" d="M842.401,208.229c0,0,5.452,7.575,6.42,8.22c0.967,0.646,2.258,5.808,2.258,5.808
	s-0.645,10.002,1.937,13.229c2.58,3.226,3.226,9.679,3.226,9.679s-2.258,17.746-1.613,19.359c0.646,1.613-1.29,4.517,0,7.098
	c1.291,2.581-2.258,4.518-3.549,6.453c-1.291,1.937-1.613,4.517-3.872,4.517c0,0-7.421,3.226-7.743,5.808
	c-0.322,2.581-0.645,4.517-0.645,7.098c0,2.581-0.646,2.904-0.646,2.904l-3.226-1.936l-0.968,2.581l-0.323,3.549
	c0,0,3.872-3.227,0,2.258c-3.871,5.486-4.518,7.421-4.518,7.421l-2.936,0.817"/>
<path fill="none" stroke="#FFFFFF" stroke-miterlimit="10" d="M842.401,208.229c0,0,5.452,7.575,6.42,8.22
	c0.967,0.646,2.258,5.808,2.258,5.808s-0.645,10.002,1.937,13.229c2.58,3.226,3.226,9.679,3.226,9.679s-2.258,17.746-1.613,19.359
	c0.646,1.613-1.29,4.517,0,7.098c1.291,2.581-2.258,4.518-3.549,6.453c-1.291,1.937-1.613,4.517-3.872,4.517
	c0,0-7.421,3.226-7.743,5.808c-0.322,2.581-0.645,4.517-0.645,7.098c0,2.581-0.646,2.904-0.646,2.904l-3.226-1.936l-0.968,2.581
	l-0.323,3.549c0,0,3.872-3.227,0,2.258c-3.871,5.486-4.518,7.421-4.518,7.421l-2.936,0.817"/>
<path fill="#15204A" d="M886.57,289.044c0,0-1.936-3.549-1.936-6.13s-2.581-9.034-2.581-9.034l-1.613-5.808
	c0,0-2.904,1.29-4.84,2.258c-1.937,0.969-3.227,3.228-5.485,2.904c-2.259-0.322-6.453-1.613-6.453-1.613l-1.936-2.259
	c0,0-3.871-0.967-2.903-3.226c0.967-2.259-2.259-3.872-2.259-3.872c-2.904,0.646-1.936,0.968-1.936,0.968"/>
<path fill="none" stroke="#FFFFFF" stroke-miterlimit="10" d="M886.57,289.044c0,0-1.936-3.549-1.936-6.13s-2.581-9.034-2.581-9.034
	l-1.613-5.808c0,0-2.904,1.29-4.84,2.258c-1.937,0.969-3.227,3.228-5.485,2.904c-2.259-0.322-6.453-1.613-6.453-1.613l-1.936-2.259
	c0,0-3.871-0.967-2.903-3.226c0.967-2.259-2.259-3.872-2.259-3.872c-2.904,0.646-1.936,0.968-1.936,0.968"/>
<path fill="#15204A" d="M956.585,271.299c0,0-3.227-7.744-2.904-10.648c0.323-2.903-1.29-6.453-1.29-6.453l-3.549-4.839
	l-7.421-0.645l-13.552,3.549l-13.229,2.258l-9.034,7.744c0,0-3.872,3.549-2.259,6.13"/>
<path fill="none" stroke="#FFFFFF" stroke-miterlimit="10" d="M956.585,271.299c0,0-3.227-7.744-2.904-10.648
	c0.323-2.903-1.29-6.453-1.29-6.453l-3.549-4.839l-7.421-0.645l-13.552,3.549l-13.229,2.258l-9.034,7.744
	c0,0-3.872,3.549-2.259,6.13"/>
<path fill="#15204A" d="M959.488,198.38c0,0-7.421,5.485-6.13,7.744c1.29,2.258,2.581,4.839,2.581,4.839l-0.323,3.55l1.291,3.226
	l0.323,3.872l0.967,4.517l6.131,2.904l-7.098,21.94l4.839,5.485l-7.743-1.614"/>
<path fill="none" stroke="#FFFFFF" stroke-miterlimit="10" d="M959.488,198.38c0,0-7.421,5.485-6.13,7.744
	c1.29,2.258,2.581,4.839,2.581,4.839l-0.323,3.55l1.291,3.226l0.323,3.872l0.967,4.517l6.131,2.904l-7.098,21.94l4.839,5.485
	l-7.743-1.614"/>
</svg>
