<?xml version="1.0" encoding="utf-8"?>
<!-- Generator: Adobe Illustrator 16.0.0, SVG Export Plug-In . SVG Version: 6.00 Build 0)  -->
<!DOCTYPE svg PUBLIC "-//W3C//DTD SVG 1.1//EN" "http://www.w3.org/Graphics/SVG/1.1/DTD/svg11.dtd" [
	<!ENTITY ns_extend "http://ns.adobe.com/Extensibility/1.0/">
	<!ENTITY ns_ai "http://ns.adobe.com/AdobeIllustrator/10.0/">
	<!ENTITY ns_graphs "http://ns.adobe.com/Graphs/1.0/">
	<!ENTITY ns_vars "http://ns.adobe.com/Variables/1.0/">
	<!ENTITY ns_imrep "http://ns.adobe.com/ImageReplacement/1.0/">
	<!ENTITY ns_sfw "http://ns.adobe.com/SaveForWeb/1.0/">
	<!ENTITY ns_custom "http://ns.adobe.com/GenericCustomNamespace/1.0/">
	<!ENTITY ns_adobe_xpath "http://ns.adobe.com/XPath/1.0/">
]>
<svg version="1.1" id="Layer_1" xmlns:x="&ns_extend;" xmlns:i="&ns_ai;" xmlns:graph="&ns_graphs;"
	 xmlns="http://www.w3.org/2000/svg" xmlns:xlink="http://www.w3.org/1999/xlink" x="0px" y="0px" width="487.68px"
	 height="332.283px" viewBox="0 0 487.68 332.283" enable-background="new 0 0 487.68 332.283" xml:space="preserve">
<metadata>
	<sfw  xmlns="&ns_sfw;">
		<slices></slices>
		<sliceSourceBounds  width="487.68" height="332.283" bottomLeftOrigin="true" x="356.735" y="-707.717"></sliceSourceBounds>
	</sfw>
</metadata>
<g opacity="0.15">
	<path opacity="0.5" fill="#0A1D32" d="M273.909,281.251c-5.909-5.266-11.079-10.998-15.448-17.381
		c-3.479-5.082-6.552-10.445-9.825-15.67c-0.516-0.822-0.602-1.488-0.086-2.424c8.82-15.996,13.854-33.201,16.255-51.238
		c2.371-17.809,2.438-35.64,0.281-53.461c-2.917-24.119-10.186-46.702-24.761-66.438c-19.361-26.218-45.129-42.229-77.365-47.656
		c-19.52-3.286-38.911-2.204-58.217,1.675c-4.3,0.864-8.561,1.924-12.856,2.815c-1.094,0.227-1.535,0.701-1.391,1.79
		c0.054,0.408,0.009,0.83,0.009,1.246c0,88.303,0,176.605,0,264.908c0,0.826,0,1.65,0,2.678c3.951,0.801,7.816,1.639,11.702,2.365
		c14.085,2.627,28.24,4.52,42.623,4.108c21.085-0.604,40.927-5.642,59.167-16.46c0.305-0.18,0.62-0.342,0.66-0.364
		c7.663,6.371,15.216,12.651,22.772,18.934c-0.196,0.092-0.681,0.356-1.191,0.552c-14.58,5.588-29.665,9.131-45.117,11.236
		c-14.031,1.912-28.125,2.529-42.271,2.518c-45.428-0.039-90.856-0.015-136.284-0.015c-0.816,0-1.632,0-2.564,0
		c0-2.899,0-5.604,0-8.579c0.689,0,1.377,0.021,2.064-0.004c6.103-0.229,12.248-0.092,18.295-0.793
		c7.488-0.867,13.896-4.203,18.713-10.247c3.286-4.122,4.559-9.006,5.074-14.036c0.707-6.899,1.371-13.842,1.381-20.768
		c0.099-69.479,0.075-138.957,0.041-208.435c-0.004-8.254-0.587-16.461-1.96-24.638c-1.775-10.574-8.256-16.563-18.001-19.677
		c-4.741-1.516-9.638-1.927-14.592-1.884c-3.611,0.031-7.222,0.006-10.983,0.006c0-2.91,0-5.659,0-8.67c0.669,0,1.301,0,1.934,0
		c42.815,0,85.63-0.031,128.446,0.016c16.155,0.018,32.292,0.632,48.365,2.373c18.505,2.004,36.781,5.148,54.229,11.917
		c25.591,9.926,45.429,26.934,60.53,49.667c13.016,19.593,21.005,41.111,24.346,64.354c3.863,26.886,2.771,53.52-4.708,79.727
		c-7.062,24.75-19.767,46.246-37.826,64.58C274.935,280.298,274.497,280.692,273.909,281.251z"/>
	<path opacity="0.5" fill="#0A1D32" d="M364.958,160.552c0-3.139,0-5.911,0-8.799c40.916,0,81.741,0,122.722,0
		c0,2.803,0,5.611,0,8.618c-0.733,0.036-1.479,0.061-2.222,0.11c-3.961,0.263-7.989,0.156-11.867,0.871
		c-10.875,2.006-17.092,8.371-19.307,19.178c-1.763,8.598-2.051,17.32-2.063,26.047c-0.045,31.826-0.029,63.652,0.018,95.479
		c0.002,1.56-0.415,2.384-1.853,3.138c-19.744,10.354-40.313,18.434-62.254,22.752c-19.791,3.895-39.792,4.926-59.901,4.039
		c-17.966-0.793-35.61-3.543-52.871-8.76c-61.768-18.666-96.195-69.371-106.313-114.361c-3.952-17.57-5.083-35.334-3.404-53.256
		c3.516-37.534,18.483-70.209,42.258-99.118c0.188-0.229,0.383-0.454,0.591-0.665c0.076-0.076,0.201-0.103,0.414-0.205
		c6,4.413,11.567,9.393,16.516,15.014c3.093,3.513,5.91,7.272,8.756,10.994c0.397,0.52,0.573,1.601,0.311,2.175
		c-8.287,18.156-13.022,37.222-14.781,57.063c-2.551,28.775-0.086,57.022,9.206,84.489c6.521,19.273,15.674,37.174,29.123,52.6
		c17.676,20.274,40.012,32.619,66.439,36.963c27.032,4.441,52.612-1.033,76.878-13.318c1.741-0.881,4.025-1.521,4.933-2.977
		c0.861-1.379,0.277-3.682,0.277-5.577c-0.002-30.401,0.082-60.803-0.096-91.203c-0.038-6.56-0.792-13.144-1.629-19.663
		c-1.346-10.473-9.723-18.353-20.154-20.031c-5.544-0.892-11.198-1.098-16.805-1.584
		C366.949,160.482,366.004,160.552,364.958,160.552z"/>
	<path opacity="0.5" fill="#0A1D32" d="M434.072,0.091c5.681,0,11.291,0,16.817,0c0,33.366,0,66.641,0,100.153
		c-2.698,0-5.114,0.074-7.519-0.068c-0.434-0.025-0.961-0.877-1.197-1.449c-3.211-7.775-6.054-15.721-9.625-23.324
		c-7.158-15.237-16.876-28.57-30.42-38.886c-13.227-10.075-28.131-16.163-44.486-18.63c-19.271-2.908-38.345-1.941-57.067,3.776
		c-9.361,2.858-15.284,5.773-26.882,13.012c-7.331-4.977-14.576-9.896-21.9-14.868c0.336-0.203,0.897-0.568,1.482-0.892
		c15.855-8.768,32.834-14.14,50.712-16.811c13.911-2.078,27.884-2.537,41.915-1.729c14.69,0.848,28.811,4.348,42.659,9.115
		c8.854,3.048,17.69,6.148,26.55,9.183c1.452,0.497,2.97,0.831,4.478,1.139c5.548,1.134,10.085-1.073,11.896-6.46
		c1.269-3.776,1.651-7.852,2.419-11.796C433.992,1.102,434.011,0.633,434.072,0.091z"/>
</g>
</svg>
