<?xml version="1.0" encoding="utf-8"?>
<!-- Generator: Adobe Illustrator 16.0.0, SVG Export Plug-In . SVG Version: 6.00 Build 0)  -->
<!DOCTYPE svg PUBLIC "-//W3C//DTD SVG 1.1//EN" "http://www.w3.org/Graphics/SVG/1.1/DTD/svg11.dtd" [
	<!ENTITY ns_extend "http://ns.adobe.com/Extensibility/1.0/">
	<!ENTITY ns_ai "http://ns.adobe.com/AdobeIllustrator/10.0/">
	<!ENTITY ns_graphs "http://ns.adobe.com/Graphs/1.0/">
	<!ENTITY ns_vars "http://ns.adobe.com/Variables/1.0/">
	<!ENTITY ns_imrep "http://ns.adobe.com/ImageReplacement/1.0/">
	<!ENTITY ns_sfw "http://ns.adobe.com/SaveForWeb/1.0/">
	<!ENTITY ns_custom "http://ns.adobe.com/GenericCustomNamespace/1.0/">
	<!ENTITY ns_adobe_xpath "http://ns.adobe.com/XPath/1.0/">
]>
<svg version="1.1" id="Layer_1" xmlns:x="&ns_extend;" xmlns:i="&ns_ai;" xmlns:graph="&ns_graphs;"
	 xmlns="http://www.w3.org/2000/svg" xmlns:xlink="http://www.w3.org/1999/xlink" x="0px" y="0px" width="194.83px"
	 height="196.87px" viewBox="0 0 194.83 196.87" enable-background="new 0 0 194.83 196.87" xml:space="preserve">
<metadata>
	<sfw  xmlns="&ns_sfw;">
		<slices></slices>
		<sliceSourceBounds  height="196.87" width="194.83" y="-639.87" x="503" bottomLeftOrigin="true"></sliceSourceBounds>
	</sfw>
</metadata>
<path fill="#FFFFFF" d="M42.359,55.608c-0.888,0.33-3.607,1.493-2.861-2.86c0.847-4.942,9.764-31.904,43.97-40.113
	c34.205-8.21,55.537,3.358,62.627,12.625c2.42,3.162-0.769,3.045-4.913,3.855C102.373,36.703,65.494,47.026,42.359,55.608
	 M65.153,151.026c-3.916,1.582-6.947,2.316-4.88,5.046c4.885,6.446,30.442,18.44,63.6,6.698
	c30.684-10.864,39.576-33.713,40.031-38.706c0.398-4.398-1.738-3.51-4.549-2.812C132.063,128.035,98.73,137.463,65.153,151.026"/>
<path fill="#FFFFFF" d="M121.217,28.929c0,0,5.599-1.866,4.479-6.437c-1.119-4.571-14.365-10.075-24.348-10.355
	c0,0,22.816-1.993,30.785,9.282C136.518,27.623,121.217,28.929,121.217,28.929 M71.682,18.667c0,0-19.701,9.056-24.022,27.613
	c-0.793,3.405,2.938,3.312,3.452,0.7C51.461,45.202,53.864,31.634,71.682,18.667 M127.125,158.127c0,0,21.418-7.703,27.568-26.66
	c1.128-3.479-4.184-4.959-4.93-1.414C149.373,131.906,146.032,145.538,127.125,158.127"/>
<path fill="#FFFFFF" d="M172.152,128.187c-12.31,27.806-37.201,48.718-68.785,51.813c-25.227,2.472-48.842-6.66-65.979-23.157
	c-4.651,1.986-10.485,4.275-10.485,4.275v-16.432c-9.168-12.84-15.085-28.432-16.369-45.592c-3.08-41.167,21.88-76.874,57.39-90.646
	c14.218-5.516,34.759-9.14,57.433-4.721C116.8,1.3,107.77,0,98.434,0C44.07,0,0,44.071,0,98.435
	c0,54.364,44.07,98.436,98.434,98.436c40.715,0,75.655-24.72,90.635-59.97L172.152,128.187z"/>
<path fill="#FFFFFF" d="M190.021,120.358c0-1.486-1.205-2.69-2.69-2.69h-4.524v9.58h1.87v-4.197h1.037l2.398,4.197h1.87
	l-2.405-4.211C188.946,122.912,190.021,121.762,190.021,120.358 M184.676,119.021h2.214c0.737,0,1.337,0.599,1.337,1.337
	c0,0.739-0.6,1.338-1.337,1.338h-2.214V119.021z M186.146,113.622c-4.796,0-8.685,3.956-8.685,8.837
	c0,4.879,3.889,8.834,8.685,8.834s8.685-3.955,8.685-8.834C194.83,117.578,190.941,113.622,186.146,113.622 M186.146,129.119
	c-3.615,0-6.546-2.982-6.546-6.66c0-3.68,2.931-6.662,6.546-6.662c3.616,0,6.546,2.982,6.546,6.662
	C192.691,126.137,189.762,129.119,186.146,129.119 M66.917,132.584c3.037,3.037,3.037,7.961,0,10.998s-7.96,3.037-10.997,0
	l-12.504-12.504v15.301c0,0,0.187,5.224-3.638,6.902c-4.779,2.098-10.915,4.479-10.915,4.479v-48.043l14.553-6.157v17.432
	l12.674-21.51c1.873-3.172,5.904-3.924,9.329-2.568c3.459,1.37,4.665,5.132,2.159,9.352l-10.154,16.827L66.917,132.584z
	 M87.261,129.119c0,0,0.124,6.842-6.593,9.205l-8.707,3.109V99.641c0,0-0.124-6.841,6.593-9.204l8.707-3.11V129.119z M45.467,88.727
	c-0.323-4.855-5.783-6.438-5.783-6.438s5.131-2.984,4.384-9.516c-1.012-8.853-11.474-4.664-11.474-4.664l-11.101,4.105v35.168
	c0,0,7.183-2.984,14.552-6.25C43.561,97.805,45.841,94.323,45.467,88.727 M30.168,74.919c0,0,5.411-2.519,5.224,1.959
	c-0.186,4.478-5.224,5.598-5.224,5.598V74.919z M30.168,96.655v-8.769c0,0,6.071-2.893,5.877,2.426
	C35.859,95.442,30.168,96.655,30.168,96.655 M70.189,59.713c0,0,0.093,15.579,0,18.098c-0.093,2.519,0.466,11.568-11.101,15.206
	c-12.497,3.93-12.781-7.37-12.781-7.37V62.792c0,0,3.732-1.4,4.571-1.679c4.535-1.512,4.478,2.518,4.478,2.518v18.378
	c0,0-0.28,3.545,2.612,3.172c3.638-0.47,3.265-4.291,3.265-4.291V57.475c0,0,2.239-0.746,4.198-1.306
	C70.368,54.758,70.189,59.713,70.189,59.713 M96.31,79.397c2.706-3.172-0.746-6.344-0.746-6.344l-5.131-5.225
	c0,0,5.523-2.89,5.411-11.193c-0.093-6.904-7.65-7.65-13.713-5.504c-1.977,0.699-9.422,2.892-9.422,2.892v33.024l5.504-1.866
	c0,0,3.451-0.934,3.451-5.504v-7.65l7.836,7.836C89.5,79.863,93.124,83.133,96.31,79.397 M86.888,59.808
	c-0.372,5.588-5.317,7.089-5.317,7.089v-9.142C81.57,57.754,87.167,55.609,86.888,59.808 M156.854,61.02v-6.285l7.277,8.058
	c0,0,3.17,3.545,6.81,0.173c2.879-2.667-0.747-6.247-0.747-6.247l-4.852-6.147c0,0,5.132-2.519,5.039-9.609
	c-0.092-6.914-6.998-8.478-13.061-7.068c-1.977,0.46-9.422,1.748-9.422,1.748v31.66l5.504-1.198
	C153.402,66.104,156.854,65.59,156.854,61.02 M156.387,40.589c0,0,5.541-1.956,5.225,2.239c-0.373,4.944-5.225,6.157-5.225,6.157
	V40.589z M97.057,59.993c0.466-7.37,6.343-19.87,23.042-17.445c2.192,0.319,4.011,1.796,4.011,4.012
	c0,2.215-1.796,4.011-4.011,4.011c0,0-12.781-2.985-13.341,9.795c-0.228,5.197,1.25,7.822,3.731,8.21
	c2.985,0.466,5.246-0.928,5.505-1.96c0.092-0.373-0.094-3.824-0.094-3.824s-4.57,1.212-4.665-1.773
	c-0.093-2.985,0.095-4.011,0.095-4.011l12.779-2.985V66.99c0,0,0.28,7.743-11.941,9.142C99.948,77.531,96.589,67.363,97.057,59.993
	 M142.319,68.222l-15.784,3.62V39.843l19.17-3.889c0,0,0.004,3.084,0,3.889c-0.013,3.355-3.432,3.937-3.432,3.937l-6.923,1.587
	v4.618l9.282-1.95c0,0,0.004,2.338,0,3.143c-0.014,3.354-3.125,3.825-3.125,3.825l-6.157,1.428v6.15l10.401-2.186
	c0,0,0.004,3.085,0,3.889C145.739,67.64,142.319,68.222,142.319,68.222 M133.531,117.511c0,0,0.135,6.209-6.592,7.243
	c-2.354,0.361-5.159-0.562-7.09-2.724c-2.932-3.283-14.428-16.419-14.428-16.419v17.818c0,0,0.031,6.81-6.811,8.893l-6.717,2.396
	V86.114l7.68-2.333c0,0,4.293-1.679,8.117,2.613l12.594,14.646V85.461c0,0-0.187-6.948,6.53-8.467l6.716-1.649V117.511z
	 M150.744,91.688c-1.353,9.689,3.072,13.247,8.112,13.371c6.085,0.15,6.31-3.756,6.31-3.756v-3.53
	c-7.586,2.028-7.437-3.08-7.437-3.08v-5.634l20.433-4.357v16.076c0,7.737-4.801,15.192-20.906,16.365
	c-12.522,0.912-23.268-7.728-20.961-24.898c2.203-16.407,14.89-24.716,28.346-24.671c2.471,0.009,5.283,0.369,7.46,0.885
	c5.461,1.294,6.888,4.825,6.062,7.905c-1.639,6.107-6.836,4.131-12.17,3.455C160.66,79.143,152.096,81.997,150.744,91.688"/>
</svg>
