<?xml version="1.0" encoding="utf-8"?>
<!-- Generator: Adobe Illustrator 16.0.0, SVG Export Plug-In . SVG Version: 6.00 Build 0)  -->
<!DOCTYPE svg PUBLIC "-//W3C//DTD SVG 1.1//EN" "http://www.w3.org/Graphics/SVG/1.1/DTD/svg11.dtd" [
	<!ENTITY ns_extend "http://ns.adobe.com/Extensibility/1.0/">
	<!ENTITY ns_ai "http://ns.adobe.com/AdobeIllustrator/10.0/">
	<!ENTITY ns_graphs "http://ns.adobe.com/Graphs/1.0/">
	<!ENTITY ns_vars "http://ns.adobe.com/Variables/1.0/">
	<!ENTITY ns_imrep "http://ns.adobe.com/ImageReplacement/1.0/">
	<!ENTITY ns_sfw "http://ns.adobe.com/SaveForWeb/1.0/">
	<!ENTITY ns_custom "http://ns.adobe.com/GenericCustomNamespace/1.0/">
	<!ENTITY ns_adobe_xpath "http://ns.adobe.com/XPath/1.0/">
]>
<svg version="1.1" id="Layer_1" xmlns:x="&ns_extend;" xmlns:i="&ns_ai;" xmlns:graph="&ns_graphs;"
	 xmlns="http://www.w3.org/2000/svg" xmlns:xlink="http://www.w3.org/1999/xlink" x="0px" y="0px" width="366.766px"
	 height="122.203px" viewBox="0 0 366.766 122.203" enable-background="new 0 0 366.766 122.203" xml:space="preserve">
<metadata>
	<sfw  xmlns="&ns_sfw;">
		<slices></slices>
		<sliceSourceBounds  height="122.203" width="366.766" y="-602.01" x="416.335" bottomLeftOrigin="true"></sliceSourceBounds>
	</sfw>
</metadata>
<path fill="#FFFFFF" d="M273.045,11.07c0,15.078-7.883,27.894-18.872,32.572l0.01,0.141l0.003,24.046L235.9,67.832l-0.002-23.979
	l-0.037-0.16c-11.036-4.643-18.977-17.49-18.979-32.615V3.527l18.625-0.002l0.164-0.007l0.003,13.695
	c0,6.221,4.109,11.262,9.178,11.263c5.068-0.001,9.179-5.046,9.177-11.267V3.451l19.016-0.001L273.045,11.07z"/>
<path fill="#FFFFFF" d="M59.113,31.563C59.076,14.191,70.516,0.052,84.632,0c14.104-0.019,25.612,14.046,25.684,31.438
	c0.03,17.354-11.387,31.486-25.517,31.51C70.66,63.009,59.153,48.921,59.113,31.563 M81.296,48.185
	c5.954,0.003,10.733-5.6,10.732-12.421c0.036-6.841-4.844-12.352-10.766-12.365c-5.982,0.013-10.742,5.604-10.734,12.434
	C70.535,42.673,75.353,48.196,81.296,48.185"/>
<path fill="#FFFFFF" d="M321.8,54.263c3.372,2.761,10.779,8.179,18.129,9.407c10.024,1.614,23.406-3.59,24.887-12.771
	c3.601-21.944-23.118-20.589-21.138-32.523c0,0,0.762-6.34,8.031-5.114c5.739,0.9,13.328,7.038,13.328,7.038l0.072-15.564
	c-2.062-1.19-5.818-2.771-12.264-3.835c-11.56-1.875-27.264,0.973-29.158,12.702C321,30.066,343.713,30.647,342.056,40.753
	c0,0-0.904,6.144-8.702,4.872c-5.195-0.85-11.434-5.395-11.434-5.395L321.8,54.263z"/>
<path fill="#FFFFFF" d="M23.863,50.283l0.001,17.462L5.823,67.747l-0.008-44.87H0.003L0,4.095l1.64,0.006l5.572-0.002
	C24.027,4.19,56.626,5.414,56.53,30.8c-0.106,20.33-32.432,19.42-32.432,19.42L23.863,50.283z M24.149,37.177
	c0,0,11.611,0.763,11.649-6.621c0.031-8.451-11.563-7.55-11.563-7.55l-0.102,0.003l0.002,14.144L24.149,37.177z"/>
<path fill="#FFFFFF" d="M135.565,50.268l0.001,17.46l-18.041,0.002l-0.008-44.869h-5.812l-0.003-18.782l1.64,0.005l5.575-0.005
	c16.812,0.092,49.411,1.319,49.315,26.704c-0.101,20.331-32.431,19.419-32.431,19.419L135.565,50.268z M135.851,37.161
	c0,0,11.612,0.764,11.649-6.624c0.028-8.449-11.563-7.546-11.563-7.546l-0.1,0.002v14.145L135.851,37.161z"/>
<path fill="#FFFFFF" d="M208.013,36.919c0,0-1.413-10.747-11.457-10.547c-8.381,0.173-9.781,10.574-9.781,10.574L208.013,36.919z
	 M216.625,63.185c-4.789,6.979-13.287,13.043-21.295,13.043c-14.408,0.003-26.092-14.352-26.096-32.06
	c0.002-17.71,11.69-32.686,26.089-32.068c19.14,0.814,25.292,14.34,24.219,36.633l-33.617,0.041c0,0,0.978,21.213,26.086,7.493
	L216.625,63.185z"/>
<path fill="#FFFFFF" d="M307.691,36.905c0,0-1.408-10.749-11.455-10.547c-8.383,0.173-9.781,10.574-9.781,10.574L307.691,36.905z
	 M316.303,63.171c-4.784,6.978-13.283,13.045-21.292,13.045c-14.411,0.002-26.093-14.354-26.096-32.063
	C268.914,26.444,280.607,11.469,295,12.084c19.144,0.816,25.296,14.343,24.222,36.634l-33.619,0.042c0,0,0.979,21.215,26.087,7.492
	L316.303,63.171z"/>
<path fill="#FFFFFF" d="M361.381,65.292h-0.765l-0.002,1.142l0.712-0.004c0.66,0,0.904-0.156,0.904-0.595
	C362.231,65.459,361.977,65.294,361.381,65.292 M362.22,68.634l-1.009-1.661l-0.597,0.002v1.662l-0.646-0.003v-3.883h1.476
	c0.98,0,1.422,0.354,1.422,1.129c0,0.627-0.307,0.944-1.019,1.048l1.094,1.709L362.22,68.634z M361.296,63.585
	c-1.681,0-3.046,1.363-3.046,3.044c0,1.682,1.367,3.044,3.046,3.046c1.681-0.002,3.046-1.366,3.046-3.048
	C364.342,64.946,362.977,63.581,361.296,63.585 M361.296,70.141c-1.942,0-3.512-1.568-3.514-3.512
	c0.002-1.943,1.571-3.514,3.512-3.513c1.945-0.001,3.514,1.567,3.514,3.513C364.805,68.569,363.24,70.141,361.296,70.141"/>
<polygon fill="#FFFFFF" points="138.033,105.143 141.725,105.139 139.925,100.282 "/>
<polygon fill="#FFFFFF" points="178.639,105.135 182.329,105.135 180.532,100.275 "/>
<path fill="#FFFFFF" d="M60.093,98.743c-1.816,0.003-2.387,1.034-2.39,5.203c0.004,4.189,0.577,5.298,2.393,5.295
	c1.816,0.003,2.369-1.107,2.372-5.295C62.464,99.777,61.909,98.746,60.093,98.743"/>
<path fill="#FFFFFF" d="M349.392,86.27L19.311,86.318C9.716,86.32,1.94,94.354,1.941,104.266
	c0.003,9.905,7.781,17.938,17.374,17.938l330.082-0.051c9.593,0,17.372-8.033,17.369-17.944
	C366.764,94.3,358.986,86.266,349.392,86.27 M34.163,111.389l-0.001-2.199h1.245c0.688,0.002,0.99-0.347,0.991-1.031v-8.284
	c-0.001-0.685-0.306-1.011-0.995-1.008l-1.242-0.003v-2.197l9.869-0.004v2.199l-1.511,0.002c-0.69-0.002-0.996,0.326-0.995,1.011
	v8.282c0.001,0.936,0.171,1.031,1.3,1.033l1.339-0.002c1.532,0.002,2.68-0.938,2.677-3.137v-1.32l2.543,0.004l0.002,6.654H34.163z
	 M60.098,111.633c-5.047,0.002-8.092-3.134-8.091-7.686c-0.001-4.531,3.039-7.612,8.086-7.612c5.051,0,8.09,3.076,8.091,7.608
	C68.183,108.497,65.145,111.633,60.098,111.633 M87.386,98.855h-0.881c-0.686,0-1.013,0.535-1.012,1.226v5.164
	c0,4.722-2.543,6.308-6.595,6.311c-4.493,0-7.306-1.209-7.307-6.043l-0.001-5.621c0.001-0.689-0.265-1.034-1.032-1.034h-0.574
	v-2.195l8.699-0.003v2.198l-0.994-0.002c-0.688,0-1.012,0.366-1.013,1.055l0.001,6.174c0.001,1.989,1.263,2.715,3.234,2.717
	c1.854-0.002,2.905-1.07,2.905-2.79l-0.002-5.95c0.001-0.687-0.322-1.205-1.033-1.203l-0.877-0.002l0.001-2.196l6.481-0.005V98.855z
	 M99.724,98.854h-1.261c-0.693,0-0.805,0.325-0.804,1.014v8.281c-0.001,0.688,0.307,1.033,0.994,1.033l1.071-0.002v2.201
	l-9.502-0.002v-2.197l1.416,0.003c0.687-0.005,0.821-0.157,0.82-0.864l-0.004-8.281c0.001-0.688-0.305-1.184-0.991-1.184h-1.246
	v-2.199l9.509-0.002L99.724,98.854z M111.048,111.548c-2.371,0.003-3.787-0.745-4.589-0.745c-0.385,0-0.575,0.367-0.573,0.576
	h-2.087l0.001-5.622l2.354-0.002l-0.001,0.421c-0.002,2.067,1.682,2.947,3.787,2.944c1.931,0.003,2.905-0.533,2.905-1.45
	c0.001-0.824-0.439-1.208-2.544-1.666l-3.135-0.67c-1.97-0.416-3.479-1.833-3.463-4.146c0.018-3.289,3.002-4.78,6.346-4.782
	c2.161,0,2.908,0.727,3.538,0.727c0.577-0.002,0.71-0.231,0.73-0.538h2.215l0.003,5.164h-2.465l-0.001-0.477
	c-0.004-1.7-1.377-2.525-3.213-2.522c-1.569,0-2.601,0.206-2.6,1.108c-0.001,0.649,0.344,1.051,2.045,1.435l3.251,0.745
	c2.085,0.475,3.765,1.623,3.747,4.148C117.281,110.208,114.125,111.548,111.048,111.548 M129.37,111.376h-9.505v-2.199h1.416
	c0.69,0,0.822-0.151,0.819-0.862v-8.277c0.001-0.688-0.305-1.187-0.994-1.184l-1.242-0.003v-2.196l9.504-0.002v2.195l-1.259,0.003
	c-0.693,0-0.804,0.324-0.807,1.011l0.003,8.279c0,0.69,0.305,1.036,0.993,1.036h1.072V111.376z M149.928,111.374l-9.273-0.003
	v-2.196h1.567c0.631,0,0.861-0.424,0.67-0.937l-0.345-0.977l-5.352,0.002l-0.326,0.881c-0.268,0.724,0.016,1.032,0.763,1.03h1.225
	v2.199l-6.829,0.002l0.001-2.199l0.401-0.002c0.592,0.002,1.244-0.19,1.492-0.821l4.647-11.707l4.952,0.002l4.497,11.455
	c0.264,0.647,0.667,1.068,1.375,1.068h0.535V111.374z M171.386,98.843h-1.205c-0.689,0-1.013,0.327-1.014,1.015l0.003,11.512h-4.837
	l-6.733-9.387l0.001,6.158c0.001,0.688,0.323,1.034,1.012,1.031h1.28l0.003,2.199h-7.344v-2.199h1.242
	c0.69,0,1.016-0.344,1.014-1.031l-0.001-8.109c-0.001-0.688-0.326-1.186-1.015-1.186h-1.242l-0.003-2.197l7.212-0.002l6.543,9.158
	l-0.005-5.945c0.001-0.692-0.304-1.017-0.99-1.017h-1.266v-2.196h7.345V98.843z M190.533,111.364l-9.274,0.002v-2.199l1.567,0.003
	c0.631,0,0.862-0.424,0.671-0.938l-0.346-0.979l-5.352,0.003l-0.327,0.879c-0.267,0.728,0.02,1.034,0.766,1.031h1.223v2.202h-6.828
	v-2.199h0.402c0.594,0,1.243-0.191,1.491-0.822l4.646-11.706l4.953,0.003l4.496,11.448c0.269,0.653,0.669,1.072,1.377,1.074h0.535
	V111.364z M220.237,111.361l-9.602,0.003v-2.202h0.861c0.498,0,0.859-0.209,0.862-0.573c-0.003-0.246-0.117-0.535-0.327-0.839
	l-1.932-2.735l-1.873,1.661v1.495c0,0.687,0.097,0.994,0.784,0.994h0.919l-0.002,2.196l-9.007,0.003l-0.003-2.197l1.245-0.002
	c0.688,0.002,0.997-0.347,0.994-1.034v-8.279c0.003-0.689-0.308-1.014-0.994-1.011l-1.242-0.003v-2.196l9.481-0.005v2.201h-1.397
	c-0.685,0-0.778,0.327-0.778,1.014v3.883l4.069-3.634c0.286-0.249,0.424-0.442,0.421-0.786c0.003-0.267-0.246-0.477-0.533-0.479
	h-0.861v-2.199h8.087v2.201l-1.47-0.002c-0.595,0.002-1.186,0.326-1.743,0.824l-2.635,2.334l4.569,6.369
	c0.458,0.646,0.65,0.802,1.108,0.802l0.997-0.003V111.361z M233.127,111.361h-9.504v-2.199l1.415,0.003
	c0.688-0.003,0.822-0.155,0.824-0.865l-0.005-8.278c0.003-0.69-0.304-1.188-0.994-1.184l-1.243-0.002l0.003-2.199l9.502-0.003
	l-0.003,2.199l-1.26,0.003c-0.688,0-0.799,0.324-0.802,1.011v8.281c0.003,0.688,0.306,1.034,0.996,1.032l1.07,0.002V111.361z
	 M252.671,103.04h-2.484v-1.835c0-1.55-0.653-2.466-2.2-2.469l-0.69,0.003v9.198c0.003,0.704,0.519,1.225,1.208,1.223h1.645v2.199
	h-10.861v-2.199l1.663,0.002c0.69,0,1.187-0.521,1.187-1.229l-0.004-9.197h-0.685c-1.551,0.003-2.199,0.919-2.202,2.469l0.003,1.835
	h-2.487v-6.406l15.909-0.002V103.04z M262.544,111.604c-4.971,0.002-7.862-3.113-7.862-7.646c0.003-4.837,3.192-7.652,7.804-7.649
	c1.643,0,2.772,0.477,3.192,0.627c0.363,0.136,0.419-0.036,0.668-0.627l2.391-0.003l0.002,5.911l-2.62-0.003v-0.555
	c-0.002-1.736-0.787-2.867-2.602-2.864c-2.181,0-3.041,1.698-3.039,5.065c0,3.862,0.882,5.353,3.232,5.353
	c2.007,0,2.641-1.187,2.752-3.25l0.037-0.728h2.563l0.003,0.707C269.066,108.868,267.362,111.605,262.544,111.604 M291.688,111.351
	h-9.158v-2.195h0.819c0.689,0,0.997-0.348,0.997-1.036v-3.116l-4.399,0.002v3.116c0,0.687,0.307,1.034,0.997,1.034h0.821
	l-0.002,2.195h-9.177v-2.193l1.241-0.002c0.69,0,0.996-0.348,0.994-1.031v-8.282c0.002-0.687-0.309-1.011-0.994-1.014l-1.241-0.002
	l-0.002-2.197l9.181-0.002l-0.002,2.199h-0.822c-0.688,0.002-0.994,0.326-0.994,1.014v2.852h4.399l-0.004-2.852
	c0.004-0.688-0.306-1.014-0.99-1.014h-0.824v-2.197l9.158-0.002v2.199l-1.24,0.002c-0.69-0.002-0.977,0.324-0.977,1.012l0.005,8.279
	c-0.002,0.687,0.284,1.033,0.972,1.033h1.242V111.351z M295.29,111.351v-2.198h1.24c0.692,0,0.996-0.154,0.996-0.862l-0.002-8.642
	c0.002-0.688-0.307-0.822-0.994-0.822h-1.245v-2.199l15.337-0.003v5.97l-2.466-0.005v-0.974c0-1.915-1.011-2.792-2.562-2.792h-1.988
	c-0.69,0-1.014,0.137-1.014,0.825v3.133l1.07,0.003c0.613-0.003,0.862-0.384,0.86-1.015v-1.223l2.219-0.003l0.002,6.962h-2.219
	v-1.566c0-0.615-0.306-0.979-0.919-0.979l-1.014,0.003l0.003,3.327c-0.003,0.708,0.226,0.86,0.913,0.86h1.837
	c1.856,0,2.985-0.651,2.982-3.06l0.003-0.938l2.463,0.003l0.003,6.19L295.29,111.351z M333.418,98.82h-1.203
	c-0.687-0.002-1.014,0.324-1.016,1.015l0.002,11.511h-4.837l-6.731-9.389v6.159c0.003,0.688,0.326,1.034,1.014,1.03h1.283v2.199
	h-7.346v-2.195l1.245-0.004c0.688,0.004,1.015-0.343,1.015-1.03l-0.004-8.105c-0.002-0.692-0.325-1.19-1.013-1.188h-1.243v-2.199
	l7.208-0.002l6.543,9.158l-0.003-5.945c0.003-0.69-0.306-1.017-0.994-1.015h-1.262v-2.198h7.342V98.82z"/>
<path fill="#FF671B" d="M20.84,112.991c-0.027,0-0.065-0.09-0.076-0.115c-0.123-0.286-0.216-0.475-0.418-0.682
	c-0.141-0.14-0.263-0.279-0.393-0.428c-0.605-0.693-0.784-1.595-0.565-2.481c0.068-0.269,0.147-0.533,0.223-0.792
	c0.107-0.366,0.21-0.725,0.26-1.104c0.023-0.166,0.03-0.341,0.028-0.516c0-0.1-0.261-0.082-0.284,0.016
	c-0.039,0.169-0.077,0.334-0.121,0.5c-0.104,0.389-0.233,0.76-0.423,1.104c-0.159,0.281-0.357,0.54-0.619,0.77
	c-0.497,0.429-1.221,0.638-1.831,0.304c-0.984-0.538-0.811-1.755-0.115-2.177c0.063-0.037,0.132-0.063,0.212-0.066
	c-0.001,0.027-0.001,0.044,0,0.069c-0.004,0.275,0.036,0.568,0.291,0.734c0.307,0.197,0.745,0.174,1.033-0.085
	c0.169-0.151,0.311-0.413,0.403-0.652c0.093-0.225,0.136-0.429,0.12-0.511c-0.024-0.129-0.47-0.012-0.68-0.158
	c-0.142-0.105-0.203-0.27-0.173-0.432c0.009-0.064,0.035-0.127,0.072-0.187c0.204-0.316,0.732-0.097,0.781-0.274
	c0.02-0.07-0.027-0.344-0.168-0.643c-0.197-0.415-0.564-0.885-1.177-0.967c-0.31-0.036-0.603,0.032-0.844,0.228
	c-0.248,0.201-0.379,0.435-0.389,0.739c-0.001,0.115,0.011,0.236,0.04,0.371c-0.186,0.117-0.852-0.064-1.274-0.381
	c-0.016-0.013,0.015,0.01,0,0c-0.344-0.281-0.635-0.672-0.765-1.094c-0.039-0.121-0.066-0.254-0.081-0.383
	c-0.108-0.962,0.376-1.933,1.258-2.339c0.473-0.222,0.985-0.324,1.523-0.222c0.57,0.104,1.036,0.376,1.451,0.765
	c0.61,0.57,0.898,1.327,1.193,2.084c0.015,0.03,0.024,0.06,0.036,0.095c0.126,0.354,0.196,0.745,0.243,1.102
	c0.033,0.24,0.057,0.461,0.076,0.643c0.007,0.074,0.256,0.053,0.255-0.027c0.006-0.205-0.005-0.408-0.029-0.615
	c-0.041-0.374-0.119-0.74-0.224-1.104c-0.247-0.856-0.642-1.688-0.99-2.516c-0.224-0.541-0.372-1.111-0.366-1.694
	c0.006-0.522,0.202-0.991,0.45-1.452c0.323-0.595,0.884-0.934,1.305-1.464c0.386-0.478,0.539-1.036,0.669-1.634
	c0.005-0.032,0.056-0.064,0.083-0.063c0.025-0.002,0.072,0.03,0.082,0.063c0.132,0.598,0.283,1.156,0.665,1.634
	c0.421,0.528,0.985,0.869,1.308,1.464c0.245,0.458,0.443,0.933,0.45,1.45c0.004,0.585-0.141,1.155-0.369,1.696
	c-0.346,0.827-0.736,1.656-0.984,2.518c-0.104,0.359-0.184,0.73-0.225,1.104c-0.022,0.202-0.037,0.406-0.029,0.615
	c0.004,0.08,0.245,0.1,0.258,0.025c0.016-0.182,0.038-0.402,0.072-0.643c0.048-0.356,0.119-0.747,0.243-1.104
	c0.012-0.033,0.023-0.063,0.034-0.09c0.296-0.76,0.587-1.52,1.194-2.087c0.416-0.389,0.88-0.658,1.454-0.767
	c0.536-0.104,1.046,0,1.517,0.221c0.888,0.406,1.369,1.375,1.263,2.342c-0.015,0.126-0.042,0.262-0.08,0.383
	c-0.13,0.419-0.421,0.813-0.767,1.092c-0.016,0.01,0.021-0.014,0,0c-0.421,0.315-1.09,0.498-1.272,0.383
	c0.026-0.137,0.043-0.26,0.039-0.373c-0.013-0.305-0.142-0.538-0.389-0.737c-0.242-0.195-0.539-0.262-0.844-0.228
	c-0.611,0.082-0.981,0.549-1.177,0.967c-0.138,0.302-0.185,0.57-0.165,0.645c0.044,0.178,0.571-0.047,0.777,0.27
	c0.036,0.06,0.063,0.125,0.074,0.187c0.028,0.162-0.032,0.329-0.173,0.431c-0.211,0.147-0.657,0.033-0.682,0.162
	c-0.016,0.082,0.031,0.286,0.12,0.511c0.097,0.239,0.239,0.501,0.407,0.652c0.285,0.259,0.723,0.282,1.03,0.085
	c0.257-0.166,0.297-0.463,0.294-0.737c-0.002-0.024-0.004-0.048-0.005-0.066c0.084,0.004,0.153,0.029,0.215,0.066
	c0.694,0.416,0.87,1.637-0.116,2.177c-0.609,0.334-1.332,0.128-1.831-0.307c-0.26-0.224-0.458-0.482-0.616-0.767
	c-0.192-0.341-0.32-0.717-0.425-1.104c-0.043-0.166-0.084-0.331-0.12-0.502c-0.021-0.099-0.286-0.11-0.287-0.014
	c0,0.173,0.009,0.347,0.033,0.519c0.048,0.371,0.149,0.734,0.259,1.101c0.074,0.261,0.155,0.521,0.221,0.79
	c0.221,0.891,0.04,1.79-0.566,2.483c-0.127,0.148-0.248,0.291-0.39,0.428c-0.205,0.204-0.294,0.394-0.42,0.685
	C20.909,112.901,20.871,112.991,20.84,112.991"/>
<path fill="#FF671B" d="M346.981,112.944c-0.03,0-0.067-0.09-0.075-0.112c-0.127-0.292-0.22-0.479-0.421-0.685
	c-0.143-0.14-0.262-0.279-0.394-0.431c-0.607-0.69-0.785-1.593-0.563-2.481c0.066-0.267,0.144-0.528,0.221-0.789
	c0.113-0.369,0.21-0.728,0.257-1.104c0.022-0.166,0.035-0.341,0.03-0.518c0-0.094-0.259-0.082-0.284,0.015
	c-0.035,0.173-0.077,0.337-0.12,0.503c-0.104,0.387-0.236,0.764-0.426,1.104c-0.156,0.281-0.354,0.54-0.615,0.769
	c-0.498,0.43-1.225,0.639-1.833,0.303c-0.98-0.536-0.807-1.754-0.114-2.176c0.063-0.033,0.133-0.062,0.212-0.063l0.003,0.063
	c-0.009,0.279,0.031,0.571,0.288,0.735c0.312,0.2,0.747,0.177,1.033-0.082c0.167-0.151,0.313-0.411,0.404-0.653
	c0.09-0.224,0.134-0.428,0.122-0.513c-0.025-0.124-0.476-0.012-0.686-0.159c-0.142-0.102-0.201-0.267-0.172-0.431
	c0.014-0.062,0.035-0.125,0.072-0.183c0.207-0.32,0.735-0.099,0.783-0.275c0.019-0.072-0.03-0.344-0.172-0.643
	c-0.192-0.416-0.562-0.885-1.171-0.967c-0.31-0.035-0.604,0.032-0.853,0.228c-0.241,0.198-0.373,0.435-0.381,0.737
	c-0.005,0.116,0.01,0.238,0.038,0.373c-0.182,0.114-0.847-0.067-1.276-0.382c-0.012-0.015,0.019,0.011,0,0
	c-0.341-0.28-0.635-0.675-0.764-1.093c-0.04-0.12-0.068-0.254-0.08-0.384c-0.11-0.964,0.376-1.933,1.258-2.339
	c0.476-0.225,0.986-0.323,1.524-0.225c0.57,0.11,1.034,0.379,1.452,0.766c0.607,0.569,0.896,1.326,1.192,2.087
	c0.013,0.026,0.022,0.06,0.035,0.092c0.124,0.356,0.197,0.747,0.244,1.104c0.035,0.24,0.055,0.457,0.075,0.642
	c0.005,0.075,0.254,0.052,0.256-0.025c0-0.206-0.01-0.411-0.032-0.614c-0.04-0.377-0.12-0.742-0.222-1.106
	c-0.251-0.856-0.643-1.688-0.989-2.515c-0.221-0.541-0.373-1.109-0.363-1.696c0.002-0.521,0.197-0.994,0.443-1.45
	c0.324-0.598,0.884-0.937,1.311-1.464c0.381-0.479,0.535-1.036,0.664-1.634c0.009-0.033,0.056-0.065,0.082-0.065
	c0.025,0.002,0.075,0.03,0.083,0.065c0.133,0.598,0.286,1.152,0.665,1.631c0.426,0.527,0.988,0.869,1.308,1.467
	c0.252,0.456,0.445,0.93,0.448,1.45c0.008,0.585-0.14,1.155-0.363,1.692c-0.352,0.828-0.737,1.662-0.986,2.519
	c-0.104,0.361-0.187,0.733-0.227,1.104c-0.021,0.2-0.032,0.407-0.028,0.614c0,0.082,0.247,0.103,0.257,0.03
	c0.021-0.188,0.042-0.406,0.075-0.645c0.045-0.359,0.119-0.748,0.241-1.102c0.01-0.035,0.024-0.064,0.038-0.095
	c0.291-0.757,0.58-1.518,1.189-2.087c0.416-0.387,0.882-0.658,1.452-0.766c0.538-0.102,1.049-0.002,1.525,0.223
	c0.884,0.406,1.361,1.375,1.26,2.339c-0.021,0.129-0.045,0.264-0.085,0.386c-0.127,0.416-0.421,0.809-0.765,1.091
	c-0.015,0.007,0.018-0.013,0,0c-0.424,0.316-1.089,0.498-1.275,0.382c0.033-0.136,0.043-0.258,0.043-0.371
	c-0.008-0.303-0.14-0.541-0.386-0.74c-0.245-0.194-0.541-0.26-0.848-0.225c-0.612,0.08-0.983,0.551-1.173,0.965
	c-0.142,0.301-0.189,0.572-0.17,0.645c0.048,0.174,0.576-0.045,0.777,0.273c0.04,0.058,0.064,0.123,0.078,0.182
	c0.026,0.163-0.033,0.329-0.181,0.434c-0.206,0.147-0.651,0.035-0.677,0.159c-0.013,0.085,0.032,0.289,0.119,0.513
	c0.093,0.239,0.237,0.498,0.406,0.653c0.287,0.259,0.725,0.279,1.031,0.082c0.257-0.167,0.299-0.458,0.293-0.735
	c0-0.023,0-0.041-0.002-0.066c0.077,0.005,0.149,0.029,0.213,0.064c0.691,0.418,0.868,1.642-0.115,2.178
	c-0.608,0.336-1.332,0.127-1.833-0.305c-0.257-0.227-0.458-0.488-0.615-0.767c-0.189-0.344-0.322-0.718-0.424-1.106
	c-0.045-0.164-0.082-0.328-0.124-0.498c-0.022-0.097-0.277-0.114-0.282-0.015c-0.005,0.174,0.005,0.346,0.028,0.515
	c0.047,0.375,0.153,0.737,0.261,1.102c0.077,0.264,0.157,0.523,0.222,0.792c0.223,0.892,0.04,1.791-0.564,2.483
	c-0.13,0.146-0.252,0.289-0.39,0.429c-0.207,0.206-0.299,0.393-0.421,0.685C347.045,112.854,347.007,112.944,346.981,112.944"/>
</svg>
