<?xml version="1.0" encoding="utf-8"?>
<!-- Generator: Adobe Illustrator 16.0.0, SVG Export Plug-In . SVG Version: 6.00 Build 0)  -->
<!DOCTYPE svg PUBLIC "-//W3C//DTD SVG 1.1//EN" "http://www.w3.org/Graphics/SVG/1.1/DTD/svg11.dtd" [
	<!ENTITY ns_extend "http://ns.adobe.com/Extensibility/1.0/">
	<!ENTITY ns_ai "http://ns.adobe.com/AdobeIllustrator/10.0/">
	<!ENTITY ns_graphs "http://ns.adobe.com/Graphs/1.0/">
	<!ENTITY ns_vars "http://ns.adobe.com/Variables/1.0/">
	<!ENTITY ns_imrep "http://ns.adobe.com/ImageReplacement/1.0/">
	<!ENTITY ns_sfw "http://ns.adobe.com/SaveForWeb/1.0/">
	<!ENTITY ns_custom "http://ns.adobe.com/GenericCustomNamespace/1.0/">
	<!ENTITY ns_adobe_xpath "http://ns.adobe.com/XPath/1.0/">
]>
<svg version="1.1" id="Layer_1" xmlns:x="&ns_extend;" xmlns:i="&ns_ai;" xmlns:graph="&ns_graphs;"
	 xmlns="http://www.w3.org/2000/svg" xmlns:xlink="http://www.w3.org/1999/xlink" x="0px" y="0px" width="49.924px"
	 height="70.079px" viewBox="0 0 49.924 70.079" enable-background="new 0 0 49.924 70.079" xml:space="preserve">
<metadata>
	<sfw  xmlns="&ns_sfw;">
		<slices></slices>
		<sliceSourceBounds  height="70.079" width="49.924" y="-575.486" x="575.623" bottomLeftOrigin="true"></sliceSourceBounds>
	</sfw>
</metadata>
<path fill="#D8B528" d="M24.974,70.079c-1.273-1.658-2.528-3.251-3.739-4.878c-1.586-2.13-3.173-4.263-4.696-6.438
	c-1.721-2.459-3.429-4.931-5.04-7.463c-1.754-2.757-3.426-5.568-5.069-8.394c-1.569-2.696-2.952-5.493-4.113-8.39
	c-0.626-1.564-1.171-3.17-1.63-4.792c-0.483-1.706-0.758-3.465-0.671-5.251c0.046-0.929,0.151-1.857,0.283-2.78
	c0.125-0.879,0.292-1.753,0.486-2.62c0.428-1.905,1.139-3.707,2.024-5.446C4.68,9.949,7.323,6.936,10.67,4.542
	c2.083-1.491,4.363-2.622,6.81-3.379c1.74-0.539,3.515-0.953,5.35-1.033c0.759-0.033,1.517-0.133,2.276-0.13
	c1.494,0.007,2.974,0.172,4.449,0.437c3.836,0.69,7.293,2.232,10.398,4.568c3.451,2.596,6.051,5.879,7.828,9.815
	c0.691,1.534,1.232,3.123,1.587,4.764c0.291,1.351,0.552,2.715,0.532,4.112c-0.018,1.119,0.092,2.252-0.053,3.353
	c-0.168,1.287-0.486,2.563-0.854,3.811c-0.774,2.622-1.876,5.116-3.071,7.575c-1.806,3.713-3.832,7.301-6.074,10.761
	c-2.351,3.628-4.74,7.234-7.24,10.762c-2.353,3.319-4.871,6.524-7.318,9.776C25.21,69.839,25.112,69.929,24.974,70.079
	 M41.826,24.601c0.072-1.078-0.232-2.742-0.725-4.366c-0.686-2.259-1.804-4.295-3.355-6.085c-3.008-3.47-6.798-5.427-11.364-5.86
	c-1.493-0.142-2.979-0.041-4.46,0.238c-1.346,0.253-2.642,0.65-3.876,1.225c-2.243,1.046-4.18,2.506-5.788,4.4
	c-2.589,3.05-3.938,6.58-4.071,10.566c-0.066,1.996,0.22,3.946,0.847,5.857c0.846,2.577,2.244,4.803,4.135,6.719
	c1.128,1.144,2.42,2.09,3.835,2.866c1.82,0.998,3.761,1.647,5.812,1.9c1.21,0.147,2.431,0.195,3.667,0.069
	c1.431-0.146,2.824-0.415,4.162-0.899c2.375-0.859,4.483-2.181,6.248-3.998C40.13,33.896,41.803,29.906,41.826,24.601"/>
<path fill="#D8B528" d="M24.999,15.461c5.291-0.02,9.673,4.126,9.695,9.73c0.021,5.524-4.209,9.639-9.399,9.793
	c-5.641,0.168-9.967-4.363-9.978-9.735C15.306,19.811,19.648,15.417,24.999,15.461"/>
</svg>
