<?xml version="1.0" encoding="utf-8"?>
<!-- Generator: Adobe Illustrator 16.0.0, SVG Export Plug-In . SVG Version: 6.00 Build 0)  -->
<!DOCTYPE svg PUBLIC "-//W3C//DTD SVG 1.1//EN" "http://www.w3.org/Graphics/SVG/1.1/DTD/svg11.dtd" [
	<!ENTITY ns_extend "http://ns.adobe.com/Extensibility/1.0/">
	<!ENTITY ns_ai "http://ns.adobe.com/AdobeIllustrator/10.0/">
	<!ENTITY ns_graphs "http://ns.adobe.com/Graphs/1.0/">
	<!ENTITY ns_vars "http://ns.adobe.com/Variables/1.0/">
	<!ENTITY ns_imrep "http://ns.adobe.com/ImageReplacement/1.0/">
	<!ENTITY ns_sfw "http://ns.adobe.com/SaveForWeb/1.0/">
	<!ENTITY ns_custom "http://ns.adobe.com/GenericCustomNamespace/1.0/">
	<!ENTITY ns_adobe_xpath "http://ns.adobe.com/XPath/1.0/">
]>
<svg version="1.1" id="Layer_1" xmlns:x="&ns_extend;" xmlns:i="&ns_ai;" xmlns:graph="&ns_graphs;"
	 xmlns="http://www.w3.org/2000/svg" xmlns:xlink="http://www.w3.org/1999/xlink" x="0px" y="0px" width="29.412px"
	 height="23.614px" viewBox="0 0 29.412 23.614" enable-background="new 0 0 29.412 23.614" xml:space="preserve">
<metadata>
	<sfw  xmlns="&ns_sfw;">
		<slices></slices>
		<sliceSourceBounds  height="23.614" width="29.412" y="-552.834" x="585.249" bottomLeftOrigin="true"></sliceSourceBounds>
	</sfw>
</metadata>
<path fill="#FFFFFF" d="M29.412,2.761c-1.082,0.478-2.245,0.8-3.47,0.948c1.248-0.74,2.2-1.909,2.649-3.303
	c-1.166,0.688-2.46,1.188-3.837,1.458C23.649,0.712,22.076-0.006,20.337,0c-3.339,0.011-6.037,2.686-6.026,5.972
	c0.002,0.468,0.058,0.919,0.16,1.356C9.446,7.097,4.981,4.741,1.988,1.15C1.472,2.031,1.175,3.055,1.178,4.146
	C1.185,6.21,2.262,8.027,3.886,9.091c-0.99-0.028-1.925-0.293-2.742-0.735c0,0.024,0,0.05,0,0.074
	c0.004,0.762,0.154,1.487,0.422,2.156c0.744,1.862,2.411,3.268,4.449,3.666c-0.508,0.135-1.041,0.212-1.594,0.214
	c-0.388,0.001-0.767-0.035-1.138-0.104c0.779,2.361,3.018,4.075,5.663,4.114C6.881,20.08,4.279,21.04,1.444,21.05
	C0.955,21.052,0.475,21.024,0,20.971c2.684,1.68,5.867,2.655,9.279,2.644c9.452-0.031,15.237-6.6,16.748-13.398
	c0.267-1.201,0.402-2.411,0.398-3.594c-0.001-0.258-0.006-0.516-0.019-0.771C27.585,5.01,28.606,3.958,29.412,2.761"/>
</svg>
