<?xml version="1.0" encoding="utf-8"?>
<!-- Generator: Adobe Illustrator 16.0.0, SVG Export Plug-In . SVG Version: 6.00 Build 0)  -->
<!DOCTYPE svg PUBLIC "-//W3C//DTD SVG 1.1//EN" "http://www.w3.org/Graphics/SVG/1.1/DTD/svg11.dtd" [
	<!ENTITY ns_extend "http://ns.adobe.com/Extensibility/1.0/">
	<!ENTITY ns_ai "http://ns.adobe.com/AdobeIllustrator/10.0/">
	<!ENTITY ns_graphs "http://ns.adobe.com/Graphs/1.0/">
	<!ENTITY ns_vars "http://ns.adobe.com/Variables/1.0/">
	<!ENTITY ns_imrep "http://ns.adobe.com/ImageReplacement/1.0/">
	<!ENTITY ns_sfw "http://ns.adobe.com/SaveForWeb/1.0/">
	<!ENTITY ns_custom "http://ns.adobe.com/GenericCustomNamespace/1.0/">
	<!ENTITY ns_adobe_xpath "http://ns.adobe.com/XPath/1.0/">
]>
<svg version="1.1" id="Layer_1" xmlns:x="&ns_extend;" xmlns:i="&ns_ai;" xmlns:graph="&ns_graphs;"
	 xmlns="http://www.w3.org/2000/svg" xmlns:xlink="http://www.w3.org/1999/xlink" x="0px" y="0px" width="29.325px"
	 height="41.164px" viewBox="0 0 29.325 41.164" enable-background="new 0 0 29.325 41.164" xml:space="preserve">
<metadata>
	<sfw  xmlns="&ns_sfw;">
		<slices></slices>
		<sliceSourceBounds  width="29.325" height="41.164" bottomLeftOrigin="true" x="586.134" y="-561.502"></sliceSourceBounds>
	</sfw>
</metadata>
<g>
	<path fill="#CEA82C" d="M14.67,41.164c-0.748-0.974-1.485-1.91-2.197-2.865c-0.932-1.251-1.864-2.504-2.758-3.781
		c-1.011-1.444-2.014-2.896-2.96-4.384c-1.03-1.62-2.012-3.271-2.978-4.931c-0.921-1.584-1.733-3.227-2.415-4.928
		c-0.368-0.919-0.688-1.862-0.958-2.814c-0.284-1.002-0.445-2.036-0.394-3.085c0.026-0.546,0.088-1.091,0.166-1.633
		c0.074-0.516,0.172-1.03,0.286-1.539C0.712,10.084,1.13,9.026,1.65,8.005c1.099-2.161,2.651-3.931,4.617-5.337
		c1.224-0.875,2.563-1.54,4-1.985c1.022-0.316,2.064-0.56,3.143-0.606C13.856,0.057,14.301-0.002,14.747,0
		c0.877,0.004,1.748,0.101,2.613,0.256c2.254,0.405,4.285,1.311,6.108,2.683c2.027,1.525,3.555,3.454,4.598,5.765
		c0.407,0.901,0.725,1.834,0.933,2.799c0.172,0.793,0.324,1.595,0.313,2.415c-0.01,0.657,0.055,1.323-0.03,1.97
		c-0.099,0.756-0.286,1.506-0.502,2.238c-0.455,1.541-1.102,3.006-1.805,4.449c-1.061,2.181-2.25,4.289-3.567,6.32
		c-1.381,2.132-2.784,4.25-4.253,6.322c-1.382,1.95-2.861,3.832-4.299,5.743C14.808,41.023,14.751,41.076,14.67,41.164z
		 M24.568,14.45c0.042-0.633-0.138-1.611-0.427-2.565c-0.401-1.327-1.059-2.522-1.97-3.574c-1.767-2.038-3.993-3.188-6.675-3.442
		c-0.877-0.083-1.751-0.024-2.62,0.14c-0.791,0.148-1.552,0.382-2.277,0.72C9.282,6.343,8.145,7.201,7.2,8.313
		c-1.521,1.792-2.313,3.865-2.392,6.207c-0.039,1.172,0.13,2.317,0.498,3.44c0.497,1.514,1.318,2.821,2.429,3.947
		c0.663,0.671,1.422,1.228,2.252,1.684c1.069,0.586,2.209,0.968,3.415,1.116c0.71,0.087,1.427,0.115,2.153,0.041
		c0.84-0.086,1.658-0.244,2.444-0.528c1.396-0.505,2.634-1.281,3.671-2.349C23.572,19.91,24.554,17.566,24.568,14.45z"/>
	<path fill="#CEA82C" d="M14.684,9.082c3.107-0.012,5.682,2.423,5.694,5.715c0.013,3.245-2.472,5.662-5.521,5.753
		c-3.313,0.099-5.854-2.563-5.86-5.719C8.99,11.636,11.541,9.055,14.684,9.082z"/>
</g>
</svg>
