<?xml version="1.0" encoding="utf-8"?>
<!-- Generator: Adobe Illustrator 16.0.0, SVG Export Plug-In . SVG Version: 6.00 Build 0)  -->
<!DOCTYPE svg PUBLIC "-//W3C//DTD SVG 1.1//EN" "http://www.w3.org/Graphics/SVG/1.1/DTD/svg11.dtd" [
	<!ENTITY ns_extend "http://ns.adobe.com/Extensibility/1.0/">
	<!ENTITY ns_ai "http://ns.adobe.com/AdobeIllustrator/10.0/">
	<!ENTITY ns_graphs "http://ns.adobe.com/Graphs/1.0/">
	<!ENTITY ns_vars "http://ns.adobe.com/Variables/1.0/">
	<!ENTITY ns_imrep "http://ns.adobe.com/ImageReplacement/1.0/">
	<!ENTITY ns_sfw "http://ns.adobe.com/SaveForWeb/1.0/">
	<!ENTITY ns_custom "http://ns.adobe.com/GenericCustomNamespace/1.0/">
	<!ENTITY ns_adobe_xpath "http://ns.adobe.com/XPath/1.0/">
]>
<svg version="1.1" id="Layer_1" xmlns:x="&ns_extend;" xmlns:i="&ns_ai;" xmlns:graph="&ns_graphs;"
	 xmlns="http://www.w3.org/2000/svg" xmlns:xlink="http://www.w3.org/1999/xlink" x="0px" y="0px" width="95.531px"
	 height="32.646px" viewBox="0 0 95.531 32.646" enable-background="new 0 0 95.531 32.646" xml:space="preserve">
<metadata>
	<sfw  xmlns="&ns_sfw;">
		<slices></slices>
		<sliceSourceBounds  height="32.646" width="95.531" y="-559.642" x="1095.371" bottomLeftOrigin="true"></sliceSourceBounds>
	</sfw>
</metadata>
<text transform="matrix(1 0 0 1 0 19.584)"><tspan x="0" y="0" fill="#FFFFFF" font-family="'BuckwheatTCScript-Regular'" font-size="22.3689">La </tspan><tspan x="23.174" y="0" fill="#FFFFFF" font-family="'BuckwheatTCScript-Regular'" font-size="22.3689">M</tspan><tspan x="41.628" y="0" fill="#FFFFFF" font-family="'BuckwheatTCScript-Regular'" font-size="22.3689">a</tspan><tspan x="50.307" y="0" fill="#FFFFFF" font-family="'BuckwheatTCScript-Regular'" font-size="22.3689">deleine</tspan></text>
<path fill="#FFFFFF" d="M7.855,24.814H5.704c-0.016,0.752-0.017,1.521-0.017,2.295h1.427l0.122-0.864h0.405v2.224H7.236
	l-0.128-0.945H5.688c0,0.855,0.001,1.644,0.017,2.415l0.839,0.097v0.36H4.022v-0.36l0.84-0.097c0.016-0.765,0.016-1.546,0.016-2.334
	v-0.45c0-0.775,0-1.557-0.016-2.334l-0.84-0.097v-0.36h4.475l0.063,1.604H8.056L7.855,24.814z M9.041,30.08l0.661-0.119l0.014-1.456
	v-0.423c0-0.495-0.009-0.774-0.026-1.135l-0.721-0.081v-0.315l1.225-0.539l0.135,0.09l0.104,1.074
	c0.301-0.73,0.809-1.164,1.301-1.164c0.262,0,0.531,0.125,0.64,0.306c0,0.423-0.162,0.657-0.522,0.657
	c-0.207,0-0.378-0.081-0.54-0.217l-0.243-0.207l0.441-0.09c-0.543,0.28-0.864,0.713-1.071,1.375v0.669l0.014,1.438l0.751,0.137
	v0.315h-2.16V30.08z M16.48,27.73c0,0.207-0.027,0.387-0.063,0.504h-3.322v-0.377h2.143c0.433,0,0.531-0.207,0.531-0.46
	c0-0.513-0.432-0.981-0.999-0.981c-0.576,0-1.242,0.486-1.242,1.773c0,1.144,0.576,1.756,1.477,1.756
	c0.576,0,0.936-0.262,1.26-0.639l0.207,0.162c-0.324,0.639-0.9,1.044-1.719,1.044c-1.207,0-1.99-0.837-1.99-2.206
	c0-1.377,0.937-2.295,2.053-2.295C15.742,26.012,16.48,26.642,16.48,27.73z M21.453,27.677v0.828l0.014,1.446l0.644,0.129v0.315
	h-2.07V30.08l0.679-0.123l0.014-1.452v-0.757c0-0.836-0.216-1.106-0.756-1.106c-0.429,0-0.784,0.163-1.26,0.561v1.303l0.014,1.446
	l0.643,0.129v0.315h-2.07V30.08l0.68-0.123l0.014-1.452v-0.423c0-0.495-0.009-0.774-0.027-1.135l-0.72-0.081v-0.315l1.224-0.539
	l0.136,0.09l0.075,0.729c0.43-0.474,1.06-0.819,1.626-0.819C21.084,26.012,21.453,26.488,21.453,27.677z M23.519,28.189
	c0,1.135,0.604,1.756,1.45,1.756c0.521,0,0.98-0.252,1.26-0.702l0.216,0.108c-0.243,0.747-0.819,1.161-1.665,1.161
	c-1.233,0-2.008-0.864-2.008-2.241c0-1.414,0.99-2.26,2.062-2.26c0.802,0,1.468,0.494,1.585,1.16
	c-0.045,0.226-0.181,0.334-0.405,0.334c-0.297,0-0.414-0.18-0.478-0.405l-0.225-0.792l0.414,0.333
	c-0.307-0.162-0.612-0.226-0.864-0.226C24.077,26.416,23.519,27.037,23.519,28.189z M27.646,24.544l-0.747-0.091v-0.314l1.35-0.405
	l0.127,0.072l-0.036,1.278v1.762c0.433-0.481,1.084-0.834,1.656-0.834c0.774,0,1.144,0.477,1.144,1.665v0.828l0.014,1.446
	l0.644,0.129v0.315h-2.071V30.08l0.68-0.123l0.014-1.452v-0.757c0-0.836-0.216-1.106-0.756-1.106c-0.439,0-0.802,0.154-1.297,0.589
	v1.274l0.015,1.448l0.634,0.127v0.315h-2.07V30.08l0.688-0.125l0.015-1.45V24.544z M35.447,27.154c0-0.775,0-1.557-0.016-2.334
	l-0.839-0.097v-0.36h2.593c1.232,0,1.953,0.613,1.953,1.477c0,0.703-0.486,1.324-1.684,1.468v-0.081
	c1.404,0.117,1.98,0.747,1.98,1.521c0,0.819-0.675,1.647-2.377,1.647h-2.466v-0.36l0.839-0.097c0.016-0.765,0.016-1.546,0.016-2.334
	V27.154z M36.258,27.074h0.486c1.107,0,1.584-0.352,1.584-1.18s-0.477-1.117-1.404-1.117h-0.649
	C36.259,25.53,36.258,26.299,36.258,27.074z M36.274,29.981h0.568c1.171,0,1.737-0.441,1.737-1.233c0-0.838-0.549-1.26-1.809-1.26
	h-0.514C36.258,28.385,36.258,29.193,36.274,29.981z M42.79,29.791c-0.497,0.492-0.8,0.722-1.324,0.722
	c-0.657,0-1.206-0.378-1.206-1.126c0-0.504,0.27-0.908,1.477-1.35c0.281-0.102,0.669-0.217,1.035-0.303v-0.22
	c0-0.882-0.252-1.099-0.847-1.099c-0.207,0-0.478,0.027-0.81,0.162l0.359-0.279l-0.234,0.775c-0.08,0.26-0.216,0.404-0.459,0.404
	c-0.242,0-0.387-0.135-0.404-0.359c0.171-0.685,0.837-1.107,1.737-1.107c0.927,0,1.377,0.423,1.377,1.557v1.908
	c0,0.406,0.126,0.55,0.333,0.55c0.153,0,0.252-0.081,0.352-0.198l0.18,0.198c-0.216,0.343-0.459,0.459-0.765,0.459
	C43.165,30.485,42.866,30.22,42.79,29.791z M42.771,28.068c-0.321,0.086-0.652,0.197-0.847,0.274c-0.81,0.315-0.9,0.657-0.9,0.919
	c0,0.477,0.315,0.666,0.729,0.666c0.307,0,0.485-0.111,1.018-0.49V28.068z M48.329,29.9l0.99,0.18v0.315h-1.188l-1.405-2.239
	l-0.61,0.627l0.016,1.168l0.731,0.129v0.315h-2.215V30.08l0.731-0.129l0.016-1.446v-3.961l-0.747-0.091v-0.314l1.377-0.405
	l0.126,0.072l-0.035,1.278v3.17l1.546-1.615l-0.664-0.168v-0.342h2.089v0.342L48.239,26.6l-1.007,1.035l1.673,2.617L48.329,29.9z
	 M53.275,27.73c0,0.207-0.027,0.387-0.063,0.504h-3.322v-0.377h2.143c0.432,0,0.531-0.207,0.531-0.46
	c0-0.513-0.433-0.981-0.999-0.981c-0.576,0-1.243,0.486-1.243,1.773c0,1.144,0.576,1.756,1.477,1.756
	c0.576,0,0.937-0.262,1.261-0.639l0.207,0.162c-0.324,0.639-0.9,1.044-1.72,1.044c-1.206,0-1.989-0.837-1.989-2.206
	c0-1.377,0.937-2.295,2.053-2.295C52.537,26.012,53.275,26.642,53.275,27.73z M54.116,30.08l0.661-0.119l0.015-1.456v-0.423
	c0-0.495-0.009-0.774-0.027-1.135l-0.72-0.081v-0.315l1.224-0.539l0.136,0.09l0.103,1.074c0.301-0.73,0.809-1.164,1.302-1.164
	c0.261,0,0.531,0.125,0.639,0.306c0,0.423-0.162,0.657-0.521,0.657c-0.207,0-0.379-0.081-0.541-0.217l-0.242-0.207l0.44-0.09
	c-0.542,0.28-0.864,0.713-1.071,1.375v0.669l0.014,1.438l0.752,0.137v0.315h-2.161V30.08z M57.604,32.052
	c0.063-0.252,0.324-0.378,0.594-0.378c0.234,0,0.414,0.09,0.657,0.333l0.279,0.279l-0.351,0.198l-0.243-0.198
	c0.603-0.298,0.963-0.919,1.188-1.548l0.04-0.113l-1.632-4.105l-0.497-0.076v-0.314h2.143v0.323l-0.81,0.095l1.145,3.104
	l1.121-3.094l-0.799-0.113v-0.314h1.765v0.314l-0.483,0.104l-1.443,3.795c-0.612,1.62-1.116,2.305-1.854,2.305
	C57.981,32.646,57.604,32.403,57.604,32.052z M70.375,30.045l-0.036,0.377c-0.262,0.063-0.441,0.091-0.676,0.091
	c-0.468,0-0.747-0.108-1.035-0.414l-0.324-0.36c-0.392,0.438-0.976,0.774-1.837,0.774c-1.125,0-1.908-0.729-1.908-1.647
	c0-0.811,0.471-1.423,1.362-1.873l-0.039-0.045c-0.45-0.513-0.621-0.973-0.621-1.449c0-0.783,0.621-1.27,1.459-1.27
	c0.882,0,1.359,0.478,1.359,1.152c0,0.619-0.412,1.067-1.338,1.568l0.726,0.799l1.048,1.132c0.343-0.556,0.597-1.153,0.764-1.874
	l-0.714-0.112v-0.36h1.819v0.36l-0.694,0.12c-0.203,0.828-0.519,1.498-0.934,2.125l0.747,0.798L70.375,30.045z M66.139,27.246
	c-0.652,0.381-0.824,0.936-0.824,1.385c0,0.657,0.486,1.314,1.369,1.314c0.516,0,1.02-0.182,1.365-0.492l-0.924-1.038L66.139,27.246
	z M67.503,25.398c0-0.531-0.343-0.854-0.792-0.854c-0.46,0-0.829,0.36-0.829,0.847c0,0.323,0.072,0.603,0.405,1.025l0.246,0.295
	C67.101,26.328,67.503,25.928,67.503,25.398z M78.024,29.504V30l-0.558,0.125l0.225-1.332h0.549l-0.036,1.306
	c-0.566,0.306-1.188,0.433-1.818,0.433c-1.818,0-3.043-1.314-3.043-3.152c0-1.8,1.278-3.15,3.034-3.15
	c0.486,0,1.125,0.081,1.737,0.432l0.036,1.307h-0.549l-0.226-1.333l0.559,0.126v0.549c-0.514-0.477-1.018-0.63-1.449-0.63
	c-1.216,0-2.197,0.945-2.197,2.7c0,1.756,0.883,2.701,2.134,2.701C76.936,30.08,77.512,29.928,78.024,29.504z M81.55,29.791
	c-0.497,0.492-0.8,0.722-1.324,0.722c-0.657,0-1.206-0.378-1.206-1.126c0-0.504,0.27-0.908,1.477-1.35
	c0.281-0.102,0.669-0.217,1.035-0.303v-0.22c0-0.882-0.252-1.099-0.847-1.099c-0.207,0-0.478,0.027-0.811,0.162l0.36-0.279
	L80,27.074c-0.08,0.26-0.216,0.404-0.459,0.404s-0.387-0.135-0.405-0.359c0.171-0.685,0.838-1.107,1.738-1.107
	c0.927,0,1.377,0.423,1.377,1.557v1.908c0,0.406,0.126,0.55,0.333,0.55c0.153,0,0.252-0.081,0.352-0.198l0.18,0.198
	c-0.216,0.343-0.459,0.459-0.766,0.459C81.925,30.485,81.625,30.22,81.55,29.791z M81.531,28.068
	c-0.321,0.086-0.652,0.197-0.847,0.274c-0.811,0.315-0.9,0.657-0.9,0.919c0,0.477,0.315,0.666,0.729,0.666
	c0.307,0,0.485-0.111,1.018-0.49V28.068z M84.253,26.596h-0.756v-0.387l1.018-0.135l-0.262,0.135
	c0.091-1.035,0.234-1.584,0.64-2.016c0.387-0.424,0.846-0.55,1.251-0.55c0.423,0,0.766,0.135,0.855,0.478
	c-0.019,0.225-0.216,0.396-0.54,0.396c-0.226,0-0.423-0.09-0.64-0.252l-0.44-0.333l0.756-0.18l0.207,0.27
	c-0.099-0.054-0.243-0.107-0.352-0.107c-0.27,0-0.576,0.197-0.747,0.504c-0.184,0.319-0.311,0.83-0.286,1.711h1.259v0.467h-1.242
	v1.909l0.016,1.442l0.821,0.133v0.315h-2.305V30.08l0.731-0.129l0.016-1.446V26.596z M90.368,27.73c0,0.207-0.026,0.387-0.063,0.504
	h-3.322v-0.377h2.143c0.433,0,0.531-0.207,0.531-0.46c0-0.513-0.433-0.981-0.999-0.981c-0.576,0-1.242,0.486-1.242,1.773
	c0,1.144,0.576,1.756,1.476,1.756c0.576,0,0.937-0.262,1.261-0.639l0.207,0.162c-0.324,0.639-0.9,1.044-1.72,1.044
	c-1.206,0-1.989-0.837-1.989-2.206c0-1.377,0.937-2.295,2.053-2.295C89.63,26.012,90.368,26.642,90.368,27.73z"/>
</svg>
