<?xml version="1.0" encoding="utf-8"?>
<!-- Generator: Adobe Illustrator 16.0.0, SVG Export Plug-In . SVG Version: 6.00 Build 0)  -->
<!DOCTYPE svg PUBLIC "-//W3C//DTD SVG 1.1//EN" "http://www.w3.org/Graphics/SVG/1.1/DTD/svg11.dtd" [
	<!ENTITY ns_extend "http://ns.adobe.com/Extensibility/1.0/">
	<!ENTITY ns_ai "http://ns.adobe.com/AdobeIllustrator/10.0/">
	<!ENTITY ns_graphs "http://ns.adobe.com/Graphs/1.0/">
	<!ENTITY ns_vars "http://ns.adobe.com/Variables/1.0/">
	<!ENTITY ns_imrep "http://ns.adobe.com/ImageReplacement/1.0/">
	<!ENTITY ns_sfw "http://ns.adobe.com/SaveForWeb/1.0/">
	<!ENTITY ns_custom "http://ns.adobe.com/GenericCustomNamespace/1.0/">
	<!ENTITY ns_adobe_xpath "http://ns.adobe.com/XPath/1.0/">
]>
<svg version="1.1" id="Layer_1" xmlns:x="&ns_extend;" xmlns:i="&ns_ai;" xmlns:graph="&ns_graphs;"
	 xmlns="http://www.w3.org/2000/svg" xmlns:xlink="http://www.w3.org/1999/xlink" x="0px" y="0px" width="89.454px"
	 height="29.805px" viewBox="0 0 89.454 29.805" enable-background="new 0 0 89.454 29.805" xml:space="preserve">
<metadata>
	<sfw  xmlns="&ns_sfw;">
		<slices></slices>
		<sliceSourceBounds  height="29.805" width="89.454" y="-555.621" x="556.104" bottomLeftOrigin="true"></sliceSourceBounds>
	</sfw>
</metadata>
<path fill="#FFFFFF" d="M89.454,25.416c0,2.418-1.897,4.378-4.237,4.378L4.711,29.805c-2.34,0-4.237-1.959-4.238-4.375
	c0-2.417,1.896-4.377,4.237-4.377l80.506-0.013C87.556,21.041,89.453,23,89.454,25.416"/>
<path fill="#FF671B" d="M5.083,27.51c-0.008,0-0.017-0.022-0.02-0.028c-0.03-0.069-0.052-0.115-0.102-0.166
	c-0.034-0.034-0.064-0.068-0.096-0.104c-0.147-0.169-0.191-0.39-0.138-0.604c0.017-0.066,0.036-0.131,0.054-0.193
	c0.026-0.09,0.052-0.178,0.064-0.27c0.005-0.041,0.007-0.084,0.006-0.125c0-0.025-0.063-0.021-0.069,0.004
	c-0.009,0.041-0.019,0.08-0.028,0.121c-0.026,0.096-0.058,0.186-0.104,0.27c-0.038,0.068-0.087,0.132-0.15,0.188
	c-0.121,0.104-0.298,0.155-0.446,0.074c-0.24-0.132-0.198-0.429-0.028-0.531c0.015-0.009,0.032-0.015,0.052-0.017
	c-0.001,0.007-0.001,0.011,0,0.017c-0.001,0.068,0.009,0.14,0.071,0.18c0.074,0.048,0.181,0.043,0.252-0.02
	c0.041-0.037,0.075-0.102,0.099-0.16c0.021-0.055,0.032-0.104,0.028-0.125c-0.006-0.031-0.114-0.002-0.166-0.039
	c-0.034-0.024-0.049-0.064-0.042-0.104c0.002-0.015,0.008-0.03,0.019-0.045c0.049-0.077,0.178-0.024,0.189-0.067
	c0.005-0.017-0.007-0.084-0.041-0.156c-0.048-0.102-0.138-0.217-0.287-0.236c-0.075-0.01-0.146,0.008-0.206,0.056
	c-0.06,0.05-0.092,0.106-0.095,0.181c0,0.027,0.003,0.058,0.01,0.09c-0.045,0.029-0.208-0.016-0.311-0.092
	c-0.004-0.004,0.004,0.002,0,0c-0.083-0.069-0.155-0.164-0.187-0.268c-0.01-0.029-0.016-0.063-0.02-0.094
	c-0.026-0.234,0.092-0.471,0.307-0.57c0.115-0.054,0.24-0.078,0.371-0.054c0.14,0.024,0.253,0.092,0.354,0.187
	c0.148,0.139,0.219,0.323,0.291,0.508c0.004,0.008,0.006,0.015,0.009,0.023c0.031,0.086,0.048,0.182,0.059,0.27
	c0.008,0.058,0.015,0.111,0.02,0.156c0.002,0.019,0.062,0.012,0.062-0.007c0.001-0.05-0.001-0.1-0.007-0.149
	c-0.01-0.092-0.029-0.182-0.055-0.271c-0.061-0.209-0.156-0.411-0.241-0.612c-0.055-0.133-0.091-0.271-0.089-0.414
	c0.001-0.127,0.049-0.242,0.109-0.354c0.078-0.146,0.216-0.229,0.318-0.357c0.094-0.117,0.131-0.254,0.163-0.398
	c0.001-0.008,0.013-0.016,0.021-0.016c0.006,0,0.018,0.008,0.02,0.016c0.032,0.145,0.069,0.281,0.162,0.398
	c0.103,0.129,0.24,0.211,0.319,0.357c0.06,0.111,0.107,0.227,0.109,0.354c0.001,0.143-0.035,0.281-0.09,0.414
	c-0.085,0.201-0.18,0.403-0.24,0.613c-0.024,0.088-0.045,0.178-0.055,0.27c-0.005,0.05-0.009,0.099-0.007,0.149
	c0.001,0.021,0.06,0.025,0.063,0.007c0.004-0.045,0.01-0.099,0.018-0.156c0.012-0.088,0.029-0.184,0.06-0.271
	c0.003-0.008,0.005-0.015,0.008-0.021c0.072-0.187,0.144-0.371,0.291-0.51c0.103-0.095,0.216-0.16,0.355-0.188
	c0.131-0.025,0.255,0,0.37,0.055c0.216,0.098,0.334,0.335,0.308,0.57c-0.004,0.031-0.01,0.064-0.02,0.094
	c-0.031,0.102-0.103,0.198-0.188,0.266c-0.004,0.004,0.006-0.002,0,0c-0.102,0.078-0.265,0.121-0.31,0.094
	c0.007-0.033,0.011-0.063,0.01-0.09c-0.003-0.075-0.035-0.133-0.095-0.181s-0.132-0.063-0.206-0.056
	c-0.149,0.02-0.239,0.134-0.287,0.236c-0.034,0.072-0.045,0.139-0.04,0.156c0.01,0.043,0.139-0.011,0.188,0.066
	c0.01,0.014,0.016,0.031,0.019,0.046c0.007,0.039-0.008,0.08-0.042,0.104c-0.052,0.035-0.16,0.008-0.166,0.039
	c-0.004,0.021,0.007,0.07,0.029,0.125c0.022,0.059,0.058,0.123,0.099,0.16c0.07,0.063,0.176,0.067,0.251,0.02
	c0.063-0.04,0.073-0.112,0.072-0.18c0-0.006-0.001-0.012-0.001-0.017c0.02,0.002,0.037,0.008,0.052,0.017
	c0.169,0.102,0.213,0.399-0.028,0.531c-0.148,0.081-0.325,0.031-0.446-0.074c-0.063-0.056-0.111-0.119-0.15-0.188
	c-0.047-0.083-0.078-0.176-0.104-0.27c-0.011-0.041-0.021-0.08-0.029-0.123c-0.005-0.023-0.069-0.026-0.07-0.002
	c0,0.041,0.002,0.084,0.008,0.125c0.012,0.092,0.037,0.18,0.063,0.27c0.019,0.064,0.038,0.127,0.054,0.191
	c0.054,0.219,0.01,0.438-0.138,0.606c-0.031,0.036-0.061,0.071-0.095,0.104c-0.051,0.05-0.072,0.096-0.103,0.168
	C5.1,27.488,5.091,27.51,5.083,27.51"/>
<path fill="#FF671B" d="M84.628,27.499c-0.007,0-0.016-0.022-0.018-0.026c-0.031-0.071-0.055-0.117-0.104-0.168
	c-0.035-0.034-0.063-0.067-0.096-0.104c-0.148-0.169-0.191-0.388-0.137-0.604c0.016-0.066,0.035-0.129,0.054-0.193
	c0.027-0.09,0.051-0.178,0.062-0.27c0.007-0.041,0.01-0.082,0.009-0.127c0-0.022-0.063-0.02-0.069,0.004
	c-0.009,0.043-0.02,0.082-0.03,0.123c-0.024,0.094-0.057,0.187-0.103,0.27c-0.039,0.068-0.087,0.132-0.151,0.188
	c-0.121,0.104-0.298,0.155-0.446,0.073c-0.239-0.13-0.196-0.428-0.028-0.53c0.016-0.009,0.033-0.015,0.052-0.016l0.001,0.016
	c-0.002,0.068,0.008,0.14,0.07,0.18c0.076,0.049,0.182,0.043,0.252-0.02c0.041-0.037,0.076-0.101,0.099-0.16
	c0.022-0.055,0.032-0.104,0.029-0.125c-0.006-0.029-0.116-0.004-0.167-0.039c-0.034-0.024-0.049-0.064-0.042-0.104
	c0.004-0.015,0.009-0.03,0.018-0.045c0.051-0.078,0.18-0.024,0.191-0.067c0.005-0.018-0.007-0.084-0.042-0.156
	c-0.047-0.102-0.137-0.217-0.286-0.236c-0.075-0.008-0.146,0.008-0.207,0.056c-0.059,0.048-0.092,0.106-0.093,0.181
	c-0.002,0.027,0.002,0.058,0.009,0.09c-0.045,0.029-0.207-0.016-0.311-0.092c-0.004-0.004,0.004,0.002,0,0
	c-0.084-0.069-0.155-0.166-0.188-0.268c-0.01-0.029-0.016-0.063-0.019-0.094c-0.027-0.234,0.092-0.471,0.307-0.57
	c0.116-0.055,0.24-0.078,0.371-0.055c0.139,0.027,0.253,0.093,0.354,0.188c0.148,0.139,0.219,0.323,0.29,0.508
	c0.003,0.008,0.007,0.015,0.01,0.023c0.029,0.087,0.048,0.182,0.06,0.27c0.008,0.058,0.013,0.111,0.018,0.156
	c0.002,0.019,0.063,0.012,0.063-0.007c0-0.05-0.002-0.1-0.008-0.149c-0.01-0.092-0.029-0.182-0.055-0.27
	c-0.061-0.209-0.155-0.412-0.24-0.613c-0.055-0.133-0.092-0.271-0.088-0.414c0-0.127,0.048-0.242,0.107-0.354
	c0.079-0.146,0.215-0.229,0.319-0.357c0.093-0.117,0.131-0.252,0.162-0.398c0.002-0.008,0.014-0.016,0.02-0.016
	s0.02,0.008,0.021,0.016c0.032,0.146,0.069,0.281,0.162,0.398c0.104,0.129,0.241,0.211,0.318,0.357
	c0.063,0.111,0.109,0.227,0.11,0.354c0.002,0.143-0.034,0.281-0.089,0.412c-0.085,0.202-0.181,0.406-0.24,0.615
	c-0.026,0.088-0.046,0.178-0.056,0.27c-0.005,0.049-0.008,0.099-0.007,0.149c0,0.021,0.061,0.025,0.063,0.007
	c0.005-0.045,0.011-0.099,0.018-0.156c0.012-0.088,0.03-0.183,0.06-0.27c0.003-0.009,0.007-0.016,0.01-0.023
	c0.071-0.185,0.141-0.369,0.29-0.508c0.101-0.095,0.215-0.16,0.354-0.188c0.132-0.025,0.257,0,0.372,0.055
	c0.216,0.1,0.332,0.335,0.308,0.57c-0.005,0.031-0.012,0.064-0.021,0.094c-0.03,0.102-0.103,0.197-0.187,0.266
	c-0.004,0.002,0.004-0.002,0,0c-0.104,0.078-0.266,0.123-0.312,0.094c0.009-0.033,0.011-0.063,0.011-0.09
	c-0.002-0.074-0.034-0.133-0.095-0.182c-0.059-0.047-0.132-0.063-0.206-0.055c-0.149,0.02-0.239,0.135-0.285,0.236
	c-0.035,0.072-0.048,0.139-0.043,0.156c0.013,0.043,0.142-0.011,0.19,0.067c0.01,0.015,0.015,0.03,0.019,0.044
	c0.007,0.04-0.008,0.08-0.043,0.105c-0.052,0.035-0.159,0.01-0.166,0.039c-0.003,0.021,0.008,0.07,0.029,0.125
	c0.022,0.059,0.058,0.121,0.1,0.16c0.069,0.063,0.177,0.067,0.251,0.02c0.063-0.041,0.072-0.112,0.071-0.18
	c0-0.006,0-0.01-0.001-0.017c0.02,0.002,0.037,0.008,0.052,0.017c0.17,0.102,0.213,0.4-0.027,0.53
	c-0.148,0.082-0.325,0.031-0.447-0.073c-0.063-0.056-0.111-0.119-0.15-0.188c-0.045-0.084-0.077-0.176-0.103-0.27
	c-0.011-0.041-0.02-0.08-0.031-0.121c-0.005-0.024-0.066-0.028-0.067-0.004c-0.002,0.043,0.001,0.084,0.006,0.125
	c0.012,0.092,0.038,0.18,0.063,0.269c0.02,0.065,0.038,0.128,0.055,0.194c0.054,0.217,0.01,0.436-0.139,0.604
	c-0.03,0.036-0.061,0.07-0.095,0.104c-0.05,0.051-0.072,0.097-0.102,0.168C84.645,27.476,84.635,27.499,84.628,27.499"/>
<path fill="#1B1919" d="M8.332,27.167V26.63h0.303c0.168,0.002,0.242-0.084,0.242-0.25V24.36c0-0.168-0.074-0.247-0.242-0.246
	l-0.303-0.001v-0.536l2.405-0.001v0.536l-0.367,0.001c-0.168-0.001-0.243,0.079-0.243,0.247v2.019
	c0.001,0.229,0.042,0.252,0.317,0.252h0.326c0.374,0,0.654-0.228,0.653-0.765v-0.321h0.62l0.001,1.623H8.332z"/>
<path fill="#1B1919" d="M14.657,27.228c-1.231,0-1.973-0.766-1.973-1.875c0-1.105,0.74-1.856,1.972-1.856s1.973,0.75,1.973,1.854
	C16.629,26.462,15.888,27.228,14.657,27.228 M14.656,24.083c-0.443,0-0.582,0.252-0.583,1.27c0.001,1.021,0.141,1.291,0.584,1.291
	s0.578-0.271,0.578-1.291C15.234,24.335,15.1,24.083,14.656,24.083"/>
<path fill="#1B1919" d="M21.099,24.111c-0.168,0-0.247,0.131-0.247,0.299v1.26c0,1.152-0.62,1.539-1.609,1.539
	c-1.095,0-1.781-0.295-1.782-1.474v-1.372c0-0.168-0.064-0.252-0.252-0.252h-0.14v-0.535h2.122v0.535h-0.242
	c-0.168,0-0.247,0.09-0.247,0.258v1.506c0,0.484,0.308,0.662,0.789,0.662c0.452,0,0.708-0.261,0.708-0.681v-1.45
	c0-0.168-0.079-0.295-0.252-0.295h-0.214v-0.535l1.581-0.002v0.537H21.099z"/>
<path fill="#1B1919" d="M22.005,27.166v-0.536l0.345,0.001c0.168-0.001,0.201-0.038,0.2-0.211l-0.001-2.02
	c0.001-0.168-0.074-0.289-0.242-0.289h-0.303v-0.537h2.319v0.537h-0.309c-0.169,0-0.195,0.078-0.195,0.246v2.021
	c0,0.168,0.074,0.252,0.241,0.252l0.263-0.001v0.537H22.005z"/>
<path fill="#1B1919" d="M27.084,27.207c-0.578,0-0.924-0.182-1.119-0.182c-0.094,0-0.141,0.09-0.14,0.14h-0.509v-1.37h0.573v0.102
	c0,0.505,0.41,0.719,0.925,0.719c0.471,0,0.708-0.131,0.708-0.354c0.001-0.201-0.107-0.295-0.62-0.407l-0.765-0.163
	c-0.48-0.102-0.849-0.447-0.846-1.012c0.005-0.801,0.733-1.166,1.548-1.166c0.527,0,0.71,0.178,0.863,0.178
	c0.141-0.001,0.173-0.057,0.178-0.131h0.541v1.259h-0.601v-0.116c-0.001-0.415-0.336-0.615-0.784-0.615
	c-0.383,0-0.634,0.051-0.634,0.271c0,0.159,0.084,0.256,0.499,0.351l0.793,0.18c0.508,0.117,0.918,0.397,0.914,1.013
	C28.604,26.88,27.834,27.207,27.084,27.207"/>
<path fill="#1B1919" d="M29.234,27.165v-0.536h0.345c0.17,0,0.201-0.037,0.2-0.211v-2.019c0.001-0.168-0.073-0.289-0.241-0.288
	l-0.304-0.001v-0.536h2.318v0.535l-0.308,0.001c-0.169,0-0.195,0.079-0.196,0.246l0.001,2.021c0,0.168,0.074,0.252,0.242,0.252
	h0.261v0.536H29.234z"/>
<path fill="#1B1919" d="M34.306,27.164v-0.536h0.382c0.153,0,0.21-0.103,0.164-0.228l-0.085-0.238h-1.306l-0.079,0.215
	c-0.065,0.177,0.004,0.252,0.187,0.251h0.299v0.536l-1.666,0.002v-0.537l0.098-0.001c0.145,0.001,0.305-0.046,0.364-0.2l1.133-2.855
	h1.208l1.098,2.795c0.063,0.158,0.163,0.261,0.335,0.261h0.131v0.536H34.306z M34.127,24.458l-0.461,1.186h0.9L34.127,24.458z"/>
<path fill="#1B1919" d="M41.507,24.108c-0.168,0-0.247,0.079-0.247,0.247v2.809h-1.179l-1.644-2.291l0.001,1.504
	c0,0.166,0.079,0.252,0.247,0.25h0.313v0.537h-1.791v-0.537h0.303c0.168,0,0.248-0.084,0.248-0.25l-0.001-1.979
	c0-0.168-0.079-0.29-0.247-0.29h-0.303l-0.001-0.536h1.759l1.596,2.234l-0.001-1.45c0-0.169-0.074-0.248-0.242-0.248H40.01v-0.536
	h1.791v0.536H41.507z"/>
<path fill="#1B1919" d="M44.208,27.162v-0.536l0.383,0.001c0.153,0,0.211-0.104,0.163-0.229L44.67,26.16h-1.306l-0.079,0.215
	c-0.065,0.178,0.005,0.252,0.188,0.251h0.298v0.538h-1.666v-0.537h0.099c0.145,0,0.304-0.047,0.363-0.2l1.133-2.854h1.208
	l1.097,2.793c0.065,0.158,0.163,0.261,0.337,0.261h0.13v0.536H44.208z M44.031,24.457l-0.462,1.186h0.9L44.031,24.457z"/>
<path fill="#1B1919" d="M51.374,27.162v-0.537h0.209c0.122,0,0.211-0.051,0.211-0.14c0-0.06-0.028-0.131-0.079-0.205l-0.473-0.667
	l-0.456,0.405v0.364c0,0.168,0.023,0.242,0.191,0.242h0.224L51.2,27.161l-2.195,0.001l-0.002-0.535l0.305-0.002
	c0.168,0.002,0.243-0.084,0.242-0.252v-2.019c0.001-0.168-0.075-0.247-0.242-0.247h-0.303v-0.536l2.312-0.001v0.537h-0.34
	c-0.167,0-0.19,0.079-0.19,0.247V25.3l0.992-0.885c0.07-0.062,0.104-0.109,0.104-0.193c0-0.064-0.061-0.115-0.131-0.116h-0.209
	V23.57h1.972v0.537l-0.358-0.001c-0.145,0.001-0.289,0.08-0.426,0.202l-0.642,0.568l1.113,1.553
	c0.112,0.158,0.159,0.195,0.271,0.195h0.243v0.536L51.374,27.162z"/>
<path fill="#1B1919" d="M54.542,27.161v-0.536h0.345c0.168,0,0.2-0.037,0.2-0.211v-2.019c0-0.168-0.074-0.289-0.243-0.288
	l-0.304-0.001l0.002-0.536l2.317-0.001l-0.001,0.537h-0.308c-0.167,0-0.195,0.079-0.195,0.247v2.02c0,0.168,0.075,0.252,0.243,0.252
	h0.261v0.536H54.542z"/>
<path fill="#1B1919" d="M61.021,25.131v-0.448c0-0.377-0.159-0.601-0.536-0.602l-0.169,0.001v2.243
	c0.001,0.172,0.127,0.299,0.295,0.299h0.4v0.536h-2.648v-0.536h0.404c0.17,0,0.291-0.127,0.291-0.3l-0.002-2.243h-0.167
	c-0.379,0.001-0.536,0.225-0.536,0.602v0.448h-0.606V23.57l3.88-0.002v1.563H61.021z"/>
<path fill="#1B1919" d="M64.034,27.22c-1.213,0-1.918-0.76-1.918-1.865c0.001-1.18,0.779-1.866,1.903-1.865
	c0.401,0,0.676,0.116,0.778,0.152c0.09,0.033,0.103-0.008,0.163-0.152l0.583-0.001l0.002,1.441h-0.64v-0.136
	c-0.001-0.424-0.192-0.699-0.635-0.698c-0.532,0-0.742,0.413-0.741,1.235c0,0.942,0.215,1.306,0.788,1.306
	c0.49,0,0.644-0.29,0.671-0.794l0.01-0.176h0.625v0.172C65.624,26.552,65.209,27.22,64.034,27.22"/>
<path fill="#1B1919" d="M68.909,27.158v-0.535h0.199c0.168,0,0.243-0.084,0.243-0.253v-0.759h-1.073v0.76
	c0,0.168,0.075,0.252,0.243,0.252h0.2v0.535h-2.238v-0.534l0.303-0.001c0.168,0,0.242-0.084,0.242-0.251v-2.021
	c0-0.168-0.074-0.246-0.242-0.246l-0.303-0.002l-0.001-0.535h2.239v0.535h-0.201c-0.167,0.002-0.242,0.08-0.242,0.248v0.695h1.073
	l-0.001-0.695c0.001-0.168-0.074-0.248-0.242-0.248h-0.201v-0.535h2.234v0.535l-0.302,0.002c-0.169-0.002-0.239,0.078-0.239,0.246
	l0.002,2.019c-0.001,0.168,0.069,0.253,0.237,0.253h0.303v0.535H68.909z"/>
<path fill="#1B1919" d="M72.021,27.158v-0.535h0.302c0.169,0,0.244-0.038,0.244-0.211l-0.001-2.107
	c0.001-0.168-0.074-0.201-0.243-0.201H72.02v-0.535l3.741-0.002v1.457l-0.602-0.002v-0.238c0-0.467-0.246-0.68-0.625-0.68h-0.485
	c-0.168,0-0.247,0.033-0.247,0.201v0.764l0.261,0.002c0.15-0.002,0.211-0.094,0.21-0.248v-0.299h0.541l0.001,1.697h-0.541v-0.382
	c0-0.149-0.075-0.239-0.225-0.239l-0.247,0.002l0.001,0.811c-0.001,0.173,0.055,0.21,0.223,0.21h0.447
	c0.454,0,0.729-0.158,0.728-0.746l0.002-0.229l0.6,0.002l0.001,1.51H72.021z"/>
<path fill="#1B1919" d="M81.027,24.102c-0.168,0-0.247,0.079-0.248,0.248l0.001,2.808h-1.18l-1.643-2.291v1.502
	c0.001,0.168,0.08,0.254,0.247,0.252h0.313v0.537h-1.791v-0.535l0.304-0.002c0.167,0.002,0.247-0.084,0.247-0.252l-0.001-1.976
	c0-0.169-0.079-0.291-0.247-0.29h-0.303v-0.537h1.758l1.596,2.233L80.08,24.35c0.001-0.169-0.075-0.248-0.242-0.248H79.53v-0.536
	h1.79v0.536H81.027z"/>
<path fill="#FFFFFF" d="M66.596,2.7c0,3.678-1.923,6.804-4.604,7.944l0.003,0.035v5.865h-4.46v-5.849l-0.009-0.039
	c-2.692-1.133-4.629-4.266-4.629-7.955V0.86h4.542l0.04-0.002l0.001,3.341c0,1.517,1.002,2.746,2.239,2.747
	c1.235-0.001,2.237-1.231,2.236-2.748V0.842h4.639L66.596,2.7z"/>
<path fill="#FFFFFF" d="M14.417,7.699C14.407,3.461,17.198,0.012,20.642,0c3.439-0.004,6.246,3.425,6.264,7.667
	c0.008,4.232-2.776,7.68-6.224,7.686C17.233,15.369,14.427,11.932,14.417,7.699 M19.828,11.751c1.451,0,2.617-1.365,2.617-3.028
	c0.009-1.669-1.182-3.013-2.626-3.016C18.36,5.71,17.2,7.074,17.202,8.74C17.203,10.408,18.379,11.755,19.828,11.751"/>
<path fill="#FFFFFF" d="M78.486,13.234c0.823,0.674,2.629,1.996,4.423,2.295c2.444,0.395,5.709-0.875,6.069-3.114
	c0.878-5.353-5.639-5.022-5.156-7.933c0,0,0.187-1.546,1.959-1.247c1.4,0.219,3.251,1.716,3.251,1.716l0.018-3.796
	c-0.503-0.29-1.419-0.675-2.991-0.935c-2.819-0.457-6.649,0.237-7.112,3.098c-0.654,4.016,4.885,4.157,4.481,6.622
	c0,0-0.221,1.5-2.123,1.189c-1.267-0.208-2.789-1.316-2.789-1.316L78.486,13.234z"/>
<path fill="#FFFFFF" d="M5.819,12.263v4.26H1.42L1.418,5.58H0.001L0,0.999L0.399,1L1.759,1c4.101,0.022,12.052,0.321,12.029,6.512
	c-0.026,4.959-7.91,4.737-7.91,4.737L5.819,12.263z M5.89,9.068c0,0,2.832,0.186,2.841-1.615c0.008-2.061-2.819-1.841-2.819-1.841
	H5.886l0.001,3.45L5.89,9.068z"/>
<path fill="#FFFFFF" d="M33.063,12.261v4.258h-4.4L28.661,5.576h-1.416l-0.002-4.581l0.4,0.002l1.36-0.002
	c4.1,0.023,12.051,0.322,12.027,6.513c-0.024,4.959-7.909,4.737-7.909,4.737L33.063,12.261z M33.134,9.064
	c0,0,2.832,0.186,2.841-1.616c0.007-2.06-2.82-1.84-2.82-1.84h-0.023v3.45L33.134,9.064z"/>
<path fill="#FFFFFF" d="M50.733,9.003c0,0-0.344-2.621-2.794-2.571c-2.044,0.042-2.386,2.579-2.386,2.579L50.733,9.003z
	 M52.835,15.411c-1.169,1.702-3.241,3.181-5.194,3.181c-3.515,0.002-6.364-3.5-6.365-7.819c0.001-4.319,2.853-7.971,6.363-7.821
	c4.669,0.199,6.169,3.498,5.907,8.936l-8.199,0.01c0,0,0.238,5.174,6.361,1.828L52.835,15.411z"/>
<path fill="#FFFFFF" d="M75.045,9.001c0,0-0.343-2.622-2.793-2.573c-2.045,0.042-2.386,2.579-2.386,2.579L75.045,9.001z
	 M77.146,15.408c-1.167,1.701-3.239,3.182-5.192,3.182c-3.515,0-6.364-3.501-6.365-7.82c0-4.319,2.853-7.972,6.362-7.822
	c4.669,0.199,6.17,3.498,5.908,8.935l-8.2,0.01c0,0,0.239,5.174,6.362,1.828L77.146,15.408z"/>
<path fill="#FFFFFF" d="M88.141,15.924h-0.187v0.278h0.173c0.161,0,0.221-0.039,0.221-0.146
	C88.348,15.965,88.286,15.925,88.141,15.924 M88.345,16.74l-0.246-0.404h-0.145v0.404h-0.158v-0.947h0.359
	c0.239,0,0.348,0.087,0.348,0.275c0,0.153-0.075,0.23-0.249,0.256l0.267,0.416H88.345z M88.12,15.508
	c-0.41,0-0.743,0.333-0.743,0.743s0.334,0.742,0.743,0.742c0.41,0,0.742-0.334,0.742-0.744C88.862,15.84,88.53,15.507,88.12,15.508
	 M88.12,17.107c-0.475,0-0.856-0.382-0.857-0.855c0.001-0.475,0.383-0.857,0.857-0.857c0.474,0,0.856,0.383,0.856,0.857
	C88.976,16.724,88.594,17.107,88.12,17.107"/>
</svg>
