<?xml version="1.0" encoding="utf-8"?>
<!-- Generator: Adobe Illustrator 16.0.0, SVG Export Plug-In . SVG Version: 6.00 Build 0)  -->
<!DOCTYPE svg PUBLIC "-//W3C//DTD SVG 1.1//EN" "http://www.w3.org/Graphics/SVG/1.1/DTD/svg11.dtd" [
	<!ENTITY ns_extend "http://ns.adobe.com/Extensibility/1.0/">
	<!ENTITY ns_ai "http://ns.adobe.com/AdobeIllustrator/10.0/">
	<!ENTITY ns_graphs "http://ns.adobe.com/Graphs/1.0/">
	<!ENTITY ns_vars "http://ns.adobe.com/Variables/1.0/">
	<!ENTITY ns_imrep "http://ns.adobe.com/ImageReplacement/1.0/">
	<!ENTITY ns_sfw "http://ns.adobe.com/SaveForWeb/1.0/">
	<!ENTITY ns_custom "http://ns.adobe.com/GenericCustomNamespace/1.0/">
	<!ENTITY ns_adobe_xpath "http://ns.adobe.com/XPath/1.0/">
]>
<svg version="1.1" id="Layer_1" xmlns:x="&ns_extend;" xmlns:i="&ns_ai;" xmlns:graph="&ns_graphs;"
	 xmlns="http://www.w3.org/2000/svg" xmlns:xlink="http://www.w3.org/1999/xlink" x="0px" y="0px" width="13.754px"
	 height="29.491px" viewBox="0 0 13.754 29.491" enable-background="new 0 0 13.754 29.491" xml:space="preserve">
<metadata>
	<sfw  xmlns="&ns_sfw;">
		<slices></slices>
		<sliceSourceBounds  height="29.491" width="13.754" y="-555.439" x="593.289" bottomLeftOrigin="true"></sliceSourceBounds>
	</sfw>
</metadata>
<path fill="#FFFFFF" d="M9.069,8.842L9.062,6.484c-0.004-1.147,0.761-1.418,1.299-1.42c0.536-0.002,3.306-0.011,3.306-0.011
	l-0.017-5.05L9.096,0C4.043,0.017,2.906,3.787,2.914,6.198l0.01,2.665L0,8.872l0.013,3.561l0.008,2.333l2.947-0.01
	c0.022,6.68,0.05,14.735,0.05,14.735l5.893-0.02c0,0-0.026-8.137-0.049-14.736l4.375-0.015l0.203-2.314l0.314-3.58L9.069,8.842z"/>
</svg>
